<svg width="26" height="26" viewBox="0 0 26 26" fill="none" xmlns="http://www.w3.org/2000/svg">
<path d="M23.8755 18.0523V8.24437C23.8755 7.46541 23.4625 6.7464 22.7938 6.36119L14.2333 1.42998C13.9459 1.26438 13.63 1.17133 13.3106 1.15083C13.2771 1.14869 12.8572 1.14734 12.8237 1.14678C12.4469 1.1405 12.0687 1.2349 11.7301 1.42998L3.16963 6.36119C2.50089 6.7464 2.08789 7.46541 2.08789 8.24437V18.0523C2.08789 18.8313 2.50089 19.5503 3.16963 19.9355L11.7301 24.8667C12.0582 25.0557 12.4233 25.1502 12.7885 25.1502C12.8175 25.1502 13.2331 25.1496 13.2622 25.1484C13.598 25.1346 13.9314 25.0407 14.2333 24.8667L22.7938 19.9355C23.4625 19.5503 23.8755 18.8313 23.8755 18.0523Z" fill="#7AC7CC"/>
<path d="M23.3562 18.0523V8.24437C23.3562 7.4654 22.9432 6.7464 22.2745 6.36119L13.714 1.42998C13.0578 1.05199 12.2535 1.05199 11.5973 1.42998L3.03682 6.36119C2.36808 6.7464 1.95508 7.4654 1.95508 8.24437V18.0523C1.95508 18.8313 2.36808 19.5503 3.03682 19.9355L11.5973 24.8667C12.2535 25.2447 13.0578 25.2447 13.714 24.8667L22.2745 19.9355C22.9432 19.5503 23.3562 18.8313 23.3562 18.0523Z" fill="#C0E8DC"/>
<path d="M21.8581 17.19V9.10797C21.8581 8.32901 21.4451 7.61002 20.7764 7.22481L13.714 3.15654C13.0578 2.77855 12.2534 2.77855 11.5972 3.15654L4.53487 7.22481C3.86612 7.61002 3.45312 8.32901 3.45312 9.10797V17.19C3.45312 17.969 3.86612 18.688 4.53487 19.0732L11.5972 23.1414C12.2534 23.5194 13.0578 23.5194 13.714 23.1414L20.7764 19.0732C21.4451 18.688 21.8581 17.969 21.8581 17.19Z" fill="#47ABBA"/>
<path d="M21.8581 17.1998V9.11773C21.8581 8.33877 21.4451 7.61978 20.7764 7.23457L13.714 3.16631C13.0578 2.78831 12.2534 2.78831 11.5972 3.16631L4.53487 7.23457C3.86612 7.61978 3.45312 8.33877 3.45312 9.11773V17.1998C3.45312 17.9787 3.86612 18.6977 4.53487 19.0829L11.5972 23.1512C12.2534 23.5292 13.0578 23.5292 13.714 23.1512L20.7764 19.0829C21.4451 18.6977 21.8581 17.9787 21.8581 17.1998Z" fill="#7AC7CC"/>
<path d="M18.5972 16.0033V10.3049C18.5972 9.99332 18.432 9.70574 18.1645 9.55165L13.1994 6.69154C13.1135 6.64205 12.7948 6.60875 12.7003 6.59166C12.612 6.57567 12.5218 6.57385 12.433 6.5862C12.3267 6.601 12.2225 6.63612 12.1263 6.69154L7.1612 9.55165C6.89371 9.70574 6.72852 9.99332 6.72852 10.3049V16.0033C6.72852 16.3149 6.89371 16.6025 7.1612 16.7566L12.1263 19.6167C12.2292 19.676 12.3414 19.7121 12.4554 19.7249C12.5223 19.7324 12.8164 19.7318 12.8832 19.7233C12.9928 19.7093 13.1003 19.6738 13.1994 19.6167L18.1645 16.7566C18.432 16.6025 18.5972 16.3149 18.5972 16.0033Z" fill="#47ABBA"/>
<path d="M18.2418 16.0033V10.3049C18.2418 9.9933 18.0766 9.70572 17.8091 9.55163L12.8441 6.69152C12.5816 6.54033 12.2598 6.54033 11.9974 6.69152L7.0323 9.55163C6.7648 9.70572 6.59961 9.9933 6.59961 10.3049V16.0033C6.59961 16.3149 6.7648 16.6025 7.0323 16.7566L11.9974 19.6167C12.2598 19.7679 12.5816 19.7679 12.8441 19.6167L17.8091 16.7566C18.0766 16.6025 18.2418 16.3149 18.2418 16.0033Z" fill="#C0E8DC"/>
<mask id="mask0_387_54793" style="mask-type:luminance" maskUnits="userSpaceOnUse" x="5" y="5" width="16" height="16">
<path d="M5.07812 5.5625H20.2448V20.7292H5.07812V5.5625Z" fill="white"/>
</mask>
<g mask="url(#mask0_387_54793)">
<path d="M12.4275 6.49609L6.65234 9.82286V13.1501H18.2027V9.82286L12.4275 6.49609Z" fill="#F77976"/>
<path d="M6.65234 13.1504V16.4776L12.4275 19.8044L18.2027 16.4776V13.1504H6.65234Z" fill="#D94C5C"/>
<path d="M6.65234 9.82422V16.4786L11.6741 13.4331L6.65234 9.82422Z" fill="#C93C4D"/>
<path d="M18.2056 13.1504H11.6816L12.4304 19.8044L18.2056 16.4776V13.1504Z" fill="#F77976"/>
<path d="M18.2043 13.1501H11.6797L12.4291 6.49609L18.2043 9.82286V13.1501Z" fill="#D94C5C"/>
<path d="M18.2015 16.4786V9.82422L11.6895 13.4331L18.2015 16.4786Z" fill="#C93C4D"/>
<path d="M15.5425 15.1941V11.3205L12.1825 9.27539L8.82031 11.329V15.1856L12.1825 17.0225L15.5425 15.1941Z" fill="#D94C5C"/>
</g>
<mask id="mask1_387_54793" style="mask-type:luminance" maskUnits="userSpaceOnUse" x="-1" y="0" width="27" height="27">
<path d="M-0.335938 0.152344H25.6641V26.1523H-0.335938V0.152344Z" fill="white"/>
</mask>
<g mask="url(#mask1_387_54793)">
<path d="M7.04129 17.4437L7.08416 17.5827C7.08637 17.5899 7.09197 17.5955 7.09913 17.5977L7.23816 17.6406C7.25946 17.6471 7.25946 17.6773 7.23816 17.6839L7.09913 17.7267C7.09197 17.7289 7.08637 17.7346 7.08416 17.7417L7.04129 17.8807C7.03472 17.902 7.00457 17.902 6.998 17.8807L6.95513 17.7417C6.95292 17.7346 6.94731 17.7289 6.94016 17.7267L6.80113 17.6839C6.77983 17.6773 6.77983 17.6471 6.80113 17.6406L6.94016 17.5977C6.94731 17.5955 6.95292 17.5899 6.95513 17.5827L6.998 17.4437C7.00457 17.4224 7.03472 17.4224 7.04129 17.4437Z" fill="white"/>
</g>
</svg>
