<?xml version="1.0" encoding="UTF-8"?><svg xmlns="http://www.w3.org/2000/svg" width="13.2689cm" height="12.48661cm" viewBox="0 0 376.12629 353.95127"><defs><style>.cls-1{fill:#33c5ff;}.cls-1,.cls-2,.cls-3,.cls-4,.cls-5,.cls-6,.cls-7,.cls-8,.cls-9,.cls-10{stroke:#000;}.cls-1,.cls-3,.cls-4{stroke-width:2.6212px;}.cls-1,.cls-3,.cls-4,.cls-5,.cls-6,.cls-7,.cls-9,.cls-10{stroke-linecap:round;stroke-linejoin:round;}.cls-11{fill:#4c192d;opacity:.35;}.cls-11,.cls-12,.cls-13{mix-blend-mode:multiply;}.cls-11,.cls-12,.cls-13,.cls-14,.cls-15,.cls-16,.cls-17,.cls-18,.cls-19,.cls-20,.cls-21,.cls-22,.cls-23,.cls-24{stroke-width:0px;}.cls-2,.cls-5,.cls-6,.cls-10{fill:none;}.cls-2,.cls-8{stroke-miterlimit:10;stroke-width:2.09696px;}.cls-3{fill:#fff533;}.cls-4{fill:#ff33c5;}.cls-5{stroke-width:1.82093px;}.cls-6{stroke-width:1.04848px;}.cls-12{opacity:.52;}.cls-7{fill:#af33ff;}.cls-7,.cls-9{stroke-width:2.24082px;}.cls-8{fill:#9e9e9e;}.cls-9{fill:#ff336d;}.cls-13{fill:#201d1e;opacity:.25;}.cls-10{stroke-width:3.88825px;}.cls-25{isolation:isolate;}.cls-15{fill:#9b8112;}.cls-16{fill:#56dbab;}.cls-17{fill:#569137;}.cls-18{fill:#238e65;}.cls-19{fill:#deff8d;}.cls-20{fill:#dda254;}.cls-21{fill:#fff;}.cls-22{fill:#ffda9f;}.cls-23{fill:#ffd939;}.cls-24{fill:#ff3c5a;}</style></defs><g class="cls-25"><g id="Ocarina"><path class="cls-20" d="M309.2793,194.09701l-.5611-7.31785c.17714-.01382,18.24086-1.54149,32.34924-11.7575,2.11436-1.53125,3.5294-4.93624,2.14303-8.48049-3.98913-10.20065-24.24094-11.58446-41.86439-9.47982-32.11989,3.84118-43.5651-14.38176-45.12757-24.55221l7.25129-1.13653c.15256.91383,4.09869,22.33085,37.00596,18.40161,12.65444-1.51384,42.81969-3.16745,49.5703,14.09302,2.46147,6.29241.5396,13.32407-4.67412,17.09921-15.82854,11.46108-35.27352,13.06758-36.09264,13.13055Z"/><path class="cls-22" d="M329.64045,181.55438s5.79371.78293,7.20299,3.91467c0,0,10.49132-3.75808,13.46647-11.11766s-2.97515-15.18892-5.32395-17.38114c0,0-4.22784,1.25269-5.63713,4.54102,0,0,4.40086,3.28153,4.22784,8.2991-.15659,4.54102-5.16736,7.51617-13.93623,11.74401Z"/><path class="cls-22" d="M293.4689,150.39361s-.31317,3.91467,1.40928,7.04641l-8.2991-.31317-7.67275-8.92545s9.23862,2.50539,14.56257,2.19222Z"/><path class="cls-2" d="M309.2793,194.09701l-.5611-7.31785c.17714-.01382,18.24086-1.54149,32.34924-11.7575,2.11436-1.53125,3.5294-4.93624,2.14303-8.48049-3.98913-10.20065-24.24094-11.58446-41.86439-9.47982-32.11989,3.84118-43.5651-14.38176-45.12757-24.55221l7.25129-1.13653c.15256.91383,4.09869,22.33085,37.00596,18.40161,12.65444-1.51384,42.81969-3.16745,49.5703,14.09302,2.46147,6.29241.5396,13.32407-4.67412,17.09921-15.82854,11.46108-35.27352,13.06758-36.09264,13.13055Z"/><path class="cls-6" d="M328.70893,181.66328s7.35044-.29402,8.52651,4.70428"/><path class="cls-14" d="M342.004,175.3349s5.70738-3.42443,3.42443-10.72988c0,0,.2283,5.25079-4.10932,9.24596l.68489,1.48392Z"/><path class="cls-6" d="M339.60689,161.52302s2.51125-4.45176,5.93568-4.22346"/><path class="cls-6" d="M317.46224,155.70149s.11415-4.90835.45659-6.50642"/><path class="cls-6" d="M294.4044,156.95712s-1.71222-3.42443-.91318-6.39227"/><polygon class="cls-12" points="288.75959 150.15055 292.91917 157.00162 286.31278 157.00162 279.21703 148.68246 288.75959 150.15055"/><polygon class="cls-12" points="324.97237 183.18248 328.88727 189.05482 320.32343 192.23567 312.983 185.87397 324.97237 183.18248"/><path class="cls-9" d="M332.81402,151.15945c.57246,5.07707-3.07926,9.65692-8.15633,10.22938-3.87832.43729-7.18463-.97614-8.91801-4.22111,2.71159-.11994,4.13527-2.3243,3.56746-4.61378-.41903-1.68955-1.79277-3.26619-4.65335-2.81978.89344-3.66308,3.96607-6.284,7.93086-6.73104,5.07707-.57246,9.65692,3.07926,10.22938,8.15633Z"/><path class="cls-11" d="M318.69409,155.90558s7.47171,1.57178,9.51264-3.37683c2.27065-5.50558-1.28052-8.20409-1.28052-8.20409,0,0,6.22455,3.57164,4.72535,9.50058-1.4992,5.92894-9.84142,8.29405-11.69172,7.26398-1.85031-1.03006-3.0081-2.50981-3.0081-2.50981l1.74235-2.67383Z"/><ellipse class="cls-21" cx="321.98491" cy="147.24326" rx="2.45885" ry="1.55934" transform="translate(-27.58507 91.06773) rotate(-15.44523)"/><path class="cls-7" d="M319.16368,151.15945c.57246,5.07707-3.07926,9.65692-8.15633,10.22938-3.87832.43729-7.18463-.97614-8.91801-4.22111,2.71159-.11994,4.13527-2.3243,3.56746-4.61378-.41903-1.68955-1.79277-3.26619-4.65335-2.81978.89344-3.66308,3.96607-6.284,7.93086-6.73104,5.07707-.57246,9.65692,3.07926,10.22938,8.15633Z"/><path class="cls-11" d="M305.04376,155.90558s7.47171,1.57178,9.51264-3.37683c2.27065-5.50558-1.28052-8.20409-1.28052-8.20409,0,0,6.22455,3.57164,4.72535,9.50058s-9.84142,8.29405-11.69172,7.26398-3.0081-2.50981-3.0081-2.50981l1.74235-2.67383Z"/><ellipse class="cls-21" cx="308.33458" cy="147.24326" rx="2.45885" ry="1.55934" transform="translate(-28.07804 87.43241) rotate(-15.44523)"/><path class="cls-16" d="M151.0701,107.14967s-42.66073,33.43679-63.03026,53.80632c-20.36954,20.36954-36.51143,36.1271-39.58608,51.88467-3.07465,15.75757,6.14929,31.51513,24.59718,28.82481,18.44788-2.69032,44.19805-13.45158,54.95931-18.83221s49.96301-18.44788,62.64593-21.90686c12.68292-3.45898,36.1271-3.84331,45.73537-2.30599s13.83591,2.30599,13.83591,2.30599c0,0,0-23.82851,7.30229-39.97041,7.30229-16.1419,12.29859-37.66442,11.52993-46.50403s-9.9926-29.59348-29.59348-37.66442c-19.60087-8.07095-62.64593,6.53362-88.3961,30.36214Z"/><path class="cls-24" d="M48.39347,218.00863l9.32069-12.66658,1.43395,12.90557,18.88037-5.73581-6.21379,16.49045,14.10053,2.8679-16.96844,9.79867s-24.37719-2.62891-20.55332-23.66021Z"/><ellipse class="cls-19" cx="223.18847" cy="104.03028" rx="19.81407" ry="16.5677" transform="translate(-23.03403 100.88824) rotate(-24.25957)"/><ellipse class="cls-19" cx="226.33761" cy="157.21582" rx="19.81407" ry="16.5677" transform="translate(-44.60834 106.87876) rotate(-24.25957)"/><ellipse class="cls-19" cx="175.61865" cy="130.75277" rx="18.28226" ry="15.28686" transform="translate(-38.21426 83.70295) rotate(-24.25957)"/><ellipse class="cls-19" cx="134.18272" cy="160.75698" rx="18.28226" ry="15.28686" transform="translate(-54.20118 69.32769) rotate(-24.25957)"/><ellipse class="cls-19" cx="96.40855" cy="192.81632" rx="14.00134" ry="11.70734" transform="translate(-70.70914 56.63843) rotate(-24.25957)"/><path class="cls-16" d="M307.65132,180.99029s-15.57498,19.40489-15.57498,38.55445c0,0,4.59589,3.82991,12.51105,5.36188,7.91515,1.53196,15.31965-4.08524,18.12825-13.53236,2.8086-9.44712,3.06393-12.51105-1.27664-17.10694s-13.78768-13.27703-13.78768-13.27703Z"/><path class="cls-23" d="M250.20263,203.96977s-2.55327-20.93685,4.59589-37.53314c0,0,4.34057-11.23441,7.4045-17.10694,3.06393-5.87253,8.17048-8.42581,10.46843-7.14917s35.23519,36.51183,35.23519,36.51183l.25533,4.08524s-7.91515,4.59589-11.74506,15.31965c-3.82991,10.72375-4.34057,21.44751-4.34057,21.44751l-1.78729,1.02131-40.08641-16.59629Z"/><path class="cls-8" d="M267.58095,135.42591l-.85879,6.15469s8.4448,3.72144,11.30745-4.29397-4.29397-15.31515-4.29397-15.31515l-4.72336,5.58216-1.43132,7.87227Z"/><path class="cls-13" d="M47.90017,227.84487s10.26664,14.49464,55.06981-5.68612c43.71186-19.6892,84.61038-42.94296,137.96835-41.94763,0,0,7.60025-14.42999,17.57188-24.60106,0,0-4.78638,12.96312-6.78071,22.93476s-2.59262,22.93476-2.59262,22.93476c0,0-12.96312-4.58695-25.92625-4.18809-12.96312.39887-37.09448,5.18525-53.64739,10.3705-16.55291,5.18525-23.93192,6.58128-41.88086,14.35915-17.94894,7.77787-26.63593,10.69866-36.09731,14.75802-18.0353,7.73795-36.90418,5.6243-43.68489-8.93429Z"/><path class="cls-18" d="M313.02898,188.25395s-15.00632,13.26646-15.44128,33.27488l-4.34966-1.3049s.65245-16.31122,6.08952-26.09794,7.82938-11.52659,7.82938-11.52659l5.87204,5.65455Z"/><path class="cls-18" d="M306.28701,215.6568s-2.60979,5.21959,1.3049,5.87204,7.86872-3.97551,10.696-10.06503c2.82728-6.08952,3.22291-11.46577.8306-12.55319s-12.17904,10.43918-12.83149,16.74618Z"/><path class="cls-21" d="M47.80996,215.6965s10.04896-21.04,43.96418-52.44299c33.91523-31.40299,119.01732-103.62986,162.35344-76.62329,0,0-9.73493-9.10687-21.98209-11.30508-12.24716-2.19821-45.2203,5.96657-71.28478,24.49433s-88.87045,75.6812-97.03523,86.35821c-8.16478,10.67702-15.70149,22.29612-16.01552,29.51881Z"/><path class="cls-15" d="M251.07873,183.18248l3.42553-.24468,2.20213-8.07447.24468,9.54256,32.0532,15.90426s9.0532-16.88299,16.14894-21.28724l2.4981,1.96739s-8.22603,9.51105-11.23441,17.10694c-3.00838,7.59589-5.69987,23.50015-5.69987,23.50015l-41.1064-18.59575s1.2234-18.59575,1.46809-19.81916Z"/><path class="cls-14" d="M313.55056,218.69442c-2.33867,3.51929-8.2432,5.64931-8.51858-.4674.02871-5.73967,2.90174-11.00128,6.48458-15.29896,2.15772-2.70188,8.35035-7.05834,9.35612-1.08345.18386,1.95428-.30186,3.77645-1.02647,5.44288,1.26426-7.87134-1.77174-9.25969-6.82387-3.07379-3.1252,4.00309-5.86949,8.89669-6.36636,13.99969-.37623,4.77879,4.76047,2.40557,6.89457.48103h0Z"/><path class="cls-10" d="M51.08679,233.68633s10.69616,16.19705,43.39586,2.13923c32.6997-14.05782,83.43008-31.78289,102.07196-35.75575s42.78466-3.05605,53.48082,1.52802l.3056,2.75044s35.45014,15.28023,37.28377,15.89144,4.27847.3056,4.27847.3056c0,0,13.00033,7.31606,18.64695,4.78482,9.01745-4.04231,14.96956-16.39779,14.05275-24.03791-.91681-7.64012-16.50265-18.03068-16.50265-18.03068l-.61121-3.97286s-35.75575-36.36696-36.97817-36.97817-4.27847-.3056-4.27847-.3056c0,0,2.75044-14.33134,2.75044-20.16991,0-13.44661-3.36165-29.94926-18.94749-39.72861-18.32842-11.50018-36.36696-11.61298-76.40117,10.39056-33.35178,18.33075-82.07667,60.95764-112.7534,96.96946-12.62578,14.82157-19.26782,31.38451-9.79408,44.21991Z"/><path class="cls-10" d="M250.03543,201.59784s-2.96817-16.81245,6.82425-39.57985c0,0,1.62551-9.13948,9.37279-20.01306"/><path class="cls-10" d="M292.54112,219.80038s-.72548-8.9476,4.44022-20.73511c2.19738-5.01416,6.36884-12.67473,10.29941-16.11398"/><path class="cls-5" d="M258.98636,154.91737s-6.81604,27.9238,2.85834,53.86874"/><path class="cls-5" d="M285.15118,156.89622s-15.1712,29.90265-4.39745,60.90466"/><path class="cls-5" d="M287.78965,219.55986s-1.76749-8.94075,5.02338-23.47319c2.85529-6.11032,7.19831-12.76682,13.17427-17.79206"/><path class="cls-5" d="M277.43442,200.14347c0-.62189,8.39556-17.72395,26.89688-23.16552"/><path class="cls-14" d="M305.94764,220.30539s4.5193,0,9.69595-9.94245c4.60425-8.84308,1.97206-10.68197,1.97206-10.68197,0,0-4.02628.98603-7.80606,6.82003s-4.27279,12.24319-3.86194,13.8044Z"/><path class="cls-14" d="M267.38636,137.69144c2.96003-.24225,5.28673-2.72131,5.28673-5.7438,0-2.44893-1.52744-4.54111-3.6816-5.37582l-1.60513,11.11962Z"/><path class="cls-10" d="M269.1297,120.3175c5.47685,1.03903,9.61811,5.85096,9.61811,11.63015,0,4.63534-2.66418,8.64843-6.54482,10.59156"/><path class="cls-14" d="M274.35312,123.39648s-2.95327,7.58005-3.44548,7.58005-2.75638-.6891-2.75638-.98442.6891-10.33643.6891-10.0411,5.51276,3.44548,5.51276,3.44548Z"/><polygon class="cls-14" points="270.71076 135.20955 268.54503 141.50985 266.18242 141.60829 267.46217 134.42201 270.71076 135.20955"/><path class="cls-20" d="M210.83222,246.0769c-12.01655,0-23.32557-.45257-32.37791-.97476-.44028-.02509-.9809-.05068-1.60651-.08038-12.30119-.58311-25.59966-2.0089-30.9639-8.1595-1.77955-2.04013-2.59662-4.50416-2.36317-7.12638,1.15496-12.95751,23.94196-12.43379,37.55477-12.12098,2.22494.0512,4.14681.09522,5.31816.05068,15.16198-.57595,30.97414-.75411,43.6808-.89694,29.88163-.33533,33.7909-9.21924,36.93122-16.3579,4.00347-9.0979,9.48545-21.5578,20.12689-29.15824,9.75576-6.96767,17.88761-3.2468,20.82724-.30871,0,0,1.61719,1.61526,2.00973,4.3442.55598,3.86527-1.33908,6.59343-3.30657,4.22509l-3.84726-3.3351c-.44335-.41212-4.52566-3.87701-11.41756,1.04694-9.00115,6.42859-14.01418,17.8226-17.67362,26.14182-4.71918,10.7254-11.60289,20.38236-43.56817,20.74124-12.6616.14232-28.42052.31946-43.48421.89182-1.39046.05427-3.32155.00922-5.76561-.04761-19.59549-.45052-29.71371,1.37818-30.07515,5.43489-.05631.63329.11263,1.11145.58363,1.65105,2.67444,3.06659,11.34794,4.96799,25.7809,5.65247.65428.03072,1.22049.05785,1.68125.08447,63.86298,3.68401,105.24183-1.92249,111.44772-16.90273l6.1598,3.0799c-4.99051,12.04777-21.61953,17.89797-53.03702,20.78385-10.70083.98346-21.93818,1.3408-32.61546,1.3408Z"/><path class="cls-6" d="M212.7888,239.02931s.11415,5.82153.34244,6.73471"/><path class="cls-6" d="M247.03311,237.77369s.34244,5.70738.34244,6.16398"/><path class="cls-14" d="M285.72918,226.92965l7.6479,1.48392s3.47569-4.12845,3.10762-4.46133-7.44523-3.18657-7.44523-3.18657c0,0,1.14148,1.48392-3.31028,6.16398Z"/><path class="cls-14" d="M149.79003,230.78009s-1.24744-4.44402,7.09483-7.01687c0,0-5.30163,2.72878-5.06774,6.78297l-2.02709.2339Z"/><ellipse class="cls-17" cx="223.01697" cy="102.88233" rx="13.81786" ry="10.38449" transform="translate(-22.43932 94.36444) rotate(-22.77735)"/><ellipse class="cls-17" cx="225.43785" cy="156.50769" rx="14.87788" ry="10.93991" transform="translate(-43.01165 99.48359) rotate(-22.77735)"/><ellipse class="cls-17" cx="175.7525" cy="130.44531" rx="12.93883" ry="10.93991" transform="translate(-36.79622 78.21541) rotate(-22.77735)"/><ellipse class="cls-17" cx="134.27262" cy="160.57549" rx="12.93883" ry="10.93991" transform="translate(-51.69591 64.50609) rotate(-22.77735)"/><ellipse class="cls-17" cx="96.30785" cy="192.36973" rx="9.83426" ry="8.54384" transform="translate(-66.96572 52.28741) rotate(-22.77735)"/><path class="cls-14" d="M226.22464,91.91564c5.32902-.41487,10.95964,3.54678,11.32516,9.17535.62168,8.59343-7.82625,15.30566-15.90947,15.51267-9.05425.48981-16.01376-7.97031-10.75719-16.18205-3.78798,9.75778,5.1538,16.01733,14.11516,13.22221,11.93668-3.42523,15.64772-18.94174,1.22635-21.72818h0Z"/><ellipse class="cls-14" cx="223.98225" cy="105.99888" rx="12.0784" ry="8.97533" transform="translate(-23.81061 104.41474) rotate(-24.95942)"/><path class="cls-14" d="M229.44107,144.86061c5.65986-.31838,11.44666,3.88392,11.76681,9.85665.41298,5.969-3.70296,11.25914-8.76854,13.92336-5.05316,2.64132-11.57173,3.08832-16.49731-.14123-5.09175-3.20483-6.2208-10.22522-2.80172-14.94668-4.15702,10.20928,5.15043,16.95457,14.63471,14.16594,12.6281-3.40086,16.80341-19.67531,1.66604-22.85804h0Z"/><ellipse class="cls-14" cx="226.83702" cy="159.65122" rx="12.71995" ry="9.45205" transform="translate(-45.3447 106.16609) rotate(-24.02118)"/><path class="cls-14" d="M178.17122,119.404c4.91385-.50155,10.20343,3.03355,10.66587,8.22521.5735,5.21868-2.84779,10.00282-7.19469,12.51809-4.33694,2.4948-10.03635,3.11764-14.4693.46053-4.56083-2.58844-5.81892-8.78895-2.98592-13.00548-3.78461,10.82338,8.05541,15.66132,16.30648,10.55874,9.03686-5.05678,9.04778-17.09962-2.32244-18.75707h0Z"/><ellipse class="cls-14" cx="176.41201" cy="132.46413" rx="11.1615" ry="8.29399" transform="translate(-40.45454 92.00621) rotate(-26.33469)"/><path class="cls-14" d="M135.793,149.63759c4.87963-.76516,10.3519,2.48031,11.09288,7.63955.85335,5.18031-2.30557,10.1415-6.51093,12.88699-4.19649,2.7245-9.85408,3.65297-14.42358,1.23819-4.69344-2.33935-6.28326-8.46323-3.68111-12.82604-3.19707,11.01129,8.88618,15.20529,16.85084,9.66629,8.7517-5.53564,8.11479-17.56156-3.3281-18.60499h0Z"/><ellipse class="cls-14" cx="134.73886" cy="162.77345" rx="11.1615" ry="8.29399" transform="translate(-62.57768 87.16963) rotate(-29.41825)"/><path class="cls-14" d="M97.91901,184.08534c10.28211-.71986,11.23365,11.07182,3.53512,15.83729-3.23759,2.10222-7.60291,2.8186-11.12845.95546-3.60486-1.76861-4.85144-6.56918-2.8402-9.89604-1.86206,5.69899,2.68764,10.20337,8.33753,9.24177,9.62641-1.24596,13.99418-14.60273,2.096-16.13848h0Z"/><ellipse class="cls-14" cx="97.10572" cy="194.22041" rx="8.61174" ry="6.39929" transform="translate(-82.87636 72.73979) rotate(-29.41825)"/><path class="cls-22" d="M274.49569,185.79482s4.0814,1.9333,5.58508,3.86659c0,0,13.9627-19.54778,21.37367-14.71454,0,0,1.39627-4.29622-.42962-6.98135,0,0-13.53308-2.89995-26.52913,17.82929Z"/><path class="cls-6" d="M301.25327,175.1066s1.94051-4.56591-.2283-7.53375"/><path class="cls-6" d="M274.08611,185.72234s4.22346,1.25562,6.16398,4.22346"/><path class="cls-22" d="M221.63977,217.33612l.24933,6.35796s13.96257.99733,23.56185-.748,17.95188-6.60729,17.95188-6.60729c0,0-1.74532-4.23864-3.24131-5.60996,0,0-4.86197,2.49332-9.72394,3.86464-4.86197,1.37132-13.21458,2.24399-17.20389,2.36865s-11.59392.374-11.59392.374Z"/><polygon class="cls-22" points="166.0388 218.08411 167.41013 224.56674 187.97999 224.31741 187.85533 217.95945 166.0388 218.08411"/><path class="cls-22" d="M146.7156,237.53199s2.86731-3.73998,5.60996-4.48797c0,0,2.24399,1.99465,7.47995,2.74265s22.07399,2.35626,22.07399,2.35626c0,0-.3293,5.43932-.20464,7.05997,0,0-29.97263-1.93628-34.95927-7.67091Z"/><path class="cls-6" d="M259.9318,210.26409s3.08199,3.76687,3.65273,6.50642"/><path class="cls-6" d="M221.80647,224.07596c-.11415-.34244-.11415-6.73471-.11415-6.73471"/><line class="cls-6" x1="187.9046" y1="224.30426" x2="187.9046" y2="218.36858"/><path class="cls-6" d="M167.47216,224.6467s-.57074-5.0225-1.14148-6.39227"/><path class="cls-6" d="M147.15387,237.3171s2.51125-3.88102,5.70738-4.33761"/><path class="cls-6" d="M182.15637,238.1593s-.91318,5.25079-.57074,7.07716"/><path class="cls-22" d="M250.35904,237.50443s7.54957-.96085,14.13828-2.7453,10.70666-2.88256,10.70666-2.88256l5.21607,4.80427s-7.27504,3.84342-14.00102,5.0788-12.9029,1.92171-12.9029,1.92171l-3.15709-6.17692Z"/><path class="cls-6" d="M275.68418,232.18045s3.65273,3.88102,4.90835,4.7942"/><path class="cls-2" d="M210.83222,246.0769c-12.01655,0-23.32557-.45257-32.37791-.97476-.44028-.02509-.9809-.05068-1.60651-.08038-12.30119-.58311-25.59966-2.0089-30.9639-8.1595-1.77955-2.04013-2.59662-4.50416-2.36317-7.12638,1.15496-12.95751,23.94196-12.43379,37.55477-12.12098,2.22494.0512,4.14681.09522,5.31816.05068,15.16198-.57595,30.97414-.75411,43.6808-.89694,29.88163-.33533,33.7909-9.21924,36.93122-16.3579,4.00347-9.0979,9.48545-21.5578,20.12689-29.15824,9.75576-6.96767,17.88761-3.2468,20.82724-.30871,0,0,1.61719,1.61526,2.00973,4.3442.55598,3.86527-1.33908,6.59343-3.30657,4.22509l-3.84726-3.3351c-.44335-.41212-4.52566-3.87701-11.41756,1.04694-9.00115,6.42859-14.01418,17.8226-17.67362,26.14182-4.71918,10.7254-11.60289,20.38236-43.56817,20.74124-12.6616.14232-28.42052.31946-43.48421.89182-1.39046.05427-3.32155.00922-5.76561-.04761-19.59549-.45052-29.71371,1.37818-30.07515,5.43489-.05631.63329.11263,1.11145.58363,1.65105,2.67444,3.06659,11.34794,4.96799,25.7809,5.65247.65428.03072,1.22049.05785,1.68125.08447,63.86298,3.68401,105.24183-1.92249,111.44772-16.90273l6.1598,3.0799c-4.99051,12.04777-21.61953,17.89797-53.03702,20.78385-10.70083.98346-21.93818,1.3408-32.61546,1.3408Z"/><path class="cls-1" d="M254.00342,242.35997c0,5.97654-4.84494,10.82149-10.82149,10.82149-4.56542,0-8.22337-2.07628-9.81293-6.07537,3.16763.21597,5.11141-2.15975,4.75145-4.89543-.26564-2.01883-1.65581-4.03153-5.03942-3.88755,1.51861-4.14082,5.4337-6.78462,10.10089-6.78462,5.97654,0,10.82149,4.84494,10.82149,10.82149Z"/><path class="cls-11" d="M236.96858,246.02621s8.479,2.80627,11.49993-2.67842c3.36094-6.102-.41321-9.70414-.41321-9.70414,0,0,7.29422,5.40146,4.77451,12.09668-2.51971,6.69522-13.05355,7.917-15.06932,6.47717s-3.16763-3.31162-3.16763-3.31162l2.37572-2.87967Z"/><ellipse class="cls-21" cx="241.9291" cy="236.38855" rx="2.87625" ry="1.82404" transform="translate(-34.04219 40.81481) rotate(-9.01213)"/><path class="cls-4" d="M238.41356,242.35997c0,5.97654-4.84494,10.82149-10.82149,10.82149-4.56542,0-8.22337-2.07628-9.81293-6.07537,3.16763.21597,5.11141-2.15975,4.75145-4.89543-.26564-2.01883-1.65581-4.03153-5.03942-3.88755,1.51861-4.14082,5.4337-6.78462,10.10089-6.78462,5.97654,0,10.82149,4.84494,10.82149,10.82149Z"/><path class="cls-11" d="M221.37873,246.02621s8.479,2.80627,11.49993-2.67842c3.36094-6.102-.41321-9.70414-.41321-9.70414,0,0,7.09861,5.40146,4.5789,12.09668-2.51971,6.69522-12.85794,7.917-14.87371,6.47717-2.01577-1.43983-3.16763-3.31162-3.16763-3.31162l2.37572-2.87967Z"/><ellipse class="cls-21" cx="226.33924" cy="236.38855" rx="2.87625" ry="1.82404" transform="translate(-34.23464 38.37276) rotate(-9.01213)"/><path class="cls-3" d="M223.33207,242.35997c0,5.97654-4.84494,10.82149-10.82149,10.82149-4.56542,0-8.22337-2.07628-9.81293-6.07537,3.16763.21597,5.11141-2.15975,4.75145-4.89543-.26564-2.01883-1.65581-4.03153-5.03942-3.88755,1.51861-4.14082,5.4337-6.78462,10.10089-6.78462,5.97654,0,10.82149,4.84494,10.82149,10.82149Z"/><path class="cls-11" d="M206.29724,246.02621s8.479,2.80627,11.49993-2.67842c3.36094-6.102-.41321-9.70414-.41321-9.70414,0,0,7.35549,5.67599,4.83578,12.37121-2.51971,6.69522-13.11483,7.64247-15.13059,6.20264s-3.16763-3.31162-3.16763-3.31162l2.37572-2.87967Z"/><ellipse class="cls-21" cx="211.25775" cy="236.38855" rx="2.87625" ry="1.82404" transform="translate(-34.42082 36.01034) rotate(-9.01213)"/></g></g></svg>