<?xml version="1.0" encoding="UTF-8"?><svg xmlns="http://www.w3.org/2000/svg" width="13.2689cm" height="12.48661cm" xmlns:xlink="http://www.w3.org/1999/xlink" viewBox="0 0 376.12629 353.95127"><defs><style>.cls-1{fill:url(#linear-gradient);}.cls-1,.cls-2,.cls-3,.cls-4,.cls-5,.cls-6,.cls-7,.cls-8,.cls-9,.cls-10,.cls-11,.cls-12,.cls-13{stroke-width:0px;}.cls-2{opacity:.25;}.cls-2,.cls-6{mix-blend-mode:multiply;}.cls-14{stroke-width:1.73673px;}.cls-14,.cls-15,.cls-16,.cls-17{fill:none;stroke:#000;stroke-linecap:round;stroke-linejoin:round;}.cls-15{stroke-width:3.47347px;}.cls-3{fill:url(#linear-gradient-2);}.cls-4{fill:url(#linear-gradient-3);}.cls-16{stroke-width:1.63261px;}.cls-18{isolation:isolate;}.cls-17{stroke-width:1.67546px;}.cls-6{opacity:.42;}.cls-7{fill:#5865f2;}.cls-8{fill:#c8c8c8;}.cls-9{fill:#c18938;}.cls-10{fill:#848484;}.cls-11{fill:#fff;}.cls-12{fill:#e3ac53;}.cls-13{fill:#ff3c5a;}</style><linearGradient id="linear-gradient" x1="283.20525" y1="182.54486" x2="206.83454" y2="59.72187" gradientUnits="userSpaceOnUse"><stop offset="0" stop-color="#ff9a00"/><stop offset=".32079" stop-color="#ffd600"/><stop offset=".39027" stop-color="#ffde35"/><stop offset=".48942" stop-color="#ffea7c"/><stop offset=".57877" stop-color="#fff3b4"/><stop offset=".65498" stop-color="#fff9dd"/><stop offset=".71513" stop-color="#fffdf5"/><stop offset=".75172" stop-color="#fff"/><stop offset="1" stop-color="#ffb700"/></linearGradient><linearGradient id="linear-gradient-2" x1="141.12532" y1="237.50659" x2="78.9265" y2="113.10895" xlink:href="#linear-gradient"/><linearGradient id="linear-gradient-3" x1="260.24508" y1="323.05504" x2="215.8324" y2="290.29817" xlink:href="#linear-gradient"/></defs><g class="cls-18"><g id="Mallet"><path class="cls-12" d="M239.0687,279.76438s-4.20597-33.91064-22.34422-53.36326c0,0,5.25746-7.8862,2.36586-15.50952,0,0,21.02986-9.20056,27.86456-15.50952,0,0,7.62332,3.41735,9.72631,3.15448s17.6125-6.04608,24.18433-14.19515,12.88079-42.84833-5.78321-84.64517c-15.10101-33.81775-37.04994-44.44684-49.15729-44.95132-12.61791-.52575-27.60169,5.52034-30.49329,8.14907s-4.51227,7.90233-4.51227,7.90233c0,0-46.21919-1.59377-84.77179,28.28927,0,0-8.12519-2.7084-18.95878,1.69275-11.63158,4.72533-24.59656,9.00181-30.77639,23.42141-7.90317,18.44074-1.42877,44.17425,3.37665,59.87878,0,0,10.21898,33.23066,30.09006,49.53229,19.52085,16.0143,30.05116,15.34939,37.6863,13.742,6.31422-1.32931,22.9005-7.08343,30.24178-14.95473,1.3514-1.44897,2.86792-5.51113,2.86792-5.51113,0,0,14.18039-1.49966,20.05433-3.84923,0,0-.78319,5.48235,3.91596,9.00671s7.44033,2.34958,7.44033,2.34958c0,0,6.36773,39.57782,25.16435,57.19966,0,0-15.37445,5.45575-14.19966,12.50448s9.00671,9.00671,14.09747,9.78991c0,0,.78319,19.18822,9.39831,19.18822s14.88066-13.70587,14.88066-13.70587c0,0,16.05545,9.39831,20.36301,1.95798s-5.48235-19.97141-5.48235-19.97141c0,0,5.87394-11.35629,1.56639-16.05545s-14.88066-.78319-14.88066-.78319c0,0-11.55191-14.20278-19.38384-9.89522-5.23754,2.88065-6.06992,15.76916-6.06992,15.76916"/><path class="cls-1" d="M191.82517,69.43022s11.15434-.44617,16.50842,3.56939,30.33979,21.41633,38.37092,50.86377,8.03112,51.75612,5.80025,58.8949-5.54986,12.62381-5.54986,12.62381c0,0,8.54867,3.76287,9.72631,3.15448s20.3631-6.40865,25.71718-15.77829,8.4773-39.26326-2.67704-70.94158-28.5551-46.84821-38.37092-53.09464-15.61607-5.35408-18.73928-4.90791-19.63163,4.90791-19.63163,4.90791c0,0-9.81582,2.67704-11.15434,10.70816Z"/><path class="cls-3" d="M61.9887,114.49373s-10.70816,12.49286-8.92347,37.47857,19.18546,68.26454,40.60178,85.21913,37.0324,10.70816,44.61735,7.58495,21.41633-10.70816,23.20102-20.07781,5.35408-41.49413-8.4773-73.61862c-13.83138-32.12449-36.14005-45.95587-40.60178-49.52525s-10.70816-4.90791-13.3852-4.46173-23.20102,4.46173-37.0324,17.40076Z"/><ellipse class="cls-12" cx="91.73696" cy="181.95374" rx="17.16546" ry="50.56045" transform="translate(-63.77471 50.27628) rotate(-22.98797)"/><path class="cls-8" d="M184.14901,216.54595s-4.37109,4.37109-3.5385,8.74219c.83259,4.37109,3.9548,7.9096,7.70145,8.95033s4.99553.62444,4.99553.62444c0,0,4.57924-6.24442,12.07254-7.70145s11.34444-.76034,11.34444-.76034c0,0,4.05845-6.52482,3.01772-11.93665s-4.78739-8.74219-10.40736-7.9096-16.85993,1.04074-25.18582,9.99107Z"/><path class="cls-4" d="M217.25022,291.59367s-15.35302,5.41101-14.19966,12.50448,14.09747,9.78991,14.09747,9.78991c0,0,.84674,18.56446,8.60409,18.27715s15.67488-12.7948,15.67488-12.7948c0,0,13.63067,9.05978,18.80224,3.31359s-3.92158-21.32702-3.92158-21.32702c0,0,6.50736-13.1501.47387-16.59781s-13.78814-.24083-13.78814-.24083c0,0-12.90713-13.42316-19.38384-9.89522s-6.35932,16.97055-6.35932,16.97055Z"/><path class="cls-10" d="M78.39093,135.62885s-5.88888,12.05819,2.24338,36.45499,24.95765,48.51318,36.17457,46.83064c0,0-.28042,4.76719-3.08465,7.85184s-8.69311,2.24338-17.94707-6.44973-20.7513-31.96822-25.23807-46.55022-8.97354-44.30683,7.85184-38.13753Z"/><path class="cls-10" d="M190.91948,70.79632s4.12742-8.6383,6.09038-8.91872,18.50792.56085,31.96822,14.30157,26.07934,36.73541,28.88357,58.88883c2.80423,22.15342,5.04761,38.9788,2.80423,48.7936-2.24338,9.8148-3.48257,15.32877-3.98467,14.67496s-9.72631-3.15448-9.72631-3.15448c0,0,5.85913-12.08133,6.13956-23.57867s-3.6455-43.74599-10.65607-58.32798-21.59257-31.96822-24.95765-34.49203-8.41269-6.16931-12.61903-6.73015-13.94222-1.45693-13.94222-1.45693Z"/><path class="cls-9" d="M78.39093,135.62885s10.68079,5.97937,16.00514,15.29698c0,0-5.59056,2.12974-2.39596,16.50548s15.44061,34.87447,23.42713,32.2123c0,0,1.06487,3.72704,1.33109,8.78517s.05056,10.4857.05056,10.4857c0,0-9.36816.69543-20.01686-14.21275s-26.68592-48.96295-18.40109-69.07288Z"/><path class="cls-9" d="M162.49575,217.24951s18.23524-1.8864,23.89446-4.08721l-5.66063,9.87543s-8.80181,1.7574-11.63142,2.3862-8.42292,1.46303-8.42292,1.46303l1.8205-9.63745Z"/><path class="cls-9" d="M213.11427,205.61668s25.78086-8.17442,37.09929-18.23524l-3.14401,6.91682s-8.80322,6.91682-16.03444,11.00403-11.94477,5.58932-11.94477,5.58932l-5.97607-5.27492Z"/><path class="cls-10" d="M187.01901,232.34074s3.14401-6.91682,14.46243-10.37522,16.66324,0,16.66324,0l-1.4202,4.4356s-7.38302-2.8636-13.98543.59481-10.65317,7.39809-10.65317,7.39809l-5.06686-2.05327Z"/><path class="cls-9" d="M151.58556,148.20415s10.46964,23.09479,11.70136,42.18648c0,0,64.6654-11.0855,89.29984-33.56442,0,0-1.23172-12.93308-2.77137-21.2472s-5.85068-18.47583-5.85068-18.47583c0,0-47.72922,8.00619-92.37914,31.10098Z"/><path class="cls-9" d="M124.7956,110.94456s48.34509-29.2534,97.61396-28.94547c0,0-12.61681-8.4062-17.54787-9.74585s-16.94035-1.95551-20.32758-1.33965-25.55823-.30793-44.03406,8.31412c-18.47583,8.62205-32.94856,19.39962-32.94856,19.39962,0,0,12.31722,7.0824,17.24411,12.31722Z"/><path class="cls-11" d="M193.30749,234.86291s1.26407,16.16074,5.25331,24.4461c0,0,6.1373-20.2531,22.40115-27.61786l-4.23748-5.29003s-16.08883-1.56166-23.41699,8.46179Z"/><path class="cls-11" d="M208.55242,280.31154s6.72778-22.18348,23.09264-28.0021c0,0,2.72748,6.36411,4.5458,13.81922,1.81832,7.4551,3.27297,14.72838,3.27297,14.72838,0,0-7.81877-6.54595-10.90991-7.4551s-6.72778.36366-8.90976,6.72778-2.90931,10.36441-2.90931,10.36441c0,0-5.45495-5.45495-8.18243-10.18258Z"/><path class="cls-13" d="M198.7335,259.76455c-.07055-.54091,8.36426-23.63814,21.81982-27.82027,0,0,3.81847,4.0003,6.18228,9.27342s4.90946,11.09174,4.90946,11.09174c0,0-18.91051,9.27342-23.09264,28.0021,0,0-8.72793-12.18273-9.81892-20.547Z"/><ellipse class="cls-11" cx="226.56514" cy="284.81267" rx="6.17298" ry="3.15827" transform="translate(-99.70514 446.05077) rotate(-77.79608)"/><path class="cls-6" d="M162.62547,202.15735s81.46483-31.13577,78.90572-89.14214c0,0,20.89935,45.63736,6.39776,81.46483,0,0-5.11821,3.41214-14.50159,8.95687s-13.64856,6.82428-13.64856,6.82428c0,0,2.13259,2.98562,0,8.95687s-1.70607,8.10383-2.98562,7.67731-14.50159,1.27955-14.50159,1.27955c0,0,5.97124-5.54473,4.26517-11.08945s-5.97124-8.95687-11.94249-5.97124-10.23642,6.39776-11.51597,8.53035-1.27955,3.41214-3.41214,3.83866-17.48721,3.41214-17.48721,3.41214l.42652-24.73801Z"/><path class="cls-6" d="M251.02571,147.0997c-.3797-1.57304,6.67209-16.87647,6.67209-16.87647l2.35486,14.91409s16.09152-29.04323,11.38181-55.33913c0,0,14.52161,32.96799,16.09152,51.41436s-1.96238,37.28523-5.10219,41.60246-12.95171,9.8119-18.0539,12.55923-6.67209,3.92476-9.02695,3.53228-7.414-4.42651-7.414-4.42651c0,0,8.59143-24.61672,3.09676-47.38033Z"/><path class="cls-6" d="M67.31117,163.25163s29.29545-6.95767,46.50653,27.09829c0,0-14.28153-36.25312-25.99971-48.70368s-26.3659-7.32386-20.50681,21.60539Z"/><path class="cls-6" d="M134.32451,216.71583s21.60539-23.80255,23.80255-50.53465c0,0,8.42244,30.76022,4.76051,48.33749-3.66193,17.57727-5.85909,19.77443-12.08437,23.07017s-14.28153,7.69006-20.87301,9.15483-13.54915,1.46477-17.21108.36619-22.33778-12.08437-27.83068-19.04204c0,0,24.53494,11.71818,34.42215-7.32386s6.59148-41.37982,6.59148-41.37982c0,0,8.42244,21.97159,8.42244,37.3517Z"/><path class="cls-6" d="M225.49018,272.65724s5.78615-15.044,2.31446-29.22008c0,0,4.62892,7.23269,6.94338,17.93708s4.91823,19.96223,4.33962,19.09431-13.59746-7.81131-13.59746-7.81131Z"/><path class="cls-2" d="M223.75434,331.3867s13.59746-11.283,14.75469-21.40877c0,0,12.8184-4.24869,14.84355-16.39962s-4.13917-10.21669-4.13917-10.21669c0,0,9.83646-2.31446,10.12577,4.33962s-2.60377,12.44023-2.60377,12.44023c0,0,7.81131,9.25785,6.07546,16.20123s-6.36477,8.10062-10.12577,7.522-9.83646-4.05031-9.83646-4.05031c0,0-3.47169,4.91823-7.81131,8.96854s-11.283,2.60377-11.283,2.60377Z"/><path class="cls-15" d="M239.0687,279.76438s-4.20597-33.91064-22.34422-53.36326c0,0,5.25746-7.8862,2.36586-15.50952,0,0,21.02986-9.20056,27.86456-15.50952,0,0,7.62332,3.41735,9.72631,3.15448s17.6125-6.04608,24.18433-14.19515,12.88079-42.84833-5.78321-84.64517c-15.10101-33.81775-37.04994-44.44684-49.15729-44.95132-12.61791-.52575-27.60169,5.52034-30.49329,8.14907s-4.51227,7.90233-4.51227,7.90233c0,0-46.21919-1.59377-84.77179,28.28927,0,0-8.12519-2.7084-18.95878,1.69275-11.63158,4.72533-24.59656,9.00181-30.77639,23.42141-7.90317,18.44074-1.42877,44.17425,3.37665,59.87878,0,0,10.21898,33.23066,30.09006,49.53229,19.52085,16.0143,28.65656,15.6646,36.35699,14.40665,7.19047-1.17465,22.26593-6.31422,31.57109-15.28705,1.42627-1.37533,2.86792-5.84346,2.86792-5.84346,0,0,14.18039-1.49966,20.05433-3.84923,0,0-.78319,5.48235,3.91596,9.00671s7.44033,2.34958,7.44033,2.34958c0,0,6.36773,39.57782,25.16435,57.19966,0,0-15.37445,5.45575-14.19966,12.50448s9.00671,9.00671,14.09747,9.78991c0,0,.78319,19.18822,9.39831,19.18822s14.88066-13.70587,14.88066-13.70587c0,0,16.05545,9.39831,20.36301,1.95798s-5.48235-19.97141-5.48235-19.97141c0,0,5.87394-11.35629,1.56639-16.05545s-14.88066-.78319-14.88066-.78319c0,0-11.55191-14.20278-19.38384-9.89522-5.23754,2.88065-6.06992,15.76916-6.06992,15.76916"/><path class="cls-15" d="M106.14769,99.08559s29.87481,12.49196,45.36564,49.76679c21.66717,52.13663,8.62028,79.22546,8.62028,79.22546"/><path class="cls-15" d="M179.13754,71.19134s20.71209-2.15751,30.20514,2.58901,29.9879,22.81469,38.40367,56.09525c9.49304,37.54067,6.18413,55.50012-.79145,65.50648"/><path class="cls-15" d="M180.7059,225.89491s-.96943-9.42317,14.09469-15.91233,25.556-2.63528,25.27752,5.99779"/><path class="cls-15" d="M192.64724,235.75287s.29931-4.21701,11.65533-8.38862,15.29587,3.47634,15.29587,3.47634"/><path class="cls-14" d="M125.72398,110.96823s40.14188-28.46424,96.70544-27.73439"/><path class="cls-14" d="M163.31138,190.88706s63.13223-12.04256,89.04199-33.20828"/><path class="cls-14" d="M151.51333,148.85238s53.0347-26.93636,91.71688-30.58563"/><path class="cls-14" d="M187.39651,233.58343s2.55448-8.02838,15.69183-11.67764,15.3269,1.4597,15.3269,1.4597"/><path class="cls-14" d="M199.07414,260.58796s3.28434-20.43587,21.89557-28.82917"/><path class="cls-14" d="M208.56222,281.75368s3.28434-20.43587,21.89557-28.82917"/><path class="cls-14" d="M256.6812,198.53656s9.53213-14.05488,2.69619-58.28742c-6.07147-39.28599-30.96278-78.81435-62.72979-78.01012"/><path class="cls-14" d="M99.65754,240.90776s16.1956,12.23667,28.79217.3599,6.11834-57.22444-20.87432-97.53348c-18.49502-27.61922-45.34767-40.30904-53.26552-6.83814"/><ellipse class="cls-14" cx="91.73696" cy="181.95374" rx="17.16546" ry="50.56045" transform="translate(-63.77471 50.27628) rotate(-22.98797)"/><path class="cls-17" d="M114.72572,200.19228c-4.61771,1.95896-13.03866-7.47907-18.80872-21.08042s-6.70423-26.21547-2.08652-28.17443"/><path class="cls-16" d="M116.293,219.46001c-8.54418,1.02165-22.26391-14.8048-31.72602-37.10913-8.41497-19.836-10.8057-38.53274-6.53845-46.24998"/><path class="cls-14" d="M212.70952,206.70619c12.90204-4.44567,26.27375-10.54936,37.41011-18.86242"/><path class="cls-14" d="M162.56825,217.8952s10.48834-.96603,25.09623-4.19619"/><ellipse class="cls-12" cx="186.42042" cy="133.18056" rx="11.06519" ry="11.94338"/><ellipse class="cls-12" cx="208.55081" cy="127.03323" rx="10.71392" ry="11.41647"/><path class="cls-7" d="M185.34131,161.92682c-5.63281,0-11.08398-.77344-16.66602-2.3623-.36035-.11523-.63232-.35254-.77686-.66309-6.49854-13.47949-7.9209-27.34082-4.34277-42.36523.03906-.20898.16357-.43359.34961-.6084,3.63477-3.64453,7.75244-6.81934,12.21533-9.41406.19727-.11133.40527-.16504.61523-.16504.28418,0,.56201.09961.78125.28125.87354.73633,1.80664,1.59766,2.56738,2.36523,4.41016-2.37207,9.15869-4.1377,14.13623-5.25488.07031-.91016.18164-1.61914.33447-2.58887.0835-.51758.48193-.92383.9917-1.01465,1.6543-.30957,2.92822-.6582,4.05225-.96582,1.86914-.51172,3.48291-.95312,5.90332-.95312.54053,0,1.12305.02148,1.76221.06934.22461.00977.45947.09863.65186.25,11.66797,8.30078,21.08447,22.48535,25.19434,37.95117.09082.33105.03369.69336-.15723.98828-4.2373,6.44922-6.02344,8.24902-10.87793,11.98633-.21729.16602-.48096.25488-.74756.25488h-.00049c-.24707,0-.48535-.07422-.68945-.21289-1.98438-1.33301-3.86572-2.80371-5.58496-4.36719-.26123-.24121-.40576-.57617-.40137-.92383.00391-.34668.15576-.67773.4165-.90723.51709-.4502,1.01416-.90723,1.49414-1.375-7.98046,6.93945-17.75683,10.58301-28.48339,10.58301h-.10254c.71582.04785,1.42578.07324,2.13379.07812.3501.00293.68262.15332.91309.41406.22998.25977.33887.60645.29932.95117-.2583,2.31055-.72266,4.66016-1.37939,6.98145-.16064.5127-.60254.85938-1.1084.88965-1.17725.06445-2.35059.09766-3.49365.09766ZM184.95557,127.96588c-.76807,0-1.52246.13574-2.24268.4043-3.66846,1.36523-5.38916,5.87402-3.83545,10.05078,1.22168,3.28418,4.15186,5.49121,7.29102,5.49121.75049,0,1.48438-.13086,2.18066-.39062,1.76855-.65723,3.14209-2.05078,3.86865-3.92285.73926-1.90625.72754-4.08203-.0332-6.12695-1.17334-3.29883-4.07666-5.50586-7.229-5.50586ZM208.71191,118.49323c-.73193,0-1.4917.14453-2.25732.42969-1.73779.64551-2.97266,1.77441-3.56982,3.26465-.61279,1.52734-.54639,3.38477.19287,5.37109,1.18896,3.19727,3.61865,5.18359,6.34033,5.18359.69531,0,1.39844-.13086,2.09082-.38867,3.47363-1.29199,4.66504-4.69531,3.10791-8.87988-1.11133-3.12305-3.31689-4.98047-5.90479-4.98047Z"/><path class="cls-5" d="M205.50264,99.2179c.51738,0,1.07561.02094,1.68767.06635.0428.0022.08421.01703.11646.04724,11.67625,8.29364,20.86894,22.47955,24.83766,37.4137.01743.06293.00652.13043-.02975.18616-4.15482,6.32416-5.81628,8.01935-10.6487,11.73981-.04044.03088-.08899.04651-.1376.04651-.0441,0-.08826-.01282-.12645-.03882-1.91481-1.28625-3.74924-2.71106-5.47588-4.28156-.10039-.09247-.09897-.24994.00278-.33911,1.56476-1.36395,2.98969-2.82983,4.29254-4.42224.10307-.12592.04092-.3172-.11377-.3623-.45062-.13123-.90355-.27673-1.34076-.42804-.02365-.00775-.04784-.01154-.07169-.01154-.05872,0-.11536.02301-.15685.06635-8.16959,8.22711-18.74542,12.61395-30.258,12.61395-1.10091,0-2.21173-.04016-3.32846-.12091-.00476-.00031-.00949-.00049-.01422-.00049-.07785,0-.15155.04126-.19095.10999-.23195.40027-.48077.80377-.73347,1.19659-.0876.13525-.007.31964.15329.3476,2.01994.33539,4.06337.53223,6.13744.54565.13528.00098.24094.11566.22536.25122-.25844,2.31201-.71584,4.58929-1.34836,6.82294-.0287.09222-.10902.15833-.20587.16412-1.129.06189-2.27255.09528-3.43323.09528-5.0722,0-10.46991-.63776-16.39244-2.32355-.06122-.01947-.11716-.06506-.14513-.12415-5.80246-12.03613-8.12538-25.54474-4.27603-41.71136.00818-.04224.02992-.08057.06091-.11023,3.53423-3.54248,7.56635-6.68152,12.03378-9.27905.03529-.01965.07422-.02942.11298-.02942.05132,0,.10233.01715.14415.05145.97873.82538,2.15123,1.91376,3.01436,2.83942,4.74538-2.6405,9.85577-4.54144,15.27856-5.68311.05716-1.24084.17139-1.98669.37019-3.25006.01521-.09619.0873-.16833.18019-.18475,4.45879-.8349,6.0815-1.90363,9.77928-1.90363M209.41821,133.74182c.79912,0,1.61884-.14563,2.43907-.45074,4.12143-1.53302,5.38483-5.62842,3.69682-10.16644-1.26231-3.54785-3.81488-5.63153-6.84265-5.63141-.8378,0-1.71227.15961-2.60551.49188-4.08923,1.52106-5.65395,5.38391-3.96594,9.92194,1.34399,3.61322,4.15619,5.83478,7.27821,5.83478M186.16815,144.91248c.85039,0,1.70372-.14606,2.52951-.45325,4.22812-1.57269,6.16956-6.64429,4.42418-11.33661-1.33353-3.74823-4.69276-6.15631-8.1657-6.15619-.86664.00006-1.74065.15002-2.59167.46661-4.22823,1.57275-6.16968,6.64435-4.42429,11.33667,1.39905,3.76123,4.79269,6.14276,8.22797,6.14276M205.50266,97.2179c-2.55539,0-4.22984.45831-6.1687.98895-1.10518.30249-2.35782.64532-3.97868.94885-.91307.16132-1.63939.90149-1.78755,1.83807-.11075.70386-.20363,1.29407-.27452,1.93433-4.56371,1.08466-8.93407,2.7085-13.02798,4.84039-.66273-.64172-1.39996-1.31055-2.09583-1.8974-.41855-.34332-.92001-.52252-1.43349-.52252-.37881,0-.75417.09741-1.08546.2818-4.56996,2.65674-8.75684,5.88507-12.47716,9.61414-.28552.27252-.50043.65442-.59544,1.07959-3.62712,15.25055-2.1796,29.32336,4.42485,43.02307.25826.54547.74907.97345,1.34059,1.16156.01942.00616.03896.01208.05858.01764,5.67343,1.61493,11.21455,2.39996,16.93997,2.39996,1.16109,0,2.35301-.03308,3.54266-.09827.92958-.05566,1.7317-.68512,2.0061-1.56689.0051-.01636.00998-.03278.01465-.04932.67194-2.37274,1.14688-4.77692,1.41167-7.14569.02847-.24774.01396-.49701-.04033-.73712,7.92932-.70776,15.26468-3.4342,21.64908-8.0307.11542.211.26524.40405.44557.57013,1.76405,1.60461,3.68394,3.1059,5.71547,4.47058.36108.24554.79366.3786,1.24167.3786.48561,0,.96558-.16229,1.3515-.45703,4.96574-3.82312,6.78961-5.66052,11.10634-12.23114.35353-.54297.45598-1.20312.28566-1.81812-4.16072-15.65704-13.71603-30.04388-25.55983-38.47693-.34872-.26733-.77432-.42468-1.21906-.44757-.60596-.04547-1.20642-.06897-1.79033-.06897h0ZM209.41823,131.74182c-2.2933,0-4.36389-1.73657-5.40372-4.53204-.65073-1.74945-.72054-3.35754-.20183-4.65033.48975-1.2207,1.52385-2.15424,2.99051-2.69983.65358-.2431,1.29564-.36639,1.90834-.36639,2.17831-.00012,3.98555,1.56787,4.95828,4.30182.68747,1.84875.7966,3.52789.32541,4.88269-.44644,1.28363-1.40034,2.20514-2.83521,2.73883-.58025.21582-1.16628.32526-1.74179.32526h0ZM186.16815,142.91248c-2.68082,0-5.29346-1.9903-6.35344-4.84003-1.3616-3.66052.09502-7.59241,3.24701-8.76489.60844-.22632,1.24585-.34106,1.89453-.34113,2.68724-.00012,5.2702,1.98468,6.28128,4.8266.68517,1.84253.69862,3.76654.04768,5.4444-.62143,1.60175-1.78798,2.79053-3.28481,3.34729-.58467.21747-1.20113.32776-1.83226.32776h0Z"/></g></g></svg>