<svg fill="none" height="255" viewBox="0 0 255 255" width="255" xmlns="http://www.w3.org/2000/svg"><path d="m229 128c0-55.7808-45.219-101-101-101-55.7808 0-101 45.2192-101 101 0 55.781 45.2192 101 101 101 55.781 0 101-45.219 101-101z" fill="#fff"/><g clip-rule="evenodd" fill-rule="evenodd"><path d="m120.898 94.0834h36.298c19.489 0 26.825 10.1106 25.691 24.9636-1.873 24.522-16.34 38.088-35.529 38.088h-9.688c-2.633 0-4.404 1.786-5.116 6.625l-4.113 28.132c-.272 1.824-1.209 2.881-2.614 3.025h-22.806c-2.146 0-2.904-1.681-2.342-5.319l13.904-90.186c.544-3.6099 2.474-5.3286 6.315-5.3286z" fill="#009ee3"/><path d="m97.2862 62h37.3168c10.508 0 22.979.3423 31.312 7.8233 5.571 4.9967 8.497 12.9474 7.823 21.5137-2.29 28.956-19.332 45.179-42.196 45.179h-18.398c-3.137 0-5.206 2.112-6.091 7.823l-5.139 33.249c-.336 2.151-1.25 3.422-2.8861 3.579h-23.0272c-2.5501 0-3.4544-1.956-2.7908-6.279l16.5514-106.5708c.6636-4.2832 2.9828-6.3172 7.5249-6.3172z" fill="#113984"/></g></svg>