<svg fill="none" height="255" viewBox="0 0 255 255" width="255" xmlns="http://www.w3.org/2000/svg"><path clip-rule="evenodd" d="m188.143 36.3333h-129.2955c-10.4799 0-14.3475 3.8677-14.3475 14.3524v126.5143c0 1.187.0478 2.289.1527 3.31.2386 2.289.2835 4.506 2.4119 7.031.208.248 2.3811 1.865 2.3811 1.865 1.1689.573 1.967.995 3.2853 1.526l63.667 26.674c3.305 1.515 4.687 2.106 7.088 2.058h.009.009c2.401.048 3.783-.543 7.089-2.058l63.666-26.674c1.319-.531 2.117-.953 3.286-1.526 0 0 2.173-1.617 2.38-1.865 2.129-2.525 2.174-4.742 2.412-7.031.105-1.021.153-2.123.153-3.31v-126.5143c0-10.4847-3.868-14.3524-14.347-14.3524z" fill="#fff" fill-rule="evenodd"/><g fill="#3c3935"><path d="m179.481 163.527-.029.292-.029.321-.059.292-.087.291-.057.263-.087.292-.117.263-.117.233-.115.263-.146.233-.145.234-.174.233-.146.234-.173.204-.205.204-.173.175-.233.205-.203.175-.233.175-.232.144-.232.175-.262.146-.262.117-.26.145-.292.117-.29.117-.29.087-.29.088-.263.088-.29.058-.261.058-.261.059-.292.058-.29.029-.261.029-.292.03-.319.029-.29.029h-.29-.319-.321-.29l-.291-.029h-.319l-.29-.029-.292-.03-.319-.029-.29-.058-.29-.029-.292-.059-.29-.058-.29-.058-.291-.059-.291-.087-.261-.059-.29-.087-.291-.088-.262-.117-.29-.087-.261-.087-.29-.117-.263-.117-.261-.117-.261-.144-.262-.117-.261-.146-.232-.145-.263-.146-.231-.146-.234-.146-.232-.175-.231-.175-.234-.175-.232-.176-.204-.175-.232-.204.175-.233.203-.205.175-.233.203-.234.175-.204.173-.233.205-.234.173-.204.204-.233.174-.205.204-.233.173-.234.175-.204.203-.233.175-.234.202-.204.175-.233.232.175.261.175.234.175.261.175.233.146.261.175.232.146.263.116.231.146.261.117.263.117.261.117.261.087.262.117.29.087.291.088.26.087.292.059.29.058.29.059.32.029.291.058h.291l.319.029h.29.348l.32-.029.292-.058.26-.059.261-.058.234-.088.203-.116.233-.175.173-.205.117-.233.088-.263.028-.292v-.058l-.028-.35-.117-.292-.146-.204-.203-.175-.233-.175-.232-.117-.261-.117-.292-.117-.348-.145-.203-.059-.231-.058-.263-.088-.261-.058-.29-.088-.292-.058-.319-.088-.29-.058-.32-.087-.29-.059-.292-.087-.289-.059-.291-.087-.262-.088-.29-.058-.261-.088-.261-.087-.263-.088-.319-.117-.29-.117-.291-.116-.291-.117-.261-.146-.29-.146-.234-.145-.261-.146-.232-.175-.233-.146-.202-.176-.204-.204-.203-.204-.175-.205-.174-.204-.146-.204-.144-.234-.146-.262-.117-.202-.087-.234-.086-.263-.087-.233-.059-.292-.058-.263-.029-.291-.029-.292-.03-.321v-.321-.059-.292l.03-.291.029-.263.029-.292.058-.262.059-.263.087-.263.059-.262.114-.263.117-.263.117-.262.144-.263.146-.262.173-.234.176-.233.202-.234.204-.204.203-.234.234-.204.202-.146.233-.175.232-.175.232-.146.263-.146.261-.117.26-.145.263-.117.29-.088.29-.116.263-.088.232-.058.261-.059.262-.058.29-.058.261-.059.29-.029.292-.029.29-.029.29-.029h.29.321.32.319l.319.029.32.029h.29l.321.029.29.058.319.03.29.058.263.058.29.059.29.058.261.058.292.088.261.087.261.059.291.117.261.087.261.117.261.117.292.116.261.146.232.117.262.146.261.146.232.146.263.175.232.146.233.175.232.175.231.175-.173.234-.146.233-.173.233-.175.234-.174.262-.146.234-.175.234-.173.233-.146.233-.174.234-.174.233-.147.234-.173.262-.175.234-.173.233-.146.234-.174.233-.233-.175-.261-.146-.232-.146-.233-.175-.261-.116-.234-.147-.26-.116-.232-.117-.263-.117-.232-.116-.26-.088-.234-.117-.319-.087-.29-.088-.29-.087-.292-.059-.29-.058-.29-.059-.29-.029-.292-.029-.261-.029h-.29-.349l-.319.058-.292.059-.261.058-.232.117-.204.116-.261.234-.175.263-.115.262-.029.292v.059l.029.379.144.321.117.175.202.204.263.146.232.146.29.117.321.117.348.116.232.059.232.087.263.058.26.088.29.059.322.087.319.087.319.088.319.058.29.088.32.088.292.058.29.087.29.088.261.088.292.087.261.088.26.087.321.115.29.146.29.117.291.146.263.146.261.146.231.145.233.176.232.145.232.205.234.204.202.234.204.204.174.233.175.263.144.233.146.263.117.234.087.262.086.263.058.262.059.292.058.292.029.292.03.321v.321.058.321zm-20.374 5.835h-.292-.29-.29-.29-.292-.29-.29-.29-.321-.29-.29-.29-.293-.289-.291-.29-.292-.29-.29-.29-.29-.292-.29-.29-.29-.292-.29-.29-.319-.292-.29-.29-.291-.291-.291-.29-.29-.292-.29-.29-.29-.292-.29-.29-.29-.292-.29-.319-.29-.29-.292-.29-.291-.289-.292-.29-.29v-.292-.292-.291-.291-.292-.291-.292-.292-.292-.292-.291-.292-.292-.292-.292-.292-.291-.292-.263-.292-.291-.292-.292-.292-.292-.292-.292-.291-.292-.292-.292-.292-.291-.292-.292-.292-.292-.291-.292-.292-.292-.29-.292-.292-.292-.291-.292-.292-.292-.292-.292-.291-.292-.292-.263-.291-.292-.292-.292-.292-.291-.292-.292-.292-.292-.292-.292-.291-.292-.292-.292-.292-.291h.29.29.292.289.291.29.292.29.29.29.292.29.29.29.262.291.29.29.292.29.29.29.292.29.29.29.292.29.29.29.292.291.289.29.291.292.29.29.29.292.29.29.29.263.29.29.29.292.29.29.29.292.29.29.29.292.29.29v.291.263.292.292.291.263.292.292.262.292.292.263.292.291.292.263.292h-.29-.29-.292-.29-.29-.29-.263-.29-.29-.29-.292-.29-.29-.29-.292-.29-.29-.29-.292-.261-.29-.29-.292-.29-.29-.29-.292-.29-.29-.29-.292-.291-.26-.291-.291-.291-.29-.29-.292v.292.291.292.292.292.263.291.292.292.292.291.292h.292.29.29.291.291.291.29.29.263.29.29.29.292.29.29.29.292.29.29.29.292.29.29.29.292.29.261.29.292.29.29.29.292.29.29v.292.263.29.292.262.292.292.263.292.291.292.263.291.292.263.292h-.29-.29-.292-.29-.29-.29-.292-.29-.261-.29-.292-.29-.29-.29-.292-.29-.29-.29-.292-.29-.29-.29-.292-.29-.29-.29-.263-.29-.29-.291-.291-.291-.29-.29-.292v.292.321.292.292.321.291.292.321.292.292.321.291h.292.29.29.291.291.291.29.29.292.319.29.29.292.29.29.29.292.29.29.29.29.292.29.291.289.293.29.29.29.321.29.29.29.292.29.29.29.292.29v.292.263.292.292.292.262.292.292.263.291.292.263.29.292.291.263.292zm-21.228 0h-.29-.29-.32-.291-.29-.29-.292-.29-.319-.29-.291-.291-.29-.29-.32-.292-.29-.29v-.292-.292-.291-.292-.294-.292-.292-.292-.291-.292-.292-.293-.292-.292-.292-.292-.293-.292-.292-.292-.292-.291-.294-.292-.291-.292-.292-.292-.294-.292-.291-.292-.292-.292-.293-.292-.292-.291-.292-.294-.292-.292-.292l-.145.234-.174.264-.146.234-.173.233-.146.263-.176.234-.143.233-.147.264-.173.234-.146.233-.175.234-.144.264-.175.233-.144.234-.146.262-.175.235-.145.234-.175.263-.144.233-.175.234-.144.264-.146.234-.175.233-.144.263-.175.235-.144.233-.176.234-.146.262-.144.235-.175.234-.144.263-.175.233-.146.233-.173.265-.146.233h-.115l-.175-.262-.146-.236-.174-.262-.146-.234-.173-.262-.146-.235-.173-.263-.146-.234-.175-.262-.145-.234-.175-.264-.144-.234-.175-.262-.146-.234-.173-.264-.146-.233-.173-.263-.175-.233-.146-.265-.174-.233-.146-.263-.173-.233-.146-.265-.173-.233-.146-.263-.175-.233-.145-.263-.175-.235-.144-.263-.175-.233-.146-.263-.173-.233-.146-.265-.174-.233v.292.292.292.293.292.291.292.292.294.292.262.292.292.292.293.292.292.291.292.292.294.292.292.291.292.292.294.291.292.292.292.293.263.292.291.292.292.292.294.292.291.292.292h-.29-.291-.291-.29-.29-.291-.291-.29-.29-.292-.29-.29-.29-.292-.29-.29-.29-.292-.29v-.292-.292-.291-.291-.292-.291-.292-.292-.292-.292-.291-.292-.292-.292-.292-.292-.291-.292-.263-.292-.291-.292-.292-.292-.292-.292-.292-.291-.292-.292-.292-.292-.291-.292-.292-.292-.292-.291-.292-.292-.292-.29-.292-.292-.292-.291-.292-.292-.292-.292-.292-.291-.292-.292-.263-.291-.292-.292-.292-.292-.291-.292-.292-.292-.292-.292-.292-.291-.292-.292-.292-.292-.291h.29.292.261.29.29.292.261.29.292.29.261.29.292.29.261.29.292.29.261.29.292l.144.233.146.263.173.231.146.263.146.233.144.263.146.232.174.263.145.233.146.234.144.26.146.234.174.262.146.234.145.261.145.233.175.234.146.261.144.233.146.263.144.233.175.261.146.234.144.262.146.232.144.233.175.263.146.234.144.262.146.232.144.263.176.233.146.261.144.234.146-.234.146-.261.173-.233.146-.263.144-.232.146-.262.173-.234.146-.263.146-.233.144-.232.175-.262.145-.234.146-.261.145-.233.174-.263.145-.233.147-.261.144-.234.146-.233.173-.261.146-.234.146-.262.144-.234.175-.26.145-.234.145-.233.146-.263.173-.232.147-.263.143-.233.147-.263.175-.231.144-.263.146-.233h.29.29.263.29.29.29.263.29.29.29.263.29.29.29.262.291.29.29.262.29.291v.291.292.292.292.292.291.292.292.292.292.292.292.291.292.292.292.292.291.263.292.292.291.292.292.292.292.292.291.292.292.292.29.292.292.292.291.292.292.292.292.291.292.292.292.292.291.292.292.292.292.292.292.291.292.263.292.291.292.292.292.292.292.291.292.292.292.292.291.292.291.291.292.292zm-33.708-8.753-.088-.264-.115-.292-.116-.263-.088-.264-.115-.263-.116-.292-.088-.264-.117-.263-.115-.262-.088-.265-.117-.291-.085-.263-.117-.264-.117-.263-.087-.263-.115-.293-.117-.263-.087-.262-.117-.265-.115-.292-.088-.264-.117-.263-.114.263-.088.264-.117.292-.116.265-.086.262-.117.263-.117.293-.115.263-.088.263-.116.264-.117.263-.086.291-.116.265-.117.262-.087.263-.116.264-.117.292-.1161.263-.0856.264-.1168.263-.1169.292-.0875.264-.1149.263h.29.29.2908.291.29.29.291.292.26.29.292.29.29.291.29.291.29zm9.124 8.753h-.292-.261-.29-.292-.29-.29-.261-.292-.29-.29-.29-.292-.261-.29-.291-.291-.29-.261-.29-.292l-.115-.263-.088-.263-.116-.262-.117-.292-.086-.261-.117-.262-.116-.263-.086-.263-.117-.262-.117-.263-.087-.263-.115-.291-.117-.263-.088-.263-.116-.262h-.291-.29-.29-.29-.262-.291-.29-.291-.29-.291-.29-.29-.292-.29-.26-.292-.291-.29-.29-.291-.2908-.29-.29-.2901-.263-.2897-.2903-.292-.29l-.1149.262-.0876.263-.1168.263-.1165.291-.086.263-.1165.263-.1169.262-.0875.263-.1149.263-.1169.262-.0875.261-.1153.292-.1165.262-.0876.263-.1168.263h-.29-.2901-.29-.292-.29-.3193-.29-.2904-.2916-.29-.2901-.2903-.292-.2897-.29-.3193-.292-.29-.2904-.29l.1149-.263.1169-.263.1165-.262.1152-.292.0876-.261.1168-.262.1166-.263.1149-.263.1168-.262.1169-.292.1149-.263.1169-.262.0872-.263.1168-.263.1149-.262.1169-.292.1165-.263.1153-.263.1168-.262.1165-.263.0876-.262.1149-.292.1169-.263.1168-.262.1149-.263.1169-.263.1168-.262.1149-.292.0876-.263.1168-.262.1166-.263.1152-.263.1165-.263.1166-.291.1152-.263.1165-.263.0876-.262.1168-.263.1149-.262.1169-.292.1168-.263.1149-.263.1166-.262.1168-.263.0876-.263.1152-.26.1165-.292.1166-.263.1152-.263.1165-.262.1169-.263.1149-.262.0875-.292.1169-.263.1165-.262.1153-.263.1168-.263.1165-.262.1153-.292.1165-.263.0876-.262.1165-.263.1152-.263.1165-.263.1169-.291.1149-.263.1169-.263.1168-.262.0856-.263.1169-.263.1168-.291.1169-.263.1149-.263.1168-.262.1166-.263.1149-.262.0879-.292.1165-.263.1168-.263.115-.262h.29.2627.2902.29.292.26.291.29.292.261.29.29.292.261.29.29.292.26.291l.116.262.117.263.115.263.117.292.087.262.115.263.117.262.117.263.117.263.114.291.117.263.117.263.086.262.117.263.117.263.116.291.115.263.117.263.117.263.115.262.087.263.117.292.115.262.117.263.116.263.117.262.115.263.117.292.087.262.115.263.117.262.117.263.117.263.114.292.117.26.117.263.086.263.116.262.117.263.115.263.117.292.117.262.117.263.115.262.087.263.117.263.115.291.116.263.117.263.117.263.115.262.117.263.087.292.115.262.117.263.117.263.115.262.116.263.117.292.117.262.086.263.117.262.116.263.115.263.117.292.117.262.116.263.115.263.088.262.117.263.115.292.116.262.117.263.115.263.117.262.117.261.087.292.115.262.117.263.116.263zm-25.4523-2.713-.2334.176-.2028.146-.2333.175-.2318.146-.2318.175-.2333.146-.2318.146-.2627.145-.261.146-.2611.146-.2623.115-.2611.146-.29.117-.2607.117-.292.116-.2607.117-.2614.088-.2624.087-.261.088-.29.087-.2608.088-.292.058-.261.059-.29.058-.2917.058-.2903.029-.3193.03-.2901.029-.3193.029-.292.029-.3189.029h-.3194-.3196-.319-.292l-.29-.029-.3193-.029-.29-.029-.2901-.029-.2919-.03-.2901-.058-.2903-.058-.2607-.059-.2917-.058-.261-.087-.29-.059-.2627-.088-.2611-.116-.261-.088-.2897-.117-.2627-.116-.2611-.117-.2607-.116-.263-.146-.2314-.145-.2611-.146-.2334-.146-.2317-.145-.2334-.176-.2318-.175-.232-.175-.2041-.175-.2025-.175-.2044-.204-.2025-.175-.2044-.205-.2025-.204-.1751-.204-.1735-.233-.1751-.205-.1458-.233-.1735-.234-.1455-.233-.1445-.234-.1459-.262-.1458-.234-.1149-.262-.1168-.263-.1166-.263-.1152-.262-.0875-.234-.1169-.263-.0583-.262-.0859-.263-.0583-.291-.0875-.263-.0583-.292-.0293-.263-.0586-.292-.0286-.262-.0296-.292-.0274-.292-.0289-.291v-.321-.292-.059-.292l.0289-.321v-.291l.0274-.292.0296-.321.0582-.29.029-.292.0583-.263.0875-.291.0586-.292.0856-.263.0876-.292.0876-.262.1168-.292.1152-.263.1166-.262.1168-.263.1149-.263.1458-.263.1459-.233.1445-.234.1455-.233.1461-.233.1732-.234.1751-.233.1735-.234.1751-.204.2025-.204.1751-.205.2028-.204.2041-.204.2025-.175.2334-.205.2027-.175.2318-.175.2334-.146.2317-.175.2338-.146.2314-.145.261-.146.2627-.146.2607-.146.2611-.117.2623-.117.2904-.146.2318-.087.29-.088.263-.116.2607-.059.2607-.087.2917-.059.261-.087.2901-.059.2903-.029.2917-.058.2903-.029.2897-.029.2903-.03.292-.029h.3193.2901.3189.3194l.3212.029.3194.03h.29l.29.029.3193.058.2627.029.29.059.2904.058.2623.058.2607.059.2614.058.2627.088.2607.058.2318.087.2627.088.261.117.2608.116.2626.117.2611.146.2607.117.2337.146.2607.146.2318.145.2627.147.2317.174.2318.147.2334.175.2317.175.2334.204.2318.175-.1751.234-.2025.204-.1751.233-.2025.234-.1751.233-.1735.204-.2044.234-.1732.233-.1751.205-.2028.233-.1748.234-.2028.233-.1751.204-.1732.234-.204.233-.1739.234-.204.204-.1735.233-.2334-.175-.2318-.204-.2334-.146-.2317-.175-.2318-.146-.2334-.146-.2321-.146-.2607-.146-.2334-.116-.2317-.117-.2334-.088-.2611-.087-.2607-.088-.2627-.058-.29-.059-.29-.058-.2904-.029-.3193-.029-.3209-.029h-.3193-.2901l-.29.029-.2627.029-.29.058-.261.059-.2627.087-.2607.088-.2611.117-.261.116-.2334.146-.2315.146-.2337.146-.2024.175-.2044.175-.2025.175-.1751.204-.2025.205-.1751.233-.1445.205-.1459.233-.1438.263-.1462.233-.1165.263-.0876.262-.1152.263-.0876.292-.0582.29-.0583.262-.0586.322-.029.291-.0273.292v.321.059.292l.0273.291.029.263.0293.292.0583.262.0586.263.0582.263.0876.262.0859.234.1169.291.1165.263.1442.263.1458.233.1459.234.1735.233.1751.205.2024.204.1755.204.2021.175.2337.175.2318.175.2314.146.2334.146.2614.117.2607.117.2624.116.2903.088.29.087.292.059.29.058.29.029.3194.03h.3193.3483l.3212-.03.3194-.029.29-.029.29-.059.292-.058.29-.087.2607-.059.2614-.116.2334-.117.2607-.117.2041-.116.2321-.147v-.291-.292-.292-.292-.321-.291-.292-.292-.292h-.2904-.2623-.2904-.29-.29-.2627-.2903-.2901-.29-.2623-.2904-.29-.2904-.2623-.2904v-.292-.262-.292-.292-.292-.263-.291-.292-.292-.263-.292-.291-.292-.263-.29h.2904.2916.2904.2897.2903.2901.2919.2901.29.2903.2917.29.29.29.292.2904.29.29.2917.2903.29.29.2917.2903.2901.29.292.29.2903.2901.2916.29.2904v.29.292.292.262.292.292.292.292.292.262.292.292.292.292.291.292.263.292.292.291.292.292.292.262.292.292.292.292.291.263.292.292.292z"/><path d="m78.5008 100.06h12.5914v-9.7401h-12.5914v-19.8836h13.0927v-9.7397h-23.7852v70.2924h23.9844v-9.74h-13.2919z"/><path d="m168.689 102.169v15.867c0 2.812-1.299 4.116-3.996 4.116h-2c-2.798 0-4.098-1.304-4.098-4.116v-44.3863c0-2.8117 1.3-4.1163 4.098-4.1163h1.799c2.698 0 3.998 1.3046 3.998 4.1163v13.7586h10.492v-14.3611c0-8.7355-4.197-12.9534-12.89-12.9534h-5.198c-8.693 0-12.991 4.3175-12.991 13.0546v45.3886c0 8.737 4.298 13.055 12.991 13.055h5.297c8.695 0 12.991-4.318 12.991-13.055v-16.368z"/><path d="m131.556 130.989h10.694v-70.2926h-10.694z"/><path d="m116.04 91.9264c0 2.812-1.298 4.1182-3.996 4.1182h-4.398v-25.9085h4.398c2.698 0 3.996 1.3049 3.996 4.1163zm-2.298-31.2298h-16.7889v70.2924h10.6929v-25.507h6.096c8.694 0 12.991-4.317 12.991-13.0524v-18.6785c0-8.7371-4.297-13.0545-12.991-13.0545"/><path clip-rule="evenodd" d="m93.0347 194.548h61.2123l-31.244 10.303z" fill-rule="evenodd"/></g></svg>