<svg height="267" viewBox="0 0 267 267" width="267" xmlns="http://www.w3.org/2000/svg"><g fill="#fff"><path d="m-235.5 198.05h100v100h-100z"/><path d="m-8.7-12.59-4.82-8.15 1.11-.37.74-.37h1.11 1.86 1.48 1.48l.74.37 1.48.37h.74l.74.37 1.11 1.11 1.12.74.74.74.74 1.11.74 1.11.74.75.37 1.11.37 1.11 4.81 17.4.74 2.97 1.49 6.29.74 2.6.37 1.11.37 1.11.74 1.48v.74h.37v.37" transform="translate(36.76 413.28)"/><path d="m57.6 0-11.34 42.4 42.4 11.35 11.34-42.4zm11.2 19.47 11.83 3.17-3.17 11.83-11.84-3.17z" transform="matrix(4.39 0 0 4.39 -187.4607 15.6068)"/></g></svg>