<svg fill="none" height="24" viewBox="0 0 24 24" width="24" xmlns="http://www.w3.org/2000/svg"><path d="m8.2177 20.2976c7.5803 0 11.715-6.2647 11.715-11.71499v-.5325c.8035-.5892 1.5023-1.30922 2.0673-2.12999-.7433.34223-1.5363.56425-2.3493.65779.8632-.51627 1.509-1.32906 1.8168-2.28661-.8077.47053-1.6853.80891-2.5998 1.00235-1.5624-1.64874-4.1608-1.73256-5.8262-.18794-1.0714.99651-1.5258 2.49123-1.1903 3.91543-3.30526-.16342-6.38546-1.72345-8.47297-4.29131-1.09728 1.87806-.53304 4.28639 1.28426 5.48157-.65588-.0256-1.29785-.1968-1.8794-.50114v.06264c-.00052 1.9564 1.37319 3.6441 3.28895 4.0407-.6032.1615-1.23533.1829-1.84808.0627.54079 1.6775 2.09041 2.824 3.85278 2.8504-1.45297 1.1482-3.25387 1.7669-5.10571 1.7541-.31324 0-.6578-.0313-.97103-.0626 1.84433 1.2331 4.0148 1.8875 6.23336 1.8794" fill="#fff"/></svg>