<svg fill="none" height="255" viewBox="0 0 255 255" width="255" xmlns="http://www.w3.org/2000/svg"><g fill="#fff"><path d="m66.9481 108.334c-11.4264 0-20.9481 4.905-20.9481 19.709 0 11.726 6.4027 19.111 21.2426 19.111 17.4678 0 18.5873-11.646 18.5873-11.646h-8.4636s-1.8145 6.271-10.6397 6.271c-7.1879 0-12.3575-4.915-12.3575-11.802h32.3465v-4.323c0-6.815-4.2742-17.32-19.7675-17.32zm-.2955 5.524c6.842 0 11.5064 4.243 11.5064 10.601h-23.603c0-6.75 6.0889-10.601 12.0966-10.601z"/><path d="m86.7093 94v45.72c0 2.595-.1832 6.24-.1832 6.24h8.0724s.2902-2.618.2902-5.009c0 0 3.9884 6.315 14.8333 6.315 11.42 0 19.178-8.026 19.178-19.522 0-10.696-7.125-19.298-19.159-19.298-11.2691 0-14.7707 6.158-14.7707 6.158v-20.604zm20.9477 20.101c7.755 0 12.687 5.826 12.687 13.643 0 8.383-5.696 13.867-12.631 13.867-8.2777 0-12.7427-6.541-12.7427-13.792 0-6.757 4.0063-13.718 12.6867-13.718z"/><path d="m148.963 108.334c-17.189 0-18.292 9.526-18.292 11.048h8.556s.449-5.561 9.146-5.561c5.652 0 10.031 2.619 10.031 7.652v1.791h-10.031c-13.317 0-20.357 3.944-20.357 11.946 0 7.874 6.505 12.159 15.296 12.159 11.981 0 15.84-6.7 15.84-6.7 0 2.665.202 5.291.202 5.291h7.606s-.294-3.255-.294-5.338v-18.001c0-11.803-9.406-14.287-17.703-14.287zm9.441 20.306v2.389c0 3.115-1.899 10.862-13.083 10.862-6.124 0-8.749-3.094-8.749-6.681 0-6.528 8.842-6.57 21.832-6.57z"/><path d="m162.058 109.828h9.626l13.814 28.012 13.782-28.012h8.72l-25.104 49.87h-9.147l7.244-13.902z"/></g></svg>