<svg fill="none" height="500" viewBox="0 0 500 500" width="500" xmlns="http://www.w3.org/2000/svg"><g fill="#f47521"><path d="m80.37 277.15c0-108.81 88.21-197.03 197.03-197.03s189.46 80.85 196.54 183.23c.25-4.37.38-8.77.38-13.2 0-123.79-100.36-224.15-224.16-224.15s-224.16 100.36-224.16 224.16 100.36 224.16 224.16 224.16c5.12 0 10.2-.17 15.23-.51-103.23-6.21-185.03-91.87-185.03-196.66z"/><path d="m386.47 288.25c-39.6 0-71.71-32.11-71.71-71.71 0-31.06 19.75-57.5 47.37-67.47-21.89-11.52-46.81-18.05-73.26-18.05-87 0-157.52 70.53-157.52 157.53s70.52 157.53 157.52 157.53 157.53-70.53 157.53-157.53c0-9.86-.92-19.51-2.65-28.88-13.09 17.36-33.88 28.58-57.29 28.58z"/></g></svg>