<svg fill="none" height="256" viewBox="0 0 256 256" width="256" xmlns="http://www.w3.org/2000/svg"><path clip-rule="evenodd" d="m27.6813 15 101.1907 4.8639 101.192-4.8639v109.285l19.506 14.259c1.456 1.064 1.86 3.062.934 4.608-.927 1.547-2.879 2.133-4.505 1.352l-16.163-7.764c-2.875 21.21-26.601 67.997-100.338 104.947l-.626.313-.625-.313c-76.2705-38.219-99.0343-86.964-100.5617-107.041l-.004-.053v-77.7813l-21.05784-13.3277c-1.51448-.9585-2.05626-2.9084-1.2533-4.5106s2.68946-2.3355 4.36402-1.6964l17.94712 6.8495zm199.5907 2.9284v104.3156l-4.187-3.061v-96.788l-94.213 4.5353-94.2121-4.5353v24.3949l-4.1872-1.5981v-27.2634l98.3993 4.7297zm-218.78179 22.608-.00041-.0001 19.1915 12.1465 2.7914 1.7667 4.1872 2.6501 49.8978 31.5808 3.4894-15.3504 9.0723 6.9775 8.0256-15.0015h.5c.489 0 .687-.6307.285-.9104l-34.2829-23.8594 1.7447 24.7698-38.7319-14.7819-4.1872-1.598-2.7914-1.0654-19.19143-7.3245zm21.98249 93.9496v-75.9075l4.1872 2.6501v72.8054c1.3958 18.373 22.4714 64.122 94.2121 100.125 71.741-36.003 92.817-81.752 94.213-100.125v-.537l4.095 1.968c-2.123 19.409-24.44 66.198-98.308 103.412-75.1392-37.855-96.9373-85.617-98.3993-104.391zm80.8063-69.4161 6.96-11.8004c.283-.4797.903-.6358 1.38-.3472l9.808 5.9433c.467.2829.621.8878.346 1.3592l-6.365 10.9094c-.264.4516-.831.624-1.301.3956l-10.404-5.0523c-.525-.2552-.721-.9045-.424-1.4076zm6.079 83.6161c-2.074-1.814-6.917-5.374-9.554-7.27-.34-.244-.492-.674-.381-1.078l4.584-16.695c.074-.271.032-.56-.117-.797l-18.2945-29.1296c-.1939-.3088-.2044-.6987-.0272-1.0175l13.2197-23.7908c.254-.4574.818-.6416 1.293-.4223l25.353 11.6992c.544.2509.746.9201.433 1.4306l-5.601 9.1367c-.254.4154-.771.5868-1.223.4059l-12.321-4.9271c-.482-.1931-1.033.0161-1.265.4812l-.881 1.7603c-.249.4983-.043 1.1042.459 1.3472l10.308 4.997c.192.0931.349.2452.448.434l6.703 12.7312c.081.154.2.284.347.378l19.271 12.291c.425.271.582.816.366 1.271l-2.622 5.535c-.092.193-.119.41-.078.62l2.929 14.966c.087.447-.136.896-.547 1.092-3.099 1.483-8.48 4.034-9.773 4.551-.452.181-.952.573-1.565 1.055-1.752 1.376-4.432 3.48-9.601 3.48-6.701 0-8.898-1.93-11.534-4.245l-.166-.147zm-53.7364-13.955c1.1982.999 1.2773 2.533 1.0549 3.708-.1181.624.2372 1.322.8688 1.256 3.717-.389 3.9763-6.931 3.6592-9.15-.2428-1.699 3.7373.148 7.0042 1.665 1.4285.663 2.7208 1.262 3.4639 1.475 1.814.518 1.8959 2.96 1.9608 4.898.0225.671.043 1.281.1328 1.73.0443.222.0943.421.1413.609.323 1.286.5063 2.017-2.2349 5.671-2.3187 3.091 5.064 4.661 11.8952 6.113 2.4208.514 4.7723 1.014 6.5983 1.562 2.5609.768 5.4029 2.992 8.6299 5.517 5.57 4.358 12.286 9.613 20.681 9.833 10.229.27 17.55-4.029 22.285-6.809h.001c1.402-.824 2.578-1.514 3.535-1.912 1.861-.776 3.861-1.207 5.968-1.66 2.632-.567 5.431-1.17 8.338-2.527 4.377-2.042 8.265-.669 10.85.244.506.178.963.34 1.363.454 2.442.698.698 3.14-3.489 3.489-4.188.348-.698 8.721 1.046 10.117 1.745 1.395 5.583 1.744 8.375 1.744 1.666 0-.025 2.611-1.436 4.789-.952 1.472-1.778 2.746-1.356 2.886 1.047.349 5.234-5.233 5.234-6.628 0-1.396.349-2.442 1.745-5.582s1.047-3.14-3.838-3.14c-2.815 0-.879-2.085 1.133-4.253 1.48-1.594 3.001-3.233 2.705-4.12-6.281-17.792-19.54-13.606-22.332-12.559-.276.103-.546.207-.813.31-2.437.937-4.728 1.818-10.702 2.132-6.629.349-12.91 4.186-18.144 7.675s-12.911 2.442-17.447.698c-2.835-1.091-6.216-3.953-9.375-6.628h-.001c-1.894-1.604-3.709-3.141-5.279-4.187-4.188-2.791-15.0045-5.233-17.0981-5.582-1.2383-.206.4531-1.511 2.2584-2.904 1.2468-.962 2.548-1.965 2.9756-2.678 1.0468-1.744 0-3.489-2.0936-5.233s-6.6298-2.791-11.5149-3.14c-2.4005-.171-4.0427-.933-5.7961-1.745-1.8148-.841-3.7486-1.738-6.7655-2.092-5.9319-.698-8.0255 2.442-8.3745 4.884-.3489 2.442 2.0937 7.326 4.1873 9.07zm69.2554-72.7257-6.254 10.4213c-.295.4912-.117 1.129.389 1.3977l9.412 4.9994c.464.2463 1.039.0921 1.317-.3531l5.962-9.5376c.29-.4636.154-1.074-.306-1.3704l-9.12-5.8831c-.475-.3062-1.109-.1586-1.4.3258zm13.254 8.6929-13.579 21.6579c-.297.4728-.149 1.0966.328 1.3861l8.066 4.8963c.465.2823 1.071.1411 1.363-.3179l13.595-21.3597c.295-.4644.16-1.0804-.303-1.3781l-8.082-5.1946c-.468-.301-1.092-.1616-1.388.31zm-1.007 28.9779 12.876-20.2749c.294-.4638.908-.6031 1.374-.3119l6.688 4.1792c.467.2918.61.9063.32 1.3745l-12.565 20.294c-.288.465-.896.612-1.365.331l-6.998-4.198c-.482-.29-.631-.919-.33-1.3939zm-17.647-5.0649 5.932 11.5128 47.804 31.049 3.838-25.816 63.157 30.352-74.672-54.4241-2.791 24.0721-11.864-9.768-3.173 4.44c-1.176 1.647-3.397 2.156-5.173 1.185zm-16.749 98.0328-5.932-5.931-1.181-.295c-.922-.231-1.532-1.108-1.427-2.053l.01-.092c.091-.82.733-1.47 1.551-1.572s1.6.371 1.89 1.143l.553 1.474 6.978 5.233 9.393-2.684c.244-.069.455-.223.595-.434.28-.419.816-.586 1.284-.398l.293.117c.392.156.648.535.648.957 0 .421-.256.8-.648.956l-6.331 2.532-.349 1.396 10.12 9.262 10.119-9.262-.349-1.396-6.331-2.532c-.391-.156-.648-.535-.648-.956 0-.422.257-.801.648-.957l.293-.117c.468-.188 1.004-.021 1.284.398.141.211.351.365.595.434l9.393 2.684 6.979-5.233.552-1.474c.29-.772 1.072-1.245 1.89-1.143.819.102 1.46.752 1.551 1.572l.01.092c.105.945-.505 1.822-1.427 2.053l-1.181.295-5.932 5.931.678 10.158c.013.202.08.398.192.566.305.457.247 1.068-.141 1.456-.415.414-1.075.451-1.533.085l-.328-.263c-.368-.294-.513-.786-.364-1.233.066-.198.075-.411.028-.614l-1.323-5.62h-1.047l-10.158 8.235 11.205 10.255.698 2.442h-3.141l-12.212-9.9-12.213 9.9h-3.141l.698-2.442 11.205-10.255-10.158-8.235h-1.047l-1.322 5.62c-.048.203-.038.416.028.614.149.447.003.939-.365 1.233l-.328.263c-.458.366-1.118.329-1.533-.085-.388-.388-.446-.999-.141-1.456.112-.168.179-.364.193-.566zm94.212-151.7587h-13.957v3.4887h9.072c-5.024 5.0238-6.048 12.3268-5.932 15.3503h4.536c0-9.4892 4.188-14.1874 6.281-15.3503z" fill="#000" fill-rule="evenodd"/></svg>