<svg fill="none" height="255" viewBox="0 0 255 255" width="255" xmlns="http://www.w3.org/2000/svg"><g clip-rule="evenodd" fill="#fff" fill-rule="evenodd"><path d="m116.801 84.6667h41.907c22.501 0 30.971 11.6729 29.662 28.8213-2.163 28.312-18.866 43.975-41.021 43.975h-11.185c-3.04 0-5.084 2.062-5.906 7.649l-4.749 32.479c-.314 2.107-1.395 3.326-3.018 3.492h-26.3301c-2.4776 0-3.3533-1.94-2.7046-6.141l16.0537-104.1232c.627-4.1677 2.856-6.1521 7.291-6.1521z" opacity=".5"/><path d="m91.5395 47.625h43.0835c12.132 0 26.531.3952 36.151 9.0323 6.433 5.769 9.811 14.9485 9.033 24.8386-2.645 33.4311-22.32 52.1611-48.717 52.1611h-21.242c-3.621 0-6.01 2.439-7.032 9.032l-5.933 38.387c-.3889 2.484-1.4441 3.952-3.3326 4.132h-26.5859c-2.9443 0-3.9883-2.258-3.2221-7.248l19.1093-123.0415c.7662-4.9451 3.4438-7.2935 8.6878-7.2935z"/></g></svg>