<svg fill="none" height="24" viewBox="0 0 24 24" width="24" xmlns="http://www.w3.org/2000/svg" xmlns:xlink="http://www.w3.org/1999/xlink"><mask id="a"><rect fill="#fff" height="100%" width="100%"/><path d="m9.95447 15.0192 5.22723-2.9737-5.22723-2.97381z" fill="#000"/></mask><path d="m21.582 7.20034c-.23-.86614-.9076-1.54818-1.7681-1.77966-1.5597-.42068-7.8139-.42068-7.8139-.42068s-6.2542 0-7.81386.42068c-.86046.23148-1.53819.91352-1.76819 1.77966-.41795 1.56977-.41795 4.84516-.41795 4.84516s0 3.2752.41795 4.8452c.23.866.90773 1.548 1.76819 1.7796 1.55966.4206 7.81386.4206 7.81386.4206s6.2542 0 7.8139-.4206c.8605-.2316 1.5381-.9136 1.7681-1.7796.418-1.57.418-4.8452.418-4.8452s0-3.27539-.418-4.84516z" fill="#fff" mask="url(#a)"/></svg>