<svg fill="none" height="255" viewBox="0 0 255 255" width="255" xmlns="http://www.w3.org/2000/svg"><path d="m229 128c0-55.7808-45.219-101-101-101-55.7808 0-101 45.2192-101 101 0 55.781 45.2192 101 101 101 55.781 0 101-45.219 101-101z" fill="#fff"/><path d="m67.9481 109.473c-11.4264 0-20.9481 4.905-20.9481 19.708 0 11.727 6.4027 19.112 21.2426 19.112 17.4678 0 18.5873-11.647 18.5873-11.647h-8.4636s-1.8145 6.271-10.6397 6.271c-7.1879 0-12.3575-4.915-12.3575-11.802h32.3465v-4.323c0-6.814-4.2742-17.319-19.7675-17.319zm-.2955 5.524c6.842 0 11.5064 4.243 11.5064 10.601h-23.603c0-6.75 6.0889-10.601 12.0966-10.601z" fill="#e53238"/><path d="m87.7093 95.1385v45.7205c0 2.595-.1832 6.239-.1832 6.239h8.0724s.2902-2.617.2902-5.009c0 0 3.9884 6.316 14.8333 6.316 11.42 0 19.178-8.026 19.178-19.523 0-10.696-7.125-19.298-19.159-19.298-11.2691 0-14.7707 6.159-14.7707 6.159v-20.6045zm20.9477 20.1005c7.755 0 12.687 5.826 12.687 13.643 0 8.384-5.696 13.867-12.631 13.867-8.278 0-12.7427-6.541-12.7427-13.792 0-6.756 4.0063-13.718 12.6867-13.718z" fill="#0064d2"/><path d="m149.963 109.473c-17.189 0-18.292 9.526-18.292 11.048h8.556s.449-5.562 9.146-5.562c5.652 0 10.031 2.619 10.031 7.653v1.791h-10.031c-13.317 0-20.357 3.944-20.357 11.945 0 7.875 6.505 12.159 15.296 12.159 11.981 0 15.84-6.7 15.84-6.7 0 2.666.202 5.291.202 5.291h7.606s-.294-3.254-.294-5.337v-18.002c0-11.803-9.406-14.286-17.703-14.286zm9.441 20.306v2.388c0 3.116-1.899 10.863-13.083 10.863-6.124 0-8.749-3.094-8.749-6.682 0-6.527 8.842-6.569 21.832-6.569z" fill="#f5af02"/><path d="m163.058 110.967h9.626l13.814 28.011 13.782-28.011h8.72l-25.104 49.869h-9.147l7.244-13.901z" fill="#86b817"/></svg>