<svg fill="none" height="24" viewBox="0 0 24 24" width="24" xmlns="http://www.w3.org/2000/svg"><path d="m18.94 7.90321c-3.036-1.404-7.404-2.296-11.51198-1.964.204-1.36.716-2.308 1.548-2.508 1.14798-.276 2.39998.48 3.59198 1.852.78.1 1.708.28 2.356.428-2.176-4.092-5.09598-6.383999-7.31598-5.535999-1.688.644-2.552 2.967999-2.448 6.091999-2.2.468-3.91601 1.3-5.016008 2.496-.0559999.064-.1800001.228-.13600001.304.03600001.06.14400001-.008.19600001-.04 1.271998-.892 2.904008-1.372 5.028008-1.676.304 3.33199 1.712 7.55999 4.056 10.95199-1.28.504-2.356.536-2.944-.088-.812-.856-.784-2.32-.192-4.04-.304-.728-.612-1.62-.804-2.252-2.464 3.932-2.99201 7.608-1.148 9.108 1.404 1.14 3.848.728 6.49998-.924 1.504 1.672 3.084 2.74 4.668 3.092.084.016.288.044.332-.032.036-.06-.08-.124-.132-.148-1.408-.656-2.64-1.828-3.964-3.516 2.736-1.928 5.692-5.264 7.456-8.988 1.076.86 1.64 1.772 1.396 2.596-.336 1.132-1.616 1.84-3.404 2.184-.48.628-1.096 1.34-1.548 1.824 4.632.16 8.08-1.22 8.456-3.564.288-1.784-1.296-3.69599-4.052-5.16799.696-2.14.832-4.04.344-5.588-.028-.08-.104-.272-.196-.272-.068 0-.068.132-.064.188.144 1.544-.252 3.2-1.052 5.188zm-8.532 9.86799c-1.95998-3.144-3.08798-6.848-3.08398-10.59199 3.70398-.124 7.47598.748 10.71598 2.628-1.744 3.26799-4.384 6.09999-7.632 7.96399z" fill="#fff"/></svg>