<svg fill="none" height="255" viewBox="0 0 255 255" width="255" xmlns="http://www.w3.org/2000/svg"><path d="m15 128c0 60.751 49.2487 110 110 110 60.751 0 110-49.249 110-110 0-60.7513-49.249-110-110-110-60.7513 0-110 49.2487-110 110z" fill="#000"/><g fill="#25f4ee"><path d="m113.231 112.62v-5.834c-1.977-.278-3.97-.423-5.966-.433-11.7355.014-22.9862 4.682-31.2844 12.98-8.2982 8.299-12.9664 19.549-12.9806 31.285.0025 7.116 1.7217 14.126 5.0117 20.436s8.0537 11.733 13.8868 15.809c-7.5978-8.191-11.7925-18.967-11.7318-30.139-.0106-11.522 4.4908-22.589 12.5399-30.833 8.0492-8.243 19.0064-13.007 30.5244-13.271z"/><path d="m114.274 177.063c10.893 0 19.902-8.787 20.307-19.58l.086-96.2444h17.45l-.025-.1469c-.376-2.0088-.567-4.0479-.569-6.0917h-24.023l-.039 96.392c-.199 5.221-2.411 10.162-6.173 13.789-3.761 3.626-8.78 5.656-14.005 5.665-3.269.001-6.488-.796-9.3778-2.322 3.6588 5.081 9.6248 8.539 16.3688 8.539z"/><path d="m184.991 94.1013v-5.6473c-6.472.0062-12.804-1.8768-18.221-5.418 4.672 5.3678 11.018 9.5245 18.221 11.0653z"/></g><path d="m166.77 83.036c-5.316-6.0717-8.244-13.8675-8.242-21.9372h-6.54c.856 4.4649 2.607 8.7102 5.148 12.4803 2.54 3.7702 5.817 6.9871 9.634 9.4569z" fill="#fe2c55"/><path d="m107.265 130.218c-11.1478 0-20.3498 9.256-20.3498 20.4 0 7.765 4.5365 14.509 10.9721 17.895-2.4877-3.428-3.8273-7.554-3.827-11.789.0057-5.36 2.1371-10.498 5.9265-14.288 3.7892-3.791 8.9272-5.923 14.2872-5.929 2.025.004 4.037.32 5.966.935v-24.553c-1.977-.279-3.97-.424-5.966-.434-.358 0-.695.018-1.043.029h-.093l-.065 18.583c-1.879-.585-3.839-.871-5.808-.849z" fill="#fe2c55"/><path d="m184.991 93.8147-.115-.0215v18.5688c-12.029-.029-23.745-3.837-33.493-10.886v49.131c.01 5.798-1.124 11.542-3.337 16.901s-5.461 10.229-9.56 14.331c-4.098 4.102-8.965 7.354-14.323 9.572-5.357 2.217-11.1 3.355-16.898 3.35-9.0666.053-17.9275-2.7-25.3665-7.884 4.1335 4.457 9.1426 8.011 14.7135 10.442 5.571 2.431 11.584 3.685 17.662 3.684 11.738-.013 22.992-4.683 31.292-12.984 8.299-8.302 12.966-19.557 12.976-31.295v-48.877c9.748 7.007 21.453 10.768 33.458 10.75v-24.037c-2.356-.001-4.705-.2508-7.009-.7453z" fill="#fe2c55"/><path d="m151.53 150.618v-48.873c9.749 7.006 21.455 10.767 33.461 10.75v-18.6911c-7.08-1.5278-13.473-5.3098-18.221-10.7786-3.803-2.4732-7.064-5.6927-9.586-9.4636-2.522-3.7708-4.251-8.0144-5.084-12.4736h-17.609l-.039 96.3919c-.198 5.221-2.41 10.163-6.172 13.79-3.761 3.627-8.781 5.656-14.006 5.664-3.204-.004-6.361-.769-9.21-2.234-2.85-1.465-5.3097-3.587-7.1766-6.191-3.2666-1.711-6.0031-4.283-7.9137-7.437-1.9105-3.154-2.9223-6.77-2.9259-10.458.0066-5.359 2.1389-10.498 5.929-14.287s8.9282-5.921 14.2882-5.926c2.025.005 4.036.319 5.966.931v-18.852c-23.9257.563-43.222 20.171-43.222 44.244-.0053 11.191 4.2451 21.965 11.8895 30.139 7.4255 5.227 16.2858 8.029 25.3665 8.023 11.736-.013 22.988-4.681 31.287-12.981 8.298-8.299 12.966-19.551 12.978-31.287z" fill="#fff"/></svg>