<svg fill="none" height="24" viewBox="0 0 24 24" width="24" xmlns="http://www.w3.org/2000/svg" xmlns:xlink="http://www.w3.org/1999/xlink"><clipPath id="a"><path d="m0 0h24.000075009v24.000075009h-24.000075009z"/></clipPath><g clip-path="url(#a)"><path d="m11.9992 10.0191c.0123.0021.0238.0079.0327.0167 2.9904 2.2745 8.1111 7.9019 6.5517 9.4914-1.8225 1.5942-4.1615 2.4728-6.5828 2.4728-2.42124 0-4.76025-.8786-6.58279-2.4728-1.5621-1.5895 3.55527-7.2169 6.54779-9.4914.0093-.0087.0209-.0145.0334-.0167zm5.209-6.55572c-1.5316-.91003-3.1909-1.46338-5.209-1.46338-2.01822 0-3.67753.55557-5.20908 1.46338-.0085.00461-.01495.01227-.01804.02145-.00309.00917-.0026.01917.00137.02799.00478.00821.01232.01445.02128.0176.00896.00316.01874.00303.02761-.00037 1.93596-.41835 4.87686 1.25392 5.15566 1.4217.0062.00454.0135.00723.0212.00778.0076-.00045.0149-.00316.0211-.00778.2777-.16667 3.2219-1.84005 5.1562-1.4217.0088.00336.0185.00348.0274.00032.0088-.00316.0163-.00938.021-.01755.0043-.00894.0049-.01921.0018-.02864s-.0097-.01729-.0185-.02191zm-12.20849 1.40504c-.01637.00885-.03119.0203-.04389.03389-1.72223 1.70881-2.7643 3.9857-2.93192 6.40619-.16762 2.4204.55064 4.8193 2.02088 6.7492.00556.0092.01436.0159.02464.0189.01029.003.02132.002.03091-.0028.00764-.0059.01297-.0143.0151-.0237.00213-.0095.00092-.0193-.00343-.028-.76216-2.3567 3.13475-8.07075 5.14737-10.46638.00794-.00766.01286-.01791.01389-.02889-.00023-.00648-.00189-.01284-.00487-.0186s-.0072-.01079-.01235-.01473c-3.05254-3.03398-4.08801-2.71175-4.25633-2.62508zm9.74539 2.62508c-.0053.00385-.0096.00886-.0126.01465-.003.00578-.0046.01217-.0047.01868.0011.01086.0058.02104.0134.02889 2.0126 2.39563 5.9101 8.11138 5.1479 10.46638-.0044.0087-.0056.0185-.0034.028.0021.0094.0074.0178.0151.0237.0096.0046.0206.0056.0308.0026.0103-.003.0191-.0096.0247-.0187 1.4696-1.9302 2.1874-4.3289 2.0198-6.7492-.1676-2.42022-1.2092-4.69702-2.9308-6.40619-.0129-.01361-.0279-.02505-.0445-.03389-.1705-.08667-1.206-.4089-4.2557 2.62508z" fill="#107c10"/></g></svg>