<svg fill="none" height="255" viewBox="0 0 255 255" width="255" xmlns="http://www.w3.org/2000/svg"><path d="m17 128c0 60.751 49.2487 110 110 110 60.751 0 110-49.249 110-110 0-60.7513-49.249-110-110-110-60.7513 0-110 49.2487-110 110z" fill="#fff"/><path d="m185.828 93.3215v-5.7787c-6.622.0063-13.102-1.9205-18.645-5.544 4.781 5.4927 11.275 9.746 18.645 11.3227z" fill="#25f4ee"/><path d="m167.183 81.9988c-5.439-6.2129-8.436-14.19-8.433-22.4473h-6.692c.876 4.5687 2.667 8.9127 5.267 12.7705 2.599 3.8578 5.953 7.1495 9.858 9.6768z" fill="#fe2c55"/><path d="m112.4 112.271v-5.97c-2.023-.285-4.063-.433-6.105-.443-12.0088.014-23.5211 4.791-32.0123 13.282s-13.2679 20.004-13.2825 32.012c.0026 7.282 1.7617 14.455 5.1283 20.912 3.3665 6.456 8.241 12.006 14.2097 16.176-7.7745-8.381-12.0667-19.408-12.0046-30.84-.0108-11.789 4.5952-23.114 12.8315-31.549 8.2364-8.435 19.4479-13.31 31.2349-13.58z" fill="#25f4ee"/><path d="m113.467 178.212c11.146 0 20.364-8.991 20.779-20.035l.088-98.4825h17.856l-.025-.1503c-.386-2.0555-.581-4.1421-.583-6.2334h-24.582l-.04 98.6332c-.204 5.343-2.467 10.399-6.316 14.11s-8.985 5.788-14.331 5.796c-3.344.002-6.6384-.814-9.5957-2.376 3.7437 5.2 9.8487 8.738 16.7497 8.738z" fill="#25f4ee"/><path d="m106.294 130.278c-11.4066 0-20.8226 9.471-20.8226 20.874 0 7.946 4.642 14.846 11.2274 18.311-2.5457-3.507-3.9164-7.729-3.916-12.063.0058-5.484 2.1867-10.742 6.0643-14.62 3.8779-3.879 9.1349-6.06 14.6189-6.067 2.072.005 4.131.327 6.105.957v-25.124c-2.022-.286-4.062-.434-6.105-.444-.366 0-.711.018-1.067.029h-.095l-.066 19.016c-1.924-.598-3.929-.892-5.944-.869z" fill="#fe2c55"/><path d="m185.828 93.0281-.117-.022v19.0009c-12.309-.03-24.298-3.927-34.272-11.14v50.274c.01 5.933-1.15 11.81-3.415 17.294-2.264 5.484-5.588 10.467-9.782 14.664s-9.174 7.526-14.656 9.795-11.358 3.434-17.291 3.428c-9.2778.055-18.3447-2.763-25.9567-8.067 4.2296 4.56 9.3551 8.197 15.0556 10.684 5.7001 2.488 11.8531 3.771 18.0731 3.77 12.011-.014 23.527-4.792 32.019-13.286 8.492-8.495 13.268-20.011 13.279-32.023v-50.013c9.974 7.17 21.951 11.018 34.235 11v-24.5962c-2.411-.001-4.815-.2567-7.172-.7627z" fill="#fe2c55"/><path d="m151.589 151.152v-50.01c9.976 7.17 21.954 11.018 34.239 11v-19.1249c-7.244-1.5634-13.786-5.4333-18.645-11.0293-3.891-2.5306-7.228-5.825-9.808-9.6836-2.581-3.8585-4.351-8.2008-5.203-12.7637h-18.018l-.04 98.6335c-.203 5.343-2.466 10.4-6.315 14.111-3.85 3.711-8.986 5.788-14.332 5.795-3.279-.003-6.509-.787-9.425-2.286s-5.4327-3.67-7.3431-6.334c-3.3425-1.751-6.1427-4.383-8.0977-7.61-1.9549-3.228-2.9902-6.928-2.994-10.702.0068-5.484 2.1887-10.741 6.0669-14.619 3.8783-3.877 9.1359-6.058 14.6209-6.064 2.071.005 4.13.327 6.105.953v-19.29c-24.4828.575-44.2278 20.639-44.2278 45.272-.0054 11.452 4.3439 22.477 12.166 30.84 7.5982 5.349 16.6646 8.216 25.9568 8.21 12.009-.014 23.522-4.79 32.014-13.283 8.491-8.492 13.267-20.006 13.28-32.015z" fill="#000"/></svg>