<svg fill="none" height="24" viewBox="0 0 24 24" width="24" xmlns="http://www.w3.org/2000/svg"><path d="m11.9704 18.0298c-3.31177 0-4.84265-1.6871-4.84265-2.9368 0-.2812.12497-.5936.34367-.7811.21869-.1874.49988-.3124.8123-.2811 1.43716 0 1.06225 2.1245 3.71788 2.1245 1.3434 0 2.1557-.8123 2.1557-1.5934 0-.4687-.2499-.9998-1.1559-1.1872l-2.9681-.7499c-2.37443-.5936-2.78058-1.937-2.78058-3.15546 0-2.5619 2.34319-3.46794 4.56138-3.46794 2.0308 0 4.4677 1.12474 4.4677 2.65563 0 .65609-.5623.99976-1.1872.99976-1.2184 0-.9997-1.71834-3.4679-1.71834-1.2185 0-1.84333.56236-1.84333 1.37467 0 .81228.93723 1.06228 1.78083 1.24968l2.187.4999c2.4057.5311 3.0305 1.9371 3.0305 3.2805-.0625 2.062-1.6558 3.6866-4.8113 3.6866z" fill="#fff"/><path d="m11.9703 18.0298c-3.31167 0-4.84256-1.6871-4.84256-2.9368 0-.2812.12497-.5936.34367-.781.2187-.1875.49988-.3125.81231-.2812 1.43716 0 1.06225 2.1245 3.71788 2.1245 1.3434 0 2.1557-.8123 2.1557-1.5934 0-.4686-.2499-.9998-1.1559-1.1872l-2.9681-.7498c-2.37443-.5937-2.78059-1.9371-2.78059-3.15555 0-2.5619 2.3432-3.46793 4.56139-3.46793 2.0308 0 4.4677 1.12473 4.4677 2.65562 0 .65609-.5623.99976-1.1872.99976-1.2185 0-.9998-1.71834-3.4679-1.71834-1.2185 0-1.84333.56237-1.84333 1.37468 0 .81226.93723 1.06226 1.78083 1.24966l2.187.4999c2.4057.5311 3.0305 1.9371 3.0305 3.2805-.0625 2.062-1.6558 3.6866-4.8114 3.6866zm9.1541-4.4052c.0938-.5311.1563-1.0935.1563-1.6558 0-2.78064-1.2185-5.40502-3.3118-7.18585-2.0932-1.78083-4.9363-2.53065-7.6544-2.06201-.84356-.46864-1.78084-.74982-2.74936-.71858-1.99953 0-3.8116 1.06225-4.81137 2.81184-.99976 1.74958-.99976 3.84284-.03124 5.5612-.56237 2.9993.40616 6.0923 2.5619 8.2793s5.24877 3.1555 8.27927 2.6244c.8436.4686 1.7809.7498 2.7494.7185 1.9995 0 3.8116-1.0622 4.8113-2.8118.9998-1.7183.9998-3.8116 0-5.5612z" fill="#0078d7"/></svg>