<svg fill="none" height="24" viewBox="0 0 24 24" width="24" xmlns="http://www.w3.org/2000/svg"><path d="m18.6562 12.0937c-.0289-.8012-.6986-1.4291-1.5-1.4063-.3615.0134-.7059.1578-.9688.4063-1.134-.7743-2.4707-1.19817-3.8437-1.21879l.6562-3.125 2.125.4375c.0496.49051.4493.8717.9416.898.4923.02631.9303-.31012 1.0319-.79256s-.1636-.96692-.6248-1.14134c-.4611-.17442-.9805.01326-1.2237.44215l-2.4375-.5c-.083-.01834-.17-.00205-.2407.04513-.0708.04718-.1193.12116-.1343.20487l-.75 3.46875c-1.3924.02044-2.74918.44379-3.90623 1.21879-.37739-.3699-.92524-.5069-1.43228-.3581-.50705.1487-.89407.56-1.01185 1.0751-.11777.5151.05211 1.0537.44413 1.408.12353.1012.26019.1853.40625.25v.4375c0 2.25 2.625 4.0625 5.84378 4.0625 3.2187 0 5.8437-1.8125 5.8437-4.0625v-.4375c.4823-.2602.7825-.7645.7813-1.3125z" fill="#fff"/><path d="m12 2c5.5228 0 10 4.47715 10 10 0 5.5228-4.4772 10-10 10-5.52285 0-10-4.4772-10-10 0-5.52285 4.47715-10 10-10zm6.6562 10.0938c-.0288-.8012-.6986-1.4291-1.5-1.4063-.3615.0134-.7058.1578-.9687.4062-1.1341-.7743-2.4707-1.19808-3.8437-1.2187l.6562-3.125 2.125.4375c.0496.49051.4493.8717.9416.898s.9303-.31013 1.0319-.79256c.1015-.48244-.1637-.96692-.6248-1.14134s-.9806.01326-1.2237.44215l-2.4375-.5c-.083-.01834-.17-.00205-.2407.04513-.0708.04717-.1193.12116-.1343.20487l-.75 3.46875c-1.3925.02044-2.74921.4437-3.90625 1.2187-.3774-.3698-.92524-.5068-1.43228-.358-.50705.1487-.89408.56-1.01185 1.0751-.11778.5151.0521 1.0536.44413 1.4079.12353.1013.26018.1854.40625.25v.4376c0 2.2499 2.625 4.0624 5.8437 4.0624 3.2188 0 5.8438-1.8125 5.8438-4.0624v-.4376c.4823-.2601.7825-.7644.7812-1.3124zm-9.99995.9999c0-.5522.44771-.9999 1-.9999.55225 0 .99995.4477.99995.9999 0 .5523-.4477 1-.99995 1-.26624.0034-.52257-.1008-.71085-.2891s-.29254-.4446-.28915-.7109zm5.81255 2.7813c-.7108.5265-1.5865.7814-2.4688.7187-.8874.0252-1.7573-.2501-2.46875-.7812-.0856-.115-.0722-.2757.03125-.375.09508-.0946.24867-.0946.34375 0 .60725.4389 1.34525.6592 2.09375.625.7428.0257 1.475-.1819 2.0938-.5938.1169-.1.2893-.1.4062 0 .125.0938.0625.3125-.0312.4063zm-1.1876-2.7813c0-.5522.4478-.9999 1-.9999.5523 0 1.0001.4477 1.0001.9999 0 .5523-.4478 1-1.0001 1-.2662.0034-.5225-.1008-.7108-.2891s-.2925-.4446-.2892-.7109z" fill="#ff4500"/></svg>