<svg width="25" height="25" viewBox="0 0 25 25" fill="none" xmlns="http://www.w3.org/2000/svg">
<g clip-path="url(#clip0_1215_9159)">
<g clip-path="url(#clip1_1215_9159)">
<mask id="mask0_1215_9159" style="mask-type:luminance" maskUnits="userSpaceOnUse" x="-16" y="-5" width="57" height="33">
<path d="M41 -5H-16V28H41V-5Z" fill="white"/>
</mask>
<g mask="url(#mask0_1215_9159)">
<mask id="mask1_1215_9159" style="mask-type:luminance" maskUnits="userSpaceOnUse" x="-3" y="-4" width="31" height="31">
<path d="M-2.34375 -3.77777H27.3438V26.7778H-2.34375V-3.77777Z" fill="white"/>
</mask>
<g mask="url(#mask1_1215_9159)">
<path d="M3.92725 7.36193C3.92749 7.26636 3.93066 7.17265 3.93547 7.08008C3.93066 7.17267 3.92749 7.26631 3.92725 7.36193Z" fill="#FB3131"/>
<path d="M3.9398 7.01015C3.94476 6.9336 3.95124 6.85814 3.95935 6.78387C3.95124 6.85816 3.94478 6.9336 3.9398 7.01015Z" fill="#FB3131"/>
<path d="M4.00728 6.452C4.00934 6.44068 4.01161 6.42952 4.01377 6.41827C4.01011 6.4376 4.00608 6.45662 4.00265 6.47614C4.00311 6.4735 4.00369 6.47095 4.00416 6.4683C4.00513 6.46282 4.00631 6.45748 4.00728 6.452Z" fill="#FF4040"/>
<path d="M3.93679 7.0591C3.93772 7.04273 3.93876 7.02647 3.93983 7.01019C3.93832 7.03345 3.9367 7.0566 3.93547 7.08007C3.93578 7.07428 3.93622 7.06863 3.93654 7.06286C3.93661 7.0616 3.93672 7.06036 3.93679 7.0591Z" fill="#FF4040"/>
<path d="M4.06863 6.16955C4.06955 6.16595 4.07034 6.16223 4.07127 6.15863C4.06622 6.17827 4.06166 6.19834 4.05686 6.21821L4.05911 6.20892C4.0623 6.19581 4.06531 6.18256 4.06863 6.16955Z" fill="#FF4040"/>
<path d="M4.0115 8.41662C4.00765 8.39189 4.00365 8.36703 4.00006 8.34241C4.00365 8.36705 4.00765 8.39186 4.0115 8.41662Z" fill="#FF4040"/>
<path d="M3.95935 6.78385C3.9612 6.76707 3.96257 6.74996 3.96456 6.73328C3.96257 6.74996 3.96118 6.76707 3.95935 6.78385Z" fill="#FF4040"/>
<path d="M4.05911 6.20886L4.05686 6.21816C4.04107 6.28363 4.02671 6.35034 4.01377 6.41826C4.01161 6.42951 4.00934 6.44071 4.00728 6.45201C4.02233 6.36907 4.03984 6.28818 4.05911 6.20886Z" fill="#FF4040"/>
<path d="M4.00416 6.46826C4.00369 6.47091 4.00314 6.47348 4.00265 6.47613C3.98783 6.56012 3.975 6.6458 3.96456 6.73326C3.96257 6.74995 3.96122 6.76706 3.95937 6.78384C3.95127 6.8581 3.94476 6.93356 3.9398 7.01011C3.93874 7.02639 3.9377 7.04267 3.93679 7.05904C3.94814 6.85396 3.97072 6.65664 4.00416 6.46826Z" fill="#FF4040"/>
<path d="M4.0591 6.20887C4.0623 6.19576 4.06531 6.18251 4.06862 6.16949C4.06531 6.18251 4.0623 6.19574 4.0591 6.20887Z" fill="#FF7E80"/>
<path d="M4.24856 5.63849C4.24739 5.64113 4.24631 5.64388 4.24514 5.64652C4.24549 5.64575 4.24586 5.64504 4.24623 5.64425C4.24705 5.64237 4.24774 5.64036 4.24856 5.63849Z" fill="#FB3131"/>
<path d="M4.22115 5.70331C4.2043 5.74471 4.18813 5.78677 4.17269 5.82958C4.18021 5.80872 4.18897 5.78908 4.19679 5.76852C4.20506 5.74692 4.21252 5.72454 4.22115 5.70331Z" fill="#FB3131"/>
<path d="M4.17271 5.82956C4.16551 5.84955 4.15833 5.86957 4.15143 5.88986C4.15849 5.86914 4.16676 5.84962 4.17412 5.82922C4.17366 5.82934 4.17317 5.82946 4.17271 5.82956Z" fill="#FB3131"/>
<path d="M4.24447 5.64569C4.24078 5.65418 4.23642 5.66199 4.2328 5.67054C4.23616 5.66262 4.24026 5.65547 4.24368 5.64757C4.24394 5.64697 4.24421 5.64632 4.24447 5.64569Z" fill="#FF4040"/>
<path d="M4.22872 5.68195C4.226 5.68844 4.22385 5.69549 4.22118 5.70201C4.22126 5.70178 4.22135 5.70156 4.22142 5.70136C4.22403 5.69504 4.22609 5.68824 4.22872 5.68195Z" fill="#FF4040"/>
<path d="M4.13888 5.9256C4.13874 5.92603 4.13855 5.92641 4.13842 5.92681C4.1138 6.00201 4.09166 6.07949 4.07129 6.15859C4.07036 6.16217 4.06955 6.16586 4.06865 6.16946C4.08981 6.08612 4.11306 6.00458 4.13888 5.9256Z" fill="#FF4040"/>
<path d="M4.07109 6.15863C4.07023 6.16183 4.06949 6.16513 4.06862 6.16833C4.06947 6.16511 4.07023 6.16181 4.07109 6.15863Z" fill="#FF4040"/>
<path d="M4.13899 5.92554C4.13882 5.92605 4.13862 5.92657 4.13842 5.92709C4.13862 5.9266 4.13882 5.92611 4.13899 5.92559C4.13899 5.92554 4.13899 5.92554 4.13899 5.92554Z" fill="#FF4040"/>
<path d="M4.17431 5.82922C4.17424 5.82925 4.17417 5.82925 4.1741 5.82927C4.16672 5.84967 4.15847 5.86919 4.15143 5.88993C4.14981 5.89467 4.14817 5.89934 4.14648 5.90401C4.15504 5.87839 4.16523 5.85437 4.17431 5.82922Z" fill="#FF4040"/>
<path d="M4.15104 5.88989C4.14955 5.89417 4.14787 5.8983 4.14641 5.9026C4.14643 5.90254 4.14647 5.90247 4.14649 5.90241C4.14804 5.89826 4.14958 5.89411 4.15104 5.88989Z" fill="#FF4040"/>
<path d="M4.2457 5.64527C4.24594 5.64474 4.2461 5.64422 4.24631 5.64368C4.24597 5.64446 4.24559 5.64516 4.24522 5.64589C4.2449 5.64665 4.24461 5.6474 4.24429 5.6481C4.24472 5.64711 4.24525 5.64625 4.2457 5.64527Z" fill="#FF4040"/>
<path d="M4.1989 5.76322C4.20659 5.7432 4.21342 5.72232 4.22145 5.70264C4.22136 5.70285 4.22127 5.70309 4.22118 5.7033C4.21254 5.72452 4.20508 5.7469 4.19682 5.76851C4.19749 5.76672 4.1982 5.76501 4.1989 5.76322Z" fill="#FF4040"/>
<path d="M3.93648 7.06281C3.93618 7.06822 3.93576 7.07357 3.93547 7.07901C3.93576 7.0736 3.93615 7.06825 3.93648 7.06285V7.06281Z" fill="#FF4040"/>
<path d="M4.64508 10.5793C4.64526 10.5791 4.64547 10.579 4.64563 10.5788C4.59691 10.4649 4.55074 10.3513 4.50711 10.2381C4.55083 10.3515 4.59624 10.4651 4.64508 10.5793Z" fill="#FF4040"/>
<path d="M4.24426 5.64771C4.24065 5.65609 4.23632 5.6637 4.23278 5.67216C4.23146 5.6753 4.23044 5.67883 4.22912 5.682C4.22636 5.6887 4.22416 5.69594 4.22143 5.70266C4.22893 5.68424 4.23646 5.66584 4.24426 5.64771Z" fill="#FF7E80"/>
<path d="M4.00414 6.467V6.46704C4.00479 6.46361 4.00547 6.46018 4.00618 6.45679C4.00547 6.46018 4.00477 6.46356 4.00414 6.467Z" fill="#FF7E80"/>
<path d="M4.00739 6.4519C4.00703 6.45366 4.00669 6.45539 4.00633 6.45715C4.00669 6.45545 4.00703 6.45376 4.00737 6.45203L4.00739 6.4519Z" fill="#FF7E80"/>
<path d="M4.06865 6.16952C4.06533 6.18253 4.0623 6.19581 4.0591 6.20889V6.20891C4.06223 6.19576 4.0654 6.18256 4.06865 6.16949V6.16952Z" fill="#FF7E80"/>
<path d="M3.93667 7.06165C3.93663 7.06201 3.93659 7.0624 3.93654 7.06277C3.93659 7.06238 3.93663 7.06201 3.93667 7.06165Z" fill="#FF7E80"/>
<path d="M4.14609 5.90399C4.14607 5.90406 4.14603 5.90413 4.14601 5.90419C4.1437 5.911 4.14111 5.91745 4.13885 5.92428C4.13885 5.92428 4.13885 5.92428 4.13885 5.92432C4.14114 5.91743 4.14364 5.91071 4.14609 5.90399Z" fill="#FF7E80"/>
<path d="M4.22145 5.70261C4.21344 5.7223 4.20656 5.74318 4.19888 5.7632C4.21407 5.72347 4.22912 5.68357 4.24551 5.64508C4.24512 5.64599 4.24466 5.6468 4.24428 5.64768C4.23648 5.66582 4.22898 5.68421 4.22145 5.70261Z" fill="#FF7E80"/>
<path d="M4.34138 5.4408C4.31005 5.50062 4.28101 5.56289 4.25313 5.62643C4.25142 5.63041 4.24982 5.63454 4.24811 5.63852C4.24739 5.64023 4.24679 5.64204 4.24607 5.64371C4.27606 5.57419 4.3073 5.50591 4.34138 5.4408Z" fill="#FFC0C0"/>
<path d="M4.19679 5.76849C4.18897 5.78904 4.18024 5.8087 4.17269 5.82955V5.8296C4.17315 5.82951 4.17364 5.82936 4.1741 5.82924C4.18146 5.80882 4.18908 5.78859 4.19679 5.76849Z" fill="#FFC0C0"/>
<path d="M4.24551 5.64514C4.27566 5.5751 4.30704 5.50636 4.34138 5.4408C4.30727 5.50593 4.27603 5.57417 4.24605 5.64369C4.24586 5.64419 4.24572 5.64467 4.24551 5.64514Z" fill="#FFC0C0"/>
<path d="M4.1741 5.8292C4.17417 5.8292 4.17424 5.82923 4.17431 5.82918C4.18232 5.80699 4.19049 5.78501 4.19888 5.76318C4.1982 5.76497 4.19746 5.76669 4.19679 5.7685C4.18908 5.78859 4.18146 5.80878 4.1741 5.8292Z" fill="#FFC0C0"/>
<path d="M13.7471 7.00743H12.5V5.72382H13.7471V7.00743Z" fill="#171618"/>
<path d="M13.7471 17.2763H12.5V15.9927H13.7471V17.2763Z" fill="#171618"/>
<path d="M14.9943 4.44017H13.7471V3.15656H14.9943V4.44017Z" fill="#171618"/>
<path d="M14.9943 5.72381H13.7471V4.44025H14.9943V5.72381Z" fill="#171618"/>
<path d="M14.9943 7.00743H13.7471V5.72382H14.9943V7.00743Z" fill="#171618"/>
<path d="M14.9943 17.2763H13.7471V15.9927H14.9943V17.2763Z" fill="#171618"/>
<path d="M14.9943 18.5599H13.7471V17.2763H14.9943V18.5599Z" fill="#171618"/>
<path d="M16.2414 4.44017H14.9943V3.15656H16.2414V4.44017Z" fill="#171618"/>
<path d="M16.2414 18.5599H14.9943V17.2763H16.2414V18.5599Z" fill="#171618"/>
<path d="M17.4886 4.44017H16.2414V3.15656H17.4886V4.44017Z" fill="#171618"/>
<path d="M17.4886 5.72381H16.2414V4.44025H17.4886V5.72381Z" fill="#171618"/>
<path d="M18.7357 5.72381H17.4886V4.44025H18.7357V5.72381Z" fill="#171618"/>
<path d="M16.2414 10.8582H14.9943V9.57458H16.2414V10.8582Z" fill="#171618"/>
<path d="M16.2414 12.1419H14.9943V10.8583H16.2414V12.1419Z" fill="#171618"/>
<path d="M16.2414 13.4255H14.9943V12.1418H16.2414V13.4255Z" fill="#171618"/>
<path d="M17.4886 10.8582H16.2414V9.57458H17.4886V10.8582Z" fill="#171618"/>
<path d="M17.4886 12.1419H16.2414V10.8583H17.4886V12.1419Z" fill="#171618"/>
<path d="M17.4886 13.4255H16.2414V12.1418H17.4886V13.4255Z" fill="#171618"/>
<path d="M17.4886 18.5599H16.2414V17.2763H17.4886V18.5599Z" fill="#171618"/>
<path d="M18.7357 7.00743H17.4886V5.72382H18.7357V7.00743Z" fill="#171618"/>
<path d="M18.7357 15.9926H17.4886V14.709H18.7357V15.9926Z" fill="#171618"/>
<path d="M18.7357 17.2763H17.4886V15.9927H18.7357V17.2763Z" fill="#171618"/>
<path d="M18.7357 18.5599H17.4886V17.2763H18.7357V18.5599Z" fill="#171618"/>
<path d="M19.9829 8.291H18.7357V7.00739H19.9829V8.291Z" fill="#171618"/>
<path d="M19.9829 7.00743H18.7357V5.72382H19.9829V7.00743Z" fill="#171618"/>
<path d="M19.9829 15.9926H18.7357V14.709H19.9829V15.9926Z" fill="#171618"/>
<path d="M19.9829 14.7091H18.7357V13.4255H19.9829V14.7091Z" fill="#171618"/>
<path d="M23.7243 9.57463H22.4772V8.29102H23.7243V9.57463Z" fill="#171618"/>
<path d="M21.23 9.57463H19.9829V8.29102H21.23V9.57463Z" fill="#171618"/>
<path d="M21.23 10.8582H19.9829V9.57458H21.23V10.8582Z" fill="#171618"/>
<path d="M21.23 12.1419H19.9829V10.8583H21.23V12.1419Z" fill="#171618"/>
<path d="M21.23 13.4255H19.9829V12.1418H21.23V13.4255Z" fill="#171618"/>
<path d="M21.23 14.7091H19.9829V13.4255H21.23V14.7091Z" fill="#171618"/>
<path d="M21.23 8.291H19.9829V7.00739H21.23V8.291Z" fill="#171618"/>
<path d="M22.4771 9.57463H21.23V8.29102H22.4771V9.57463Z" fill="#171618"/>
<path d="M24.9714 15.9926H23.7243V14.709H24.9714V15.9926Z" fill="#171618"/>
<path d="M24.9714 14.7091H23.7243V13.4255H24.9714V14.7091Z" fill="#171618"/>
<path d="M22.4771 14.7091H21.23V13.4255H22.4771V14.7091Z" fill="#171618"/>
<path d="M13.7471 8.291H12.5V7.00739H13.7471V8.291Z" fill="#A485CF"/>
<path d="M13.7471 9.57463H12.5V8.29102H13.7471V9.57463Z" fill="#A485CF"/>
<path d="M13.7471 10.8582H12.5V9.57458H13.7471V10.8582Z" fill="#A485CF"/>
<path d="M13.7471 12.1419H12.5V10.8583H13.7471V12.1419Z" fill="#A485CF"/>
<path d="M13.7471 13.4255H12.5V12.1418H13.7471V13.4255Z" fill="#A485CF"/>
<path d="M13.7471 14.7091H12.5V13.4255H13.7471V14.7091Z" fill="#A485CF"/>
<path d="M13.7471 15.9926H12.5V14.709H13.7471V15.9926Z" fill="#A485CF"/>
<path d="M14.9943 8.291H13.7471V7.00739H14.9943V8.291Z" fill="#A485CF"/>
<path d="M14.9943 9.57463H13.7471V8.29102H14.9943V9.57463Z" fill="#A485CF"/>
<path d="M14.9943 10.8582H13.7471V9.57458H14.9943V10.8582Z" fill="#A485CF"/>
<path d="M14.9943 12.1419H13.7471V10.8583H14.9943V12.1419Z" fill="#A485CF"/>
<path d="M14.9943 13.4255H13.7471V12.1418H14.9943V13.4255Z" fill="#A485CF"/>
<path d="M14.9943 14.7091H13.7471V13.4255H14.9943V14.7091Z" fill="#A485CF"/>
<path d="M14.9943 15.9926H13.7471V14.709H14.9943V15.9926Z" fill="#A485CF"/>
<path d="M16.2414 5.72381H14.9943V4.44025H16.2414V5.72381Z" fill="#A485CF"/>
<path d="M16.2414 7.00743H14.9943V5.72382H16.2414V7.00743Z" fill="#A485CF"/>
<path d="M16.2414 8.291H14.9943V7.00739H16.2414V8.291Z" fill="#A485CF"/>
<path d="M16.2414 9.57463H14.9943V8.29102H16.2414V9.57463Z" fill="#A485CF"/>
<path d="M16.2414 14.7091H14.9943V13.4255H16.2414V14.7091Z" fill="#A485CF"/>
<path d="M16.2414 15.9926H14.9943V14.709H16.2414V15.9926Z" fill="#A485CF"/>
<path d="M16.2414 17.2763H14.9943V15.9927H16.2414V17.2763Z" fill="#A485CF"/>
<path d="M17.4886 7.00743H16.2414V5.72382H17.4886V7.00743Z" fill="#A485CF"/>
<path d="M17.4886 8.291H16.2414V7.00739H17.4886V8.291Z" fill="#A485CF"/>
<path d="M17.4886 9.57463H16.2414V8.29102H17.4886V9.57463Z" fill="#A485CF"/>
<path d="M17.4886 14.7091H16.2414V13.4255H17.4886V14.7091Z" fill="#A485CF"/>
<path d="M17.4886 15.9926H16.2414V14.709H17.4886V15.9926Z" fill="#A485CF"/>
<path d="M17.4886 17.2763H16.2414V15.9927H17.4886V17.2763Z" fill="#A485CF"/>
<path d="M18.7357 8.291H17.4886V7.00739H18.7357V8.291Z" fill="#A485CF"/>
<path d="M18.7357 9.57463H17.4886V8.29102H18.7357V9.57463Z" fill="#A485CF"/>
<path d="M18.7357 10.8582H17.4886V9.57458H18.7357V10.8582Z" fill="#A485CF"/>
<path d="M18.7357 12.1419H17.4886V10.8583H18.7357V12.1419Z" fill="#A485CF"/>
<path d="M18.7357 13.4255H17.4886V12.1418H18.7357V13.4255Z" fill="#A485CF"/>
<path d="M18.7357 14.7091H17.4886V13.4255H18.7357V14.7091Z" fill="#A485CF"/>
<path d="M22.4771 17.2763H21.23V15.9927H22.4771V17.2763Z" fill="#171618"/>
<path d="M21.23 17.2763H19.9829V15.9927H21.23V17.2763Z" fill="#171618"/>
<path d="M21.23 18.5599H19.9829V17.2763H21.23V18.5599Z" fill="#171618"/>
<path d="M21.23 19.8435H19.9829V18.5599H21.23V19.8435Z" fill="#171618"/>
<path d="M23.7243 17.2763H22.4772V15.9927H23.7243V17.2763Z" fill="#171618"/>
<path d="M22.4771 19.8435H21.23V18.5599H22.4771V19.8435Z" fill="#171618"/>
<path d="M23.7243 19.8435H22.4772V18.5599H23.7243V19.8435Z" fill="#171618"/>
<path d="M24.9714 17.2763H23.7243V15.9927H24.9714V17.2763Z" fill="#171618"/>
<path d="M23.7243 18.5599H22.4772V17.2763H23.7243V18.5599Z" fill="#171618"/>
<path d="M22.4771 18.5599H21.23V17.2763H22.4771V18.5599Z" fill="#A485CF"/>
<path d="M19.9829 9.57463H18.7357V8.29102H19.9829V9.57463Z" fill="#A485CF"/>
<path d="M19.9829 10.8582H18.7357V9.57458H19.9829V10.8582Z" fill="#A485CF"/>
<path d="M19.9829 12.1419H18.7357V10.8583H19.9829V12.1419Z" fill="#A485CF"/>
<path d="M19.9829 13.4255H18.7357V12.1418H19.9829V13.4255Z" fill="#A485CF"/>
<path d="M14.9943 19.8435H13.7471V18.5599H14.9943V19.8435Z" fill="#171618"/>
<path d="M14.9943 21.1271H13.7471V19.8435H14.9943V21.1271Z" fill="#171618"/>
<path d="M16.2414 21.1271H14.9943V19.8435H16.2414V21.1271Z" fill="#171618"/>
<path d="M17.4886 19.8435H16.2414V18.5599H17.4886V19.8435Z" fill="#171618"/>
<path d="M17.4886 21.1271H16.2414V19.8435H17.4886V21.1271Z" fill="#171618"/>
<path d="M16.2414 19.8435H14.9943V18.5599H16.2414V19.8435Z" fill="#A485CF"/>
<path d="M23.7243 15.9926H22.4772V14.709H23.7243V15.9926Z" fill="#A485CF"/>
<path d="M22.4771 10.8582H21.23V9.57458H22.4771V10.8582Z" fill="#A485CF"/>
<path d="M22.4771 12.1419H21.23V10.8583H22.4771V12.1419Z" fill="#A485CF"/>
<path d="M22.4771 13.4255H21.23V12.1418H22.4771V13.4255Z" fill="#A485CF"/>
<path d="M23.7243 14.7091H22.4772V13.4255H23.7243V14.7091Z" fill="#171618"/>
<path d="M23.7243 10.8582H22.4772V9.57458H23.7243V10.8582Z" fill="#171618"/>
<path d="M23.7243 12.1419H22.4772V10.8583H23.7243V12.1419Z" fill="#171618"/>
<path d="M23.7243 13.4255H22.4772V12.1418H23.7243V13.4255Z" fill="#171618"/>
<path d="M22.4771 15.9926H21.23V14.709H22.4771V15.9926Z" fill="#171618"/>
<path d="M11.2529 7.00743H12.5V5.72382H11.2529V7.00743Z" fill="#171618"/>
<path d="M11.2529 17.2763H12.5V15.9927H11.2529V17.2763Z" fill="#171618"/>
<path d="M10.0057 4.44017H11.2528V3.15656H10.0057V4.44017Z" fill="#171618"/>
<path d="M10.0057 5.72381H11.2528V4.44025H10.0057V5.72381Z" fill="#171618"/>
<path d="M10.0057 7.00743H11.2528V5.72382H10.0057V7.00743Z" fill="#171618"/>
<path d="M10.0057 17.2763H11.2528V15.9927H10.0057V17.2763Z" fill="#171618"/>
<path d="M10.0057 18.5599H11.2528V17.2763H10.0057V18.5599Z" fill="#171618"/>
<path d="M8.75858 4.44017H10.0057V3.15656H8.75858V4.44017Z" fill="#171618"/>
<path d="M8.75858 18.5599H10.0057V17.2763H8.75858V18.5599Z" fill="#171618"/>
<path d="M7.51143 4.44017H8.75857V3.15656H7.51143V4.44017Z" fill="#171618"/>
<path d="M7.51143 5.72381H8.75857V4.44025H7.51143V5.72381Z" fill="#171618"/>
<path d="M6.26427 5.72381H7.51142V4.44025H6.26427V5.72381Z" fill="#171618"/>
<path d="M8.75858 10.8582H10.0057V9.57458H8.75858V10.8582Z" fill="#171618"/>
<path d="M8.75858 12.1419H10.0057V10.8583H8.75858V12.1419Z" fill="#171618"/>
<path d="M8.75858 13.4255H10.0057V12.1418H8.75858V13.4255Z" fill="#171618"/>
<path d="M7.51143 10.8582H8.75857V9.57458H7.51143V10.8582Z" fill="#171618"/>
<path d="M7.51143 12.1419H8.75857V10.8583H7.51143V12.1419Z" fill="#171618"/>
<path d="M7.51143 13.4255H8.75857V12.1418H7.51143V13.4255Z" fill="#171618"/>
<path d="M7.51143 18.5599H8.75857V17.2763H7.51143V18.5599Z" fill="#171618"/>
<path d="M6.26427 7.00743H7.51142V5.72382H6.26427V7.00743Z" fill="#171618"/>
<path d="M6.26427 15.9926H7.51142V14.709H6.26427V15.9926Z" fill="#171618"/>
<path d="M6.26427 17.2763H7.51142V15.9927H6.26427V17.2763Z" fill="#171618"/>
<path d="M6.26427 18.5599H7.51142V17.2763H6.26427V18.5599Z" fill="#171618"/>
<path d="M5.01713 8.291H6.26428V7.00739H5.01713V8.291Z" fill="#171618"/>
<path d="M5.01713 7.00743H6.26428V5.72382H5.01713V7.00743Z" fill="#171618"/>
<path d="M5.01713 15.9926H6.26428V14.709H5.01713V15.9926Z" fill="#171618"/>
<path d="M5.01713 14.7091H6.26428V13.4255H5.01713V14.7091Z" fill="#171618"/>
<path d="M1.2757 9.57463H2.52281V8.29102H1.2757V9.57463Z" fill="#171618"/>
<path d="M3.76998 9.57463H5.01713V8.29102H3.76998V9.57463Z" fill="#171618"/>
<path d="M3.76998 10.8582H5.01713V9.57458H3.76998V10.8582Z" fill="#171618"/>
<path d="M3.76998 12.1419H5.01713V10.8583H3.76998V12.1419Z" fill="#171618"/>
<path d="M3.76998 13.4255H5.01713V12.1418H3.76998V13.4255Z" fill="#171618"/>
<path d="M3.76998 14.7091H5.01713V13.4255H3.76998V14.7091Z" fill="#171618"/>
<path d="M3.76998 8.291H5.01713V7.00739H3.76998V8.291Z" fill="#171618"/>
<path d="M2.52283 9.57463H3.76998V8.29102H2.52283V9.57463Z" fill="#171618"/>
<path d="M0.028553 15.9926H1.2757V14.709H0.028553V15.9926Z" fill="#171618"/>
<path d="M0.028553 14.7091H1.2757V13.4255H0.028553V14.7091Z" fill="#171618"/>
<path d="M2.52283 14.7091H3.76998V13.4255H2.52283V14.7091Z" fill="#171618"/>
<path d="M11.2529 8.291H12.5V7.00739H11.2529V8.291Z" fill="#A485CF"/>
<path d="M11.2529 9.57463H12.5V8.29102H11.2529V9.57463Z" fill="#A485CF"/>
<path d="M11.2529 10.8582H12.5V9.57458H11.2529V10.8582Z" fill="#A485CF"/>
<path d="M11.2529 12.1419H12.5V10.8583H11.2529V12.1419Z" fill="#A485CF"/>
<path d="M11.2529 13.4255H12.5V12.1418H11.2529V13.4255Z" fill="#A485CF"/>
<path d="M11.2529 14.7091H12.5V13.4255H11.2529V14.7091Z" fill="#A485CF"/>
<path d="M11.2529 15.9926H12.5V14.709H11.2529V15.9926Z" fill="#A485CF"/>
<path d="M10.0057 8.291H11.2528V7.00739H10.0057V8.291Z" fill="#A485CF"/>
<path d="M10.0057 9.57463H11.2528V8.29102H10.0057V9.57463Z" fill="#A485CF"/>
<path d="M10.0057 10.8582H11.2528V9.57458H10.0057V10.8582Z" fill="#A485CF"/>
<path d="M10.0057 12.1419H11.2528V10.8583H10.0057V12.1419Z" fill="#A485CF"/>
<path d="M10.0057 13.4255H11.2528V12.1418H10.0057V13.4255Z" fill="#A485CF"/>
<path d="M10.0057 14.7091H11.2528V13.4255H10.0057V14.7091Z" fill="#A485CF"/>
<path d="M10.0057 15.9926H11.2528V14.709H10.0057V15.9926Z" fill="#A485CF"/>
<path d="M8.75858 5.72381H10.0057V4.44025H8.75858V5.72381Z" fill="#A485CF"/>
<path d="M8.75858 7.00743H10.0057V5.72382H8.75858V7.00743Z" fill="#A485CF"/>
<path d="M8.75858 8.291H10.0057V7.00739H8.75858V8.291Z" fill="#A485CF"/>
<path d="M8.75858 9.57463H10.0057V8.29102H8.75858V9.57463Z" fill="#A485CF"/>
<path d="M8.75858 14.7091H10.0057V13.4255H8.75858V14.7091Z" fill="#A485CF"/>
<path d="M8.75858 15.9926H10.0057V14.709H8.75858V15.9926Z" fill="#A485CF"/>
<path d="M8.75858 17.2763H10.0057V15.9927H8.75858V17.2763Z" fill="#A485CF"/>
<path d="M7.51143 7.00743H8.75857V5.72382H7.51143V7.00743Z" fill="#A485CF"/>
<path d="M7.51143 8.291H8.75857V7.00739H7.51143V8.291Z" fill="#A485CF"/>
<path d="M7.51143 9.57463H8.75857V8.29102H7.51143V9.57463Z" fill="#A485CF"/>
<path d="M7.51143 14.7091H8.75857V13.4255H7.51143V14.7091Z" fill="#A485CF"/>
<path d="M7.51143 15.9926H8.75857V14.709H7.51143V15.9926Z" fill="#A485CF"/>
<path d="M7.51143 17.2763H8.75857V15.9927H7.51143V17.2763Z" fill="#A485CF"/>
<path d="M6.26427 8.291H7.51142V7.00739H6.26427V8.291Z" fill="#A485CF"/>
<path d="M6.26427 9.57463H7.51142V8.29102H6.26427V9.57463Z" fill="#A485CF"/>
<path d="M6.26427 10.8582H7.51142V9.57458H6.26427V10.8582Z" fill="#A485CF"/>
<path d="M6.26427 12.1419H7.51142V10.8583H6.26427V12.1419Z" fill="#A485CF"/>
<path d="M6.26427 13.4255H7.51142V12.1418H6.26427V13.4255Z" fill="#A485CF"/>
<path d="M6.26427 14.7091H7.51142V13.4255H6.26427V14.7091Z" fill="#A485CF"/>
<path d="M2.52283 17.2763H3.76998V15.9927H2.52283V17.2763Z" fill="#171618"/>
<path d="M3.76998 17.2763H5.01713V15.9927H3.76998V17.2763Z" fill="#171618"/>
<path d="M3.76998 18.5599H5.01713V17.2763H3.76998V18.5599Z" fill="#171618"/>
<path d="M3.76998 19.8435H5.01713V18.5599H3.76998V19.8435Z" fill="#171618"/>
<path d="M1.2757 17.2763H2.52281V15.9927H1.2757V17.2763Z" fill="#171618"/>
<path d="M2.52283 19.8435H3.76998V18.5599H2.52283V19.8435Z" fill="#171618"/>
<path d="M1.2757 19.8435H2.52281V18.5599H1.2757V19.8435Z" fill="#171618"/>
<path d="M0.028553 17.2763H1.2757V15.9927H0.028553V17.2763Z" fill="#171618"/>
<path d="M1.2757 18.5599H2.52281V17.2763H1.2757V18.5599Z" fill="#171618"/>
<path d="M2.52283 18.5599H3.76998V17.2763H2.52283V18.5599Z" fill="#A485CF"/>
<path d="M5.01713 9.57463H6.26428V8.29102H5.01713V9.57463Z" fill="#A485CF"/>
<path d="M5.01713 10.8582H6.26428V9.57458H5.01713V10.8582Z" fill="#A485CF"/>
<path d="M5.01713 12.1419H6.26428V10.8583H5.01713V12.1419Z" fill="#A485CF"/>
<path d="M5.01713 13.4255H6.26428V12.1418H5.01713V13.4255Z" fill="#A485CF"/>
<path d="M10.0057 19.8435H11.2528V18.5599H10.0057V19.8435Z" fill="#171618"/>
<path d="M10.0057 21.1271H11.2528V19.8435H10.0057V21.1271Z" fill="#171618"/>
<path d="M8.75858 21.1271H10.0057V19.8435H8.75858V21.1271Z" fill="#171618"/>
<path d="M7.51143 19.8435H8.75857V18.5599H7.51143V19.8435Z" fill="#171618"/>
<path d="M7.51143 21.1271H8.75857V19.8435H7.51143V21.1271Z" fill="#171618"/>
<path d="M8.75858 19.8435H10.0057V18.5599H8.75858V19.8435Z" fill="#A485CF"/>
<path d="M1.2757 15.9926H2.52281V14.709H1.2757V15.9926Z" fill="#A485CF"/>
<path d="M2.52283 10.8582H3.76998V9.57458H2.52283V10.8582Z" fill="#A485CF"/>
<path d="M2.52283 12.1419H3.76998V10.8583H2.52283V12.1419Z" fill="#A485CF"/>
<path d="M2.52283 13.4255H3.76998V12.1418H2.52283V13.4255Z" fill="#A485CF"/>
<path d="M1.2757 14.7091H2.52281V13.4255H1.2757V14.7091Z" fill="#171618"/>
<path d="M1.2757 10.8582H2.52281V9.57458H1.2757V10.8582Z" fill="#171618"/>
<path d="M1.2757 12.1419H2.52281V10.8583H1.2757V12.1419Z" fill="#171618"/>
<path d="M1.2757 13.4255H2.52281V12.1418H1.2757V13.4255Z" fill="#171618"/>
<path d="M2.52283 15.9926H3.76998V14.709H2.52283V15.9926Z" fill="#171618"/>
</g>
</g>
</g>
</g>
<defs>
<clipPath id="clip0_1215_9159">
<rect width="25" height="25" fill="white"/>
</clipPath>
<clipPath id="clip1_1215_9159">
<rect width="57" height="33" fill="white" transform="translate(-16 -5)"/>
</clipPath>
</defs>
</svg>
