<?xml version="1.0" encoding="UTF-8"?><svg xmlns="http://www.w3.org/2000/svg" width="13.2689cm" height="12.48661cm" viewBox="0 0 376.12629 353.95127"><defs><style>.cls-1{fill:#fff8fb;mix-blend-mode:overlay;}.cls-1,.cls-2,.cls-3,.cls-4,.cls-5,.cls-6,.cls-7,.cls-8,.cls-9,.cls-10,.cls-11,.cls-12{stroke-width:0px;}.cls-13{fill:none;stroke:#000;stroke-linecap:round;stroke-linejoin:round;stroke-width:1.73673px;}.cls-2{fill:#515151;}.cls-2,.cls-12{mix-blend-mode:multiply;opacity:.4;}.cls-14{isolation:isolate;}.cls-4{fill:#e2bb00;}.cls-5{fill:#d84200;}.cls-6{fill:#a5b8d8;}.cls-7{fill:#bababa;}.cls-8{fill:#33425c;}.cls-9{fill:#ffa943;}.cls-10{fill:#ffd600;}.cls-11{fill:#f50;}.cls-12{fill:#af6308;}</style></defs><g class="cls-14"><g id="Duck"><path class="cls-3" d="M214.04325,277.46037c-1.51758-.00098-3.01367-.17188-4.44678-.50879-4.5542-1.07129-8.95459-3.75098-13.0918-7.96973-5.64307-.02734-11.53857-.36914-17.53516-1.0166-14.08496-1.51953-26.4165-5.08301-36.71143-10.60156-2.00977,11.00488-8.16211,17.46777-16.85254,17.46777-1.19141,0-2.43506-.12695-3.69678-.37598-13.48145-2.66504-26.23779-10.97559-32.49854-21.17285-3.51367-5.72266-4.70264-11.07812-3.34766-15.0791.7627-2.25342,2.33203-3.93604,4.41846-4.73877.70264-.27002,1.47119-.40723,2.28467-.40723,2.14893,0,4.42334.98145,6.33691,2.11816-.11914-3.74316.91699-7.67432,4.73438-9.35791,1.18262-.52148,2.43457-.78613,3.72021-.78613,2.78271,0,5.5,1.25391,7.92725,3.10938-4.11768-9.71045-6.07324-20.40771-5.8291-31.9292-7.88867-.2749-15.11084-3.50635-20.43555-9.16895-6.74414-7.17188-10.06348-17.5376-9.34668-29.1875,1.30615-21.21875,17.59229-34.20557,26.02539-34.20557.5083,0,.99512.04639,1.4541.13721.04492-.92822.68115-1.73828,1.59668-1.98828.4458-.12158,10.93555-2.94873,28.86475-4.69482,4.61377-7.28076,8.91455-13.24805,11.98438-17.30371-.31836-.63672-.68799-1.47998-1.02197-2.50391-6.37402-3.64307-16.03369-10.71191-15.33545-19.79248.96875-12.59717,17.9502-21.74023,40.37793-21.74023,6.65381,0,13.53467.78271,20.45264,2.32715,21.45264,4.78906,38.53857,12.21875,50.7832,22.0835,12.37695,9.97119,16.18945,19.54932,17.36035,24.37158,2.84961,11.73438-1.93457,17.21582-5.20166,19.49463.04102.05762.08154.11523.12158.17236,13.03076,18.62207,17.52588,40.79785,18.91016,57.18799,1.3335-.54736,2.99805-1.01904,4.77734-1.01904,1.40625,0,2.73584.29004,3.95215.8623,3.38916,1.59521,4.15137,5.63623,4.17041,8.86279,3.51221-1.83545,9.01758-4.14258,14.50342-4.14258,3.1958,0,6.02832.78223,8.41846,2.32422,2.21484,1.42871,3.60791,4.11426,3.92188,7.56104.73096,8.02393-4.19287,21.9624-20.20312,37.0166-15.94043,14.98877-40.60596,22.1167-48.33936,24.06396-1.62109,1.00586-3.33545,1.96484-5.10645,2.85742-5.88672,8.60449-17.04004,17.67285-28.09473,17.67285h-.00195ZM114.28837,147.05559c.29785,5.35352,1.66699,8.75684,2.92578,10.79883.7583-2.09961,1.57031-4.21533,2.43018-6.32959-2.03564-1.46338-3.83838-3.25586-5.40137-5.36963.01367.29736.02881.59717.04541.90039Z"/><path class="cls-3" d="M173.61877,57.93437c6.24234.00009,12.97551.71157,19.9799,2.27521,47.44487,10.59133,63.43683,32.2067,66.5069,44.84837,3.43008,14.12376-5.0432,17.82405-6.38206,18.31438.57562.6765,1.12999,1.36617,1.63345,2.08563,11.81862,16.89046,17.46211,38.62599,18.76891,59.43425.099-.05547.16165-.08992.16165-.08992,0,0,3.0528-2.25,6.53476-2.24968.99454.00009,2.02475.18376,3.02802.65588,4.30789,2.02721,2.56702,10.89838,2.56702,10.89838,0,0,8.686-5.97173,17.03149-5.97173,2.52872,0,5.02664.54846,7.24161,1.97748,6.09335,3.93117,3.99429,21.81499-16.59174,41.17207-15.99692,15.04181-41.42226,22.06158-47.71117,23.62155-1.84401,1.15967-3.75676,2.22116-5.72859,3.19339-5.45941,8.24323-16.16486,17.18945-26.61528,17.18945-1.32454,0-2.64511-.14374-3.95026-.45084-4.70416-1.10687-9.01129-4.13318-12.66109-8.02496-.06517.00009-.1293.00012-.19449.00012-5.96872,0-12.01637-.35638-18.03543-1.00592-17.334-1.87057-29.81833-6.65927-38.64766-11.89682-1.13297,11.05148-6.38824,18.74988-15.14893,18.74988-1.04228,0-2.13586-.10925-3.27628-.33469-13.773-2.72256-25.464-11.05035-31.06934-20.17905-5.31392-8.65411-4.16392-15.05414,0-16.65564.47322-.18204.97941-.26266,1.50519-.26266,4.10063.00009,9.38515,4.90701,9.38515,4.90701,0,0-3.15738-9.80875,2.56237-12.33167.94139-.41522,1.8936-.60175,2.84395-.60162,5.33569.00067,10.58445,5.88501,13.17118,10.21072,0,0,.16383-.99881.63104-2.38916-7.55683-12.94855-10.10033-26.97354-9.45834-40.98538-.38502.01425-.76539.02129-1.1456.02129-17.62381,0-29.9967-15.24271-28.71498-36.07083,1.22994-19.98604,16.66042-32.16786,23.85795-32.16772.53774,0,1.02966.06801,1.46613.20586,1.07442.33928,1.89221.8452,2.53746,1.49083-.15296-1.16205-.28783-2.35663-.38046-3.62488,0,0,10.95538-2.99117,29.56017-4.72874,5.17709-8.2468,10.00671-14.8813,13.33363-19.21555-.01776-.00455-.04283-.01096-.04283-.01096,0,0-1.06139-1.52596-1.76839-4.10504-5.93541-3.27713-15.6317-9.92921-14.99841-18.16251.86232-11.21074,16.60324-19.73611,38.21339-19.73579M118.02992,162.1154c1.30025-3.88699,2.74858-7.70195,4.30325-11.41591-3.73767-2.25479-7.77879-6.3195-10.39479-13.59976.02995,2.86075-.03155,6.2213.18258,10.07605.55788,10.0417,4.6475,13.9615,5.90896,14.93962M173.61887,53.59253c-.00044,0,.00038,0-.00005,0-23.97295-.00037-41.46707,9.76379-42.5425,23.74463-.41547,5.40111,2.0309,13.42624,15.71638,21.43684.09769.26363.19664.51453.29527.752-2.88998,3.8627-6.67818,9.17255-10.73874,15.52235-17.47234,1.77042-27.7272,4.53473-28.17162,4.65605-1.04014.28398-1.90022.92966-2.46555,1.77489-.00457-.00002-.00909-.00002-.01366-.00002-5.25067-.00009-11.92446,3.85155-17.41713,10.05179-6.34995,7.16795-10.17654,16.46947-10.77479,26.19109-.75408,12.25404,2.77312,23.19516,9.93188,30.808,5.24173,5.57423,12.18941,8.95552,19.82598,9.71013.01055,8.92587,1.32986,17.36066,3.94105,25.23309-1.22234-.38849-2.50855-.61279-3.84803-.61298-1.58916-.00021-3.1358.32648-4.59683.97092-3.60622,1.59067-5.25256,4.66086-5.80258,7.96948-1.41625-.55096-2.91157-.91409-4.39246-.91415-1.08067,0-2.1115.18576-3.06396.55206-2.6993,1.03821-4.72196,3.19336-5.69546,6.06848-1.5655,4.62354-.30329,10.62952,3.55408,16.91156,6.66441,10.85339,19.66458,19.34711,33.92733,22.16653,1.40021.27673,2.78579.41708,4.11829.41708,8.90363,0,15.59855-6.15057,18.34791-16.4313,10.01024,4.9173,21.74614,8.12479,34.98283,9.55322,5.75896.62146,11.42337.9646,16.86349,1.02225,4.24457,4.14651,8.77852,6.80743,13.49889,7.91812,1.59692.37576,3.26054.56625,4.9447.56625,11.71774,0,23.12099-8.96432,29.56947-18.15747,1.54907-.79544,3.05331-1.6402,4.48996-2.52167,8.21758-2.09442,32.86845-9.36389,48.96986-24.50394,7.34659-6.90802,12.92255-14.05475,16.573-21.24167,3.27487-6.44763,4.76346-12.51764,4.30472-17.55371-.37589-4.12642-2.11835-7.38954-4.90637-9.18826-2.74704-1.77228-5.97543-2.67091-9.59546-2.67091-4.54333,0-9.06891,1.45168-12.61575,3.00824-.79053-4.52774-3.14645-6.58629-5.13403-7.52161-1.50717-.70926-3.14786-1.069-4.87637-1.06912-1.0007-.00011-1.96384.12216-2.86453.31827-1.62033-15.90169-6.18167-36.3862-18.01813-54.06206,3.46826-3.18175,7.08374-9.32056,4.38483-20.43372-1.23596-5.08929-5.23203-15.17599-18.10823-25.5495-12.50633-10.0755-29.89128-17.64954-51.67195-22.51175-7.07207-1.57874-14.11331-2.37932-20.92575-2.3795h0Z"/><path class="cls-9" d="M251.53451,195.87266s2.21456-2.78203,3.27592-3.768"/><path class="cls-3" d="M251.53451,195.87267c.64406-1.72289,1.17967-3.4076,2.09384-5.04044.49099-1.04167,1.7629-1.50973,2.76672-.88894,1.38625.78103,1.10213,3.00053-.4027,3.43379-1.53867.62487-3.01855,1.62874-4.45787,2.49559h0Z"/><path class="cls-11" d="M253.37089,125.16301l-106.96045-10.6123c-.24756-.02441-.4873-.10205-.70215-.22705-.22705-.13232-22.60693-13.48535-14.54785-36.99121,4.24414-12.37842,22.08984-21.02393,43.39746-21.02393,6.32861,0,12.86182.74219,19.41895,2.20605,21.38721,4.77393,38.41309,12.17529,50.60547,21.99805,12.27686,9.89062,16.05322,19.36719,17.21094,24.13574,2.08594,8.58789-.05029,13.66602-2.20898,16.41406-2.41895,3.07812-5.41943,3.99951-5.54639,4.03711-.16113.04785-.32812.07227-.49561.07227-.05713,0-.11426-.00293-.17139-.00879Z"/><path class="cls-3" d="M174.55781,58.04532c5.96321,0,12.35693.67215,19.04086,2.16423,47.44487,10.59134,63.43681,32.20674,66.50693,44.84842,3.71912,15.3141-6.5632,18.37695-6.5632,18.37695l-106.96054-10.61206s-21.46887-12.49675-13.77853-34.92691c3.69487-10.77667,19.83493-19.85063,41.75449-19.85063M174.55782,54.57182c-22.03799,0-40.5592,9.12798-45.04024,22.19758-3.53255,10.30327-1.97532,20.35666,4.50331,29.07333,4.77588,6.42572,10.56927,9.8399,10.81355,9.98212.43016.2504.90913.40541,1.40445.45454l106.96056,10.61206c.11418.01132.22865.01697.34297.01697.33517,0,.66919-.04852.99158-.14455,4.6503-1.38521,12.50479-7.87575,8.94699-22.52563-1.21002-4.98235-5.13266-14.86566-17.80917-25.07826-12.40163-9.99117-29.66695-17.50758-51.31636-22.34048-6.68114-1.49145-13.34201-2.24768-19.79764-2.24768h0Z"/><path class="cls-5" d="M250.54716,125.55608c-5.37354,0-89.25928-21.48584-98.80664-23.93604-.40186-.10303-.75342-.34668-.99121-.68604-.16113-.23047-3.92871-5.73193-2.28809-13.66211.13672-.66113.64453-1.18311,1.30176-1.33838.3374-.07959,8.41602-1.95312,20.92773-1.95312,23.18408,0,56.76025,6.28418,85.06104,36.22217.3667.3877.53467.92334.45508,1.45166-.04932.32666-.61523,3.21045-5.27783,3.87646-.10059.01416-.22852.02539-.38184.02539Z"/><path class="cls-3" d="M170.69033,85.71695c21.27176-.00084,55.32686,5.55902,83.79903,35.67833,0,0-.2878,1.9137-3.80603,2.41631-.03586.00511-.08141.00766-.13608.00766-5.30899,0-98.37508-23.88153-98.37508-23.88153,0,0-3.51826-5.02609-2.01044-12.31389,0,0,8.07513-1.9064,20.52859-1.90688M170.69506,82.24347v3.47348l-.0009-3.47348h-.00383c-12.71182.0005-20.9809,1.91817-21.32668,1.9998-1.31438.3103-2.32971,1.35431-2.60335,2.6768-1.79091,8.65602,2.38754,14.75418,2.56628,15.00955.47568.67952,1.1788,1.16638,1.98224,1.37254,15.61189,4.00615,93.76797,23.99055,99.2384,23.99055.22179,0,.42715-.01395.6279-.04266,5.90631-.84377,6.68025-4.88072,6.74907-5.33824.15881-1.05611-.17703-2.12657-.91068-2.90268-13.06361-13.81935-28.53105-23.92117-45.97264-30.0249-12.7813-4.47284-26.35558-6.74077-40.34583-6.74077h0Z"/><path class="cls-4" d="M244.93729,256.98772c-.65527,0-1.26904-.37305-1.56348-.98242-.125-.25879-3.0835-6.44531-4.6709-14.94336-2.12646-11.38672-.70215-21.45947,4.11865-29.12891,11.03516-17.55566,28.91406-27.70557,30.54199-28.60498.62402-.43555,3.79395-2.51221,7.45898-2.51221,1.3418,0,2.60938.27637,3.76709.82129,3.44434,1.62061,4.00928,5.98828,3.91699,9.19385,3.41309-1.854,9.19385-4.43262,14.94189-4.43262,3.11083,0,5.86426.75879,8.18311,2.25488,2.13086,1.37451,3.41846,3.87646,3.72461,7.23584.72168,7.92188-4.17139,21.71338-20.06836,36.66064-18.50049,17.396-48.7041,24.11963-49.98096,24.39795-.12354.02637-.24707.04004-.36963.04004Z"/><path class="cls-3" d="M280.8223,182.5526c.99454,0,2.02472.18376,3.02798.65588,4.30789,2.02725,2.56699,10.89842,2.56699,10.89842,0,0,8.6861-5.97202,17.03156-5.97179,2.52872.00006,5.02661.54846,7.24155,1.97746,6.09338,3.93121,3.99432,21.81505-16.59174,41.17207-18.36313,17.26682-49.16069,23.96585-49.16069,23.96585,0,0-11.85786-24.5563-.64613-42.39316,11.21173-17.83682,29.9957-28.05505,29.9957-28.05505,0,0,3.05286-2.24969,6.53479-2.24969M280.82233,179.07913c-4.05084,0-7.45261,2.13487-8.38168,2.77519-2.14703,1.19785-20.00038,11.51259-31.08958,29.15454-12.09578,19.24326-.05933,44.67868.459,45.75204.58839,1.21848,1.81621,1.96338,3.12682,1.96338.24483,0,.49232-.02597.73933-.07968,1.29591-.28189,31.95444-7.1073,50.80185-24.82947,10.72116-10.08109,21.76492-25.37973,20.60779-38.08389-.3511-3.85461-1.95364-6.8866-4.51242-8.53741-2.60422-1.68016-5.67416-2.53209-9.12454-2.53218-4.86789-.00014-9.7283,1.72325-13.31644,3.40776-.52045-4.95636-2.85721-7.08806-4.80316-8.0038-1.39102-.65457-2.90738-.98648-4.50696-.98648h0Z"/><path class="cls-10" d="M110.55204,195.80657c-8.19287,0-15.72656-3.21387-21.21338-9.04883-6.66309-7.08545-9.94189-17.34033-9.23193-28.87549,1.29004-20.96631,17.30273-33.79785,25.5918-33.79785.71777,0,1.38672.09619,1.98877.28613,5.97314,1.88672,5.98486,7.38818,6.00049,15.00195.00488,2.2876.01025,4.88037.16699,7.70703.55322,9.94775,4.77734,13.33301,5.37549,13.76367l5.28564,2.27637c.72412.31201,1.14746,1.07227,1.03076,1.85205l-4.06299,27.1709c-.10107.6748-.58789,1.22803-1.24414,1.41406l-7.54834,2.13916c-.12402.03516-.25195.05664-.38086.06348-.59033.03174-1.17871.04736-1.7583.04736Z"/><path class="cls-3" d="M105.69807,125.82111c.53831-.00011,1.02927.0679,1.46613.20586,6.27856,1.98271,4.29585,9.25262,4.95676,21.14882.66089,11.89621,6.27856,15.20071,6.27856,15.20071l5.42933,2.33836-4.0629,27.17056-7.54832,2.13953c-.55909.02995-1.1161.04485-1.66524.04485-17.62675,0-29.99412-15.25055-28.71226-36.08089,1.22985-19.98474,16.65981-32.16632,23.85793-32.1678M105.69936,122.34764v3.47346l-.00018-3.47346h-.00182c-8.86456.00183-25.97186,13.4539-27.32413,35.42792-.73959,12.01805,2.70532,22.73326,9.70013,30.17175,5.81895,6.18805,13.80216,9.59595,22.47903,9.59595.61096,0,1.23373-.01675,1.85102-.04984.25773-.01379.51311-.05627.76144-.12665l7.54832-2.13953c1.31289-.37213,2.28625-1.47855,2.48805-2.82814l4.0629-27.17056c.23318-1.55937-.6132-3.08018-2.06129-3.70386l-5.10171-2.19727c-.74222-.58928-4.03029-3.67262-4.51204-12.34431-.15447-2.78043-.15981-5.34883-.16454-7.61493-.01608-7.71864-.02995-14.38469-7.21436-16.65346-.77127-.24358-1.61606-.36708-2.51082-.36708h0Z"/><path class="cls-10" d="M197.24101,268.55412c-5.82324-.00098-11.95508-.34375-18.2251-1.02051-45.52832-4.91211-58.25293-29.40234-59.17676-31.30957-14.58545-24.69336-13.3833-56.76855,3.47998-92.76318,12.66064-27.0249,29.87598-47.04639,30.04834-47.24512.30664-.354.74316-.56934,1.21045-.59717,2.6416-.15625,5.45703-.23584,8.36816-.23584,25.91748,0,56.31299,6.19385,66.69531,10.63477,10.04443,4.29688,21.12402,9.84863,27.13818,18.44482,13.06836,18.67578,20.11328,45.76123,19.32861,74.31152-.6792,24.71729-9.07812,43.21875-24.96387,54.99121-13.2417,9.8125-31.37744,14.78906-53.90039,14.78906h-.00293Z"/><path class="cls-3" d="M162.94657,97.11954c25.61929,0,55.76549,6.11206,66.01173,10.49489,9.20428,3.93712,20.46481,9.36325,26.39867,17.84352,14.47665,20.68922,19.69144,48.64848,19.01511,73.2679-1.43573,52.26096-37.55211,68.0914-77.13184,68.0914-5.96878,0-12.01875-.36026-18.03787-1.0098-45.93259-4.95676-57.82881-30.40143-57.82881-30.40143-35.02772-59.1506,33.30707-138.05373,33.30707-138.05373,2.68022-.15875,5.44327-.23276,8.26595-.23276M162.94656,93.64604c-2.94525,0-5.79541.08038-8.47131.23885-.93462.05537-1.80734.48569-2.42027,1.19344-.71045.82031-17.54582,20.40317-30.30866,47.64578-7.54671,16.1086-12.05647,31.52841-13.404,45.83104-1.70271,18.07259,1.65131,34.3882,9.96906,48.49644,1.25919,2.53934,14.65234,27.2597,60.51836,32.20926,6.33246.68338,12.52666,1.02985,18.41052,1.02985,22.90582,0,41.3896-5.09064,54.93797-15.13055,16.33629-12.1059,24.9716-31.06104,25.66603-56.3389.79431-28.91469-6.36469-56.38042-19.64136-75.35466-6.26599-8.95497-17.60905-14.65297-27.87852-19.04572-5.60199-2.39629-16.07521-5.05804-28.0159-7.12025-13.64566-2.35669-27.62465-3.65457-39.36191-3.65457h0Z"/><path class="cls-3" d="M218.84936,179.99014c-1.27606,13.30776,1.76555,27.19128,9.86681,37.91414,3.05479,3.93752,6.9116,7.78684,11.46531,9.29206,6.33424,2.44074,12.75743-1.70465,15.61003-7.40966,5.08884-10.45776,4.23833-22.93253,1.44506-34.01534,5.32549,12.21645,7.27417,31.44546-3.27018,41.5732-14.20482,12.10684-29.37371-5.74305-33.74542-18.88803-3.17486-9.09945-3.734-19.16684-1.37162-28.46638h0Z"/><path class="cls-9" d="M143.18077,88.13504s3.36615-1.14587,4.79186-1.40267"/><path class="cls-3" d="M143.18076,88.13504c1.47237-1.10238,2.83287-2.23121,4.48397-3.11195.97572-.61163,2.29901-.31889,2.80873.74568.74508,1.40588-.69248,3.12062-2.19301,2.67277-1.6325-.30485-3.42015-.25897-5.09968-.30651h0Z"/><path class="cls-3" d="M153.27256,98.67652s42.48463-3.52784,75.68574,8.93791c0,0-21.83686-8.4283-33.55791-10.29687-11.72105-1.86857-20.38443-3.22754-25.82028-3.22754s-13.08001-.33974-13.08001-.33974l-3.22754,4.92624Z"/><path class="cls-3" d="M165.34367,117.95171c21.23572,0,47.27264,2.28133,75.9165,9.67329,0,0-3.95161,14.92819-19.31886,23.92902-6.02629,3.52969-11.98553,4.83127-17.63847,4.83127-8.76228,0-16.78929-3.12662-23.19455-5.92891-7.7057-3.37125-12.00821-6.86043-17.36906-6.86043-1.97011,0-4.08211.4707-6.55995,1.59164-8.50508,3.84753-19.99963,8.44276-24.66086,8.44276-.39201,0-.73491-.03241-1.02443-.10054,0,0-.01617.00037-.04736.00037-1.07007,0-19.99225-.41304-22.1254-29.63721,0,0,21.75874-5.94127,56.02245-5.94127M165.34367,114.47823c-34.33463,0-56.0306,5.81635-56.9374,6.06395-1.60193.43739-2.6702,1.94749-2.5493,3.60367,2.24476,30.75342,22.32574,32.72684,25.26284,32.84982.43198.07262.89336.10815,1.39861.10815,5.87048,0,18.86758-5.48309,26.0925-8.75153,1.93472-.87523,3.56429-1.28287,5.12831-1.28287,2.82321,0,5.55872,1.40666,9.34482,3.35359,1.91867.98665,4.09337,2.10492,6.63202,3.21561,7.38426,3.23059,15.47366,6.22014,24.58678,6.22014,6.856,0,13.38107-1.78572,19.39398-5.30754,16.41435-9.61412,20.74484-25.37132,20.92117-26.03738.23669-.89417.10698-1.84583-.36043-2.644-.46739-.7982-1.23383-1.377-2.12946-1.60812-25.15594-6.49185-50.98997-9.78349-76.78444-9.78349h0Z"/><path class="cls-3" d="M130.91708,223.34467s17.28453-2.08247,18.32577,36.4433l-6.87216-1.66598s4.3732-25.61443-11.45361-34.77732Z"/><path class="cls-3" d="M113.00781,149.2086s-9.37113,25.40618-3.9567,48.93814c0,0,1.66598-16.86804,4.99794-27.07216,3.33196-10.20412,5.20619-16.45155,5.20619-16.45155l-6.24742-5.41443Z"/><path class="cls-3" d="M257.14785,185.84283s8.86541,11.79614,6.91766,27.37816c-1.73636,13.89091-8.46396,18.33858-16.5066,19.21807-7.65843.83747-18.42873-3.14637-25.77026-20.37648,0,0,11.68651,19.17787,23.37303,17.23012s15.88167-13.48444,15.58202-24.72147c-.29965-11.23703-3.59585-18.72839-3.59585-18.72839Z"/><path class="cls-3" d="M252.80951,109.59298s6.13392,4.01064,9.43681,8.96496l-4.7184,5.42616-9.20089-9.90865,4.48248-4.48248Z"/><path class="cls-3" d="M238.93676,123.52943s3.47451.66818,5.14495,1.33635c1.67044.66818,3.74178,1.87089,3.20724,4.27632l-3.20724.26727-5.14495-5.87994Z"/><path class="cls-3" d="M278.43462,181.35518s8.83938,42.72365-6.48221,67.47391l-23.57167,7.95544s33.00034-20.03592,26.51813-76.31329l3.53575.88394Z"/><path class="cls-3" d="M238.02137,238.07784s15.31612.42545,12.33799,15.52884l-8.29623,6.59444s10.21075-16.16702-4.04175-22.12329Z"/><path class="cls-3" d="M146.89346,87.15962s-5.08895,10.46869-2.90797,19.19259l6.25213-6.25213s-1.89018-10.90488-.87239-13.66745-2.47177.72699-2.47177.72699Z"/><path class="cls-3" d="M139.91433,89.0498s5.96134-5.37974,14.10365-5.67054l-3.78036,2.76257-2.47177,2.47177-7.85152.4362Z"/><path class="cls-12" d="M116.83146,152.40231c-.11482-2.07101-.44591-4.78254-1.35915-6.47844-1.63936-3.04458-5.62073-23.65414-5.62073-23.65414l-3.98145,2.81036s-11.10621,5.51918-7.19311,20.1933c1.57799,5.91744,6.18826,9.75952,9.86241,10.05966-5.7202,13.01838-8.28442,35.30742.88853,43.02014,0,0,1.66598-16.86808,4.99793-27.07218,3.33196-10.20417,5.20616-16.45155,5.20616-16.45155l-2.8006-2.42714Z"/><path class="cls-12" d="M219.94478,93.19145s13.06303-1.00072,12.2711-10.32819c-.79193-9.32747-16.35914-18.64493-16.35914-18.64493,0,0,58.25236,14.28992,42.92786,62.65788,0,0-36.12573-32.77377-38.83983-33.68477Z"/><path class="cls-12" d="M279.42499,181.46712s7.18454,42.30894-2.39485,64.92692l-28.27259,10.59691s33.00034-20.03592,26.51813-76.31329l4.1493.78945Z"/><path class="cls-12" d="M274.52285,166.97121c-5.09021-31.05054-25.81903-52.68933-25.81903-52.68933-31.92731-21.63873-106.097-16.15429-106.097-16.15429,9.82514,0-1.80149,2.58653,7.00289,2.54651,46.68594-.21221,73.50158,11.32238,73.50158,11.32238,0,0,10.16534,11.22949,16.44434,30.11353-3.12512,3.44983-10.6189,10.75763-20.35419,13.73792-12.95569,3.966-28.42328-.26447-28.42328-.26447,0,0-4.36273,7.66772-11.76599,12.03033-7.40326,4.36267-14.80652,7.27112-14.80652,7.27112,0,0,8.82599,1.98413,18.37604-3.17291,6.60999-3.5694,8.72522-6.47778,8.72522-6.47778,0,0,13.19196,4.01727,31.54242.78558,7.64886-1.34698,20.02427-8.78905,22.90819-11.92162-.32952.35793,2.68007,6.72006,2.99162,7.55398,1.07769,2.88466,2.08486,5.79658,2.98033,8.7432,1.80664,5.94487,3.19855,12.0569,3.67775,18.26284.73574,9.52833-.49183,26.85072-11.87863,29.72729-7.23072,1.82664-15.9473-2.12667-20.01166-8.22322,0,0,4.14795,11.80341,11.90027,17.02637-14.00651,22.70986-53.45972,23.82846-80.98231,22.25501-6.21449-22.58436-13.97298-24.2048-19.09818-24.85795-9.81844-1.25127-11.84046,22.20596-11.84046,22.20596,53.95673,35.63184,114.21011,21.83429,138.80999-3.4666,15.56467-16.0082,17.30688-45.30328,12.21661-76.35382Z"/><path class="cls-9" d="M125.40556,274.3969c-1.16309,0-2.37842-.12305-3.61279-.36719-13.36816-2.64258-26.01221-10.87598-32.2124-20.97363-3.44531-5.61133-4.61963-10.83594-3.30664-14.71387.7207-2.12842,2.19922-3.7168,4.16309-4.47217.65283-.25098,1.36914-.37842,2.12891-.37842,2.33936,0,4.85059,1.22119,6.84375,2.50439-.28223-3.49219.27295-7.95947,4.40283-9.78076,1.12695-.49756,2.31982-.74951,3.54443-.74951,4.75439,0,9.33398,3.8125,12.53711,7.94873,1.23584-3.12012,3.74902-7.23486,8.60107-8.36328.54346-.12646,1.09521-.19043,1.64062-.19043,2.20703,0,4.34717,1.04102,6.18848,3.01025,4.46045,4.77051,6.79541,14.21729,6.09375,24.65479-.90674,13.49023-7.4248,21.87012-17.01074,21.87109h-.00146Z"/><path class="cls-3" d="M130.13508,226.59731c6.33849,0,11.52368,11.32593,10.54979,25.81259-.79655,11.84882-6.1274,20.25073-15.27829,20.25073-1.04345,0-2.1353-.10904-3.27707-.33475-13.773-2.72256-25.46402-11.05042-31.06931-20.17905-5.31396-8.65411-4.16393-15.0542,0-16.6557.47296-.18192.97967-.26263,1.50514-.26263,4.10072,0,9.38513,4.90701,9.38513,4.90701,0,0-3.15734-9.80869,2.56242-12.33163.941-.41507,1.89399-.60162,2.84396-.60165,5.33609-.00015,10.58424,5.88467,13.17114,10.21072,0,0,1.47377-9.06888,8.36026-10.67041.41948-.09753.83567-.14523,1.24682-.14523M130.13508,223.12383c-.67738,0-1.36159.07925-2.03362.23553-4.29549.99896-6.97502,3.98553-8.61282,6.89737-.72709-.79208-1.47711-1.52927-2.22963-2.18686-3.2964-2.88055-6.62788-4.34113-9.90191-4.34113-1.46808.00009-2.8966.30188-4.246.89709-3.66735,1.61765-5.12125,4.94781-5.44102,8.41629-1.61847-.75134-3.37807-1.28711-5.10474-1.28711-.97356,0-1.89946.16626-2.75201.49414-2.45417.94391-4.29548,2.91016-5.18474,5.53656-1.48125,4.37479-.24834,10.12048,3.47163,16.17865,6.54174,10.65372,19.3229,18.99512,33.35571,21.76904,1.34503.26587,2.67422.4007,3.95066.4007,10.58756,0,17.76981-9.00131,18.74392-23.49124.73288-10.90137-1.78-20.84784-6.55798-25.95782-2.17841-2.32977-4.75714-3.56122-7.45744-3.56122h0Z"/><path class="cls-12" d="M111.49405,271.68773s16.18852-.96648,20.53767-16.18852c4.34915-15.22204-.72486-27.30303-6.28211-28.51112,0,0,7.00697-3.86592,11.83937,4.34915,4.83239,8.21507,7.24859,26.57817-.96648,36.96781-8.21507,10.38965-22.71225,7.24859-25.12845,3.38268Z"/><path class="cls-12" d="M101.4104,231.79919s1.11399-3.34197,5.8175-2.84686c4.70351.49511,13.12031,10.39723,13.12031,10.39723l.49511-2.47553s-3.7133-6.68393-7.42659-8.78814-11.01611-2.59931-12.00633,3.7133Z"/><path class="cls-12" d="M87.29987,240.46355s.86644-4.08463,5.69372-3.21819,9.53079,4.2084,9.53079,4.2084l-.61888-2.72308s-3.83707-5.8175-7.79792-5.32239c-3.96085.49511-7.05526,2.47553-6.80771,7.05526Z"/><path class="cls-9" d="M282.41515,196.83634s5.14066-5.52615,6.20202-6.51212"/><path class="cls-3" d="M282.41514,196.83635l5.01999-7.78455c1.30515-1.95044,4.24039-.05895,3.00148,1.93564.09111.26755-7.72915,5.5701-8.02147,5.84891h0Z"/><path class="cls-7" d="M232.61405,112.57073c-.85205,0-1.61768-.17969-2.27588-.53418-2.36572-1.27441-2.36572-4.39111-2.36572-6.66699,0-1.40527-.06299-3.71826-.09375-4.76318-.7124-.95801-2.39697-3.22021-3.00195-3.99854-1.40283-1.80322-2.05029-3.48779-1.92432-5.00732.18994-2.27246,2.31689-3.67773,4.21289-4.02246.92041-.16748,3.65674-.64795,4.97754-.87939.51514-.74951,1.45312-2.06299,2.59863-3.4375,1.24756-1.49756,2.59473-1.81201,3.50488-1.81201,1.40039,0,2.78369.75244,3.70068,2.01367.74072,1.01758,3.16357,4.40723,3.98096,5.55078.74365.33691,2.32764,1.05713,3.73047,1.7168,1.16064.54688,2.00195,1.58398,2.43262,3,.375,1.23096.4541,2.97705-.11914,3.93262-.25977.43359-1.6665,2.82227-2.27734,3.86084.07178.77832.20361,2.17627.28076,2.87207.36865,3.32715.21777,5.20898-.50488,6.29248-.9248,1.38818-2.75781,1.59521-3.76807,1.59521-1.00439,0-1.98779-.20361-2.69775-.55859-.76221-.38086-2.52051-1.20557-3.50244-1.66406-.8374.35986-2.03223.89746-2.64502,1.26514-1.00195.60156-2.64307,1.24463-4.24316,1.24463h0Z"/><path class="cls-3" d="M238.24639,83.1859c.9415,0,1.78419.59424,2.29643,1.29855.89348,1.22855,4.24402,5.9193,4.24402,5.9193,0,0,2.2337,1.00517,4.13234,1.89865s1.89864,3.90897,1.56358,4.46739-2.56874,4.35571-2.56874,4.35571c0,0,.22336,2.45706.33505,3.46223.11168,1.00516.44673,4.13234-.22337,5.1375-.38397.57596-1.35439.82184-2.32346.82184-.72215,0-1.44366-.13666-1.92056-.37511-1.11685-.55841-4.24403-2.01031-4.24403-2.01031,0,0-2.45706,1.00516-3.57391,1.67526-.78474.47086-2.12082.99681-3.3497.99681-.52008,0-1.021-.09422-1.45274-.32669-1.4519-.7818-1.4519-3.23886-1.4519-5.13751s-.11169-5.36087-.11169-5.36087c0,0-2.56874-3.46223-3.35054-4.46739-.7818-1.00517-1.67528-2.45706-1.56358-3.79729.11168-1.34023,1.56358-2.2337,2.79211-2.45706,1.22853-.22337,5.69594-1.00517,5.69594-1.00517,0,0,1.22853-1.89864,2.90379-3.90897.71484-.8578,1.47025-1.18687,2.17097-1.18687M238.24639,79.71243c-1.81126,0-3.52992.86536-4.83936,2.43668-.92036,1.10445-1.71349,2.17393-2.27409,2.96358-1.42401.24994-3.49968.61516-4.27863.75679-2.52673.45938-5.36702,2.40341-5.63222,5.58607-.16397,1.96732.60423,4.05945,2.28326,6.21822.50978.65541,1.84465,2.44423,2.65279,3.53008.03244,1.15967.07776,2.99074.07776,4.16568,0,2.40506,0,6.4304,3.27861,8.1958.91422.49226,1.95705.74188,3.09952.74188,2.45935,0,4.55354-1.14186,5.13681-1.49184.35742-.21445,1.03909-.53969,1.72748-.84813.96077.45035,2.16312,1.01807,2.75002,1.31149,1.2908.64545,2.73058.74182,3.47391.74182,2.34372,0,4.19528-.84117,5.21355-2.36856.98206-1.4731,1.20961-3.63087.78551-7.44785-.0592-.53278-.15314-1.5126-.22534-2.28287.68163-1.158,1.76109-2.99075,1.98529-3.36443.93724-1.56204.74307-3.8481.29202-5.3311-.56935-1.87193-1.76089-3.31601-3.3551-4.06622-1.19232-.56108-2.4971-1.15758-3.32832-1.5352-.98975-1.38454-3.04593-4.2589-3.71788-5.18285-1.24284-1.70886-3.15144-2.72905-5.10558-2.72905h0Z"/><path class="cls-3" d="M251.83542,116.34491s2.1905-2.1905,2.02824-6.49036-1.05468-8.68086-1.05468-8.68086c0,0,2.02824-2.51501,1.86598-4.86777-.16226-2.35276-1.62259-4.05648-1.62259-4.05648,0,0,.73017,3.24518-.32452,5.11116s-2.67727,3.65083-2.67727,3.65083c0,0,1.05468,4.21873.24339,6.73375s-2.7584,4.29986-2.51501,4.46212,4.05648,4.1376,4.05648,4.1376Z"/><path class="cls-1" d="M228.87577,98.82094l10.22232-15.49573s1.13581.64904,1.70372,1.46033,2.1905,3.16405,2.1905,3.16405l-13.22411,19.87673-.1705-7.81766-.72193-1.18771Z"/><path class="cls-8" d="M204.30302,158.122c-8.79346,0-16.6792-2.91943-23.89111-6.07422-2.48877-1.08887-4.6377-2.19434-6.53369-3.16943-4.00293-2.05811-6.89551-3.5459-10.13916-3.5459-1.79443,0-3.70605.47021-5.84375,1.4375-5.71387,2.58496-19.625,8.59717-25.37646,8.59717-.45703,0-.86182-.03467-1.23047-.10596-2.53223-.08643-21.54492-1.7251-23.69922-31.2417-.06055-.82812.47363-1.58301,1.27441-1.80176.21973-.06006,22.37842-6.00293,56.48047-6.00293,25.64795,0,51.33594,3.27344,76.3501,9.72852.44775.11572.83105.40479,1.06445.8042.23389.39893.29883.875.18018,1.32178-.16846.6377-4.31641,15.72705-20.11963,24.9834-5.74316,3.36377-11.97266,5.06934-18.51611,5.06934Z"/><path class="cls-3" d="M165.34367,117.95171c21.23572,0,47.27264,2.28133,75.9165,9.67329,0,0-3.95161,14.92819-19.31886,23.92902-6.02629,3.52969-11.98553,4.83127-17.63847,4.83127-8.76228,0-16.78929-3.12662-23.19455-5.92891-7.7057-3.37125-12.00821-6.86043-17.36906-6.86043-1.97011,0-4.08211.4707-6.55995,1.59164-8.50508,3.84753-19.99963,8.44276-24.66086,8.44276-.39201,0-.73491-.03241-1.02443-.10054,0,0-.01617.00037-.04736.00037-1.07007,0-19.99225-.41304-22.1254-29.63721,0,0,21.75874-5.94127,56.02245-5.94127M165.34367,114.47823c-34.33463,0-56.0306,5.81635-56.9374,6.06395-1.60193.43739-2.6702,1.94749-2.5493,3.60367,2.24476,30.75342,22.32574,32.72684,25.26284,32.84982.43198.07262.89336.10815,1.39861.10815,5.87048,0,18.86758-5.48309,26.0925-8.75153,1.93472-.87523,3.56429-1.28287,5.12831-1.28287,2.82321,0,5.55872,1.40666,9.34482,3.35359,1.91867.98665,4.09337,2.10492,6.63202,3.21561,7.38426,3.23059,15.47366,6.22014,24.58678,6.22014,6.856,0,13.38107-1.78572,19.39398-5.30754,16.41435-9.61412,20.74484-25.37132,20.92117-26.03738.23669-.89417.10698-1.84583-.36043-2.644-.46739-.7982-1.23383-1.377-2.12946-1.60812-25.15594-6.49185-50.98997-9.78349-76.78444-9.78349h0Z"/><path class="cls-6" d="M181.45041,148.7771l17.34306-29.1978s14.05007,1.09766,19.53838,2.63439l-18.44072,34.24705s-12.51334-2.19532-18.44072-7.68363Z"/><path class="cls-6" d="M127.3303,152.70603l18.4851-33.57192s15.15745-.75721,20.9934-.75721l-18.70938,34.15749s-15.7914,2.91798-20.76913.17165Z"/><path class="cls-3" d="M168.01145,119.06874c21.23572,0,47.27264,2.28133,75.91649,9.67329,0,0-3.95161,14.92819-19.31886,23.92902-6.02629,3.52969-11.98553,4.83127-17.63847,4.83127-8.76228,0-16.78929-3.12662-23.19455-5.92891-7.7057-3.37125-12.00821-6.86043-17.36905-6.86043-1.97011,0-4.08211.4707-6.55997,1.59164-8.50508,3.84753-19.9996,8.44276-24.66083,8.44276-.39201,0-.73494-.03241-1.02446-.10054,0,0-.01617.00037-.04736.00037-1.07007,0-19.99225-.41304-22.1254-29.63721,0,0,21.75875-5.94127,56.02247-5.94127M168.01145,115.59526c-34.33464,0-56.03062,5.81635-56.93742,6.06395-1.60193.43739-2.6702,1.94749-2.5493,3.60367,2.24476,30.75342,22.32575,32.72684,25.26284,32.84982.43198.07262.89336.10815,1.39864.10815,5.87045,0,18.86755-5.48309,26.09247-8.75153,1.93472-.87523,3.5643-1.28287,5.12833-1.28287,2.82323,0,5.55873,1.40666,9.34477,3.35356,1.9187.98666,4.0934,2.10495,6.63205,3.21564,7.38426,3.23059,15.47366,6.22014,24.58678,6.22014,6.856,0,13.38107-1.78572,19.39398-5.30754,16.41435-9.61412,20.74484-25.37132,20.92117-26.03738.23669-.89417.10698-1.84583-.36043-2.644-.46739-.7982-1.23383-1.377-2.12946-1.60812-25.15591-6.49185-50.98994-9.78349-76.78442-9.78349h0Z"/><path class="cls-9" d="M165.16825,173.15422c-4.75,0-9.71582-1.96191-16.10254-6.36133-6.78027-4.67041-10.74268-5.65967-11.69092-5.84131-.56689.11377-1.73242.31201-2.97949.31201h-.00049c-2.0083,0-3.5127-.50879-4.47119-1.51172-.52881-.55322-1.14453-1.53662-1.07422-3.07812.18213-4.01074,3.86328-7.18604,10.94189-9.4375.46777-.14893.94531-.29541,1.43408-.4458,3.78076-1.16016,8.06641-2.4751,13.97852-6.78955,2.37256-1.73145,4.85352-2.60889,7.37402-2.60889,4.2251,0,7.7998,2.38037,10.9541,4.48096.35547.23633.70703.4707,1.0542.69775,3.80664,2.48877,8.25537,4.89307,9.88037,5.75391,1.06738-.32324,3.0957-.8584,4.83008-.8584,2.521,0,3.51855,1.12402,3.91162,2.06689,1.68555,4.04443-11.23389,16.34961-18.29004,20.67969-3.22607,1.97949-6.41504,2.94141-9.75,2.94141Z"/><path class="cls-3" d="M162.5779,139.12843c4.14272,0,7.77124,2.74677,11.05798,4.8958,4.8667,3.18207,10.6693,6.17697,10.6693,6.17697,0,0,2.82851-.99835,4.9915-.99829,1.08141.00003,1.99663.24962,2.30858.99829.9359,2.24617-9.35905,13.47702-17.59502,18.53091-3.04073,1.86591-5.95274,2.68549-8.84195,2.68549-4.93634,0-9.80389-2.39447-15.1172-6.05475-8.42314-5.80261-12.7283-6.17697-12.7283-6.17697,0,0-1.40242.34114-2.9281.34114-1.86464,0-3.91336-.50964-3.81042-2.77449.18719-4.11798,5.61545-6.55133,9.73341-7.8616,4.11798-1.31026,8.98468-2.43335,15.91037-7.48723,2.24841-1.64073,4.35844-2.27527,6.34985-2.27527M162.5779,135.65497c-2.89607,0-5.72136.99013-8.39737,2.9429-5.67757,4.14308-9.81509,5.41258-13.46556,6.53264-.49442.15169-.97725.2999-1.45047.45045-7.84346,2.49567-11.93137,6.20125-12.15012,11.01385-.09795,2.15486.79069,3.55865,1.55341,4.35681,1.29912,1.35953,3.22594,2.04886,5.7269,2.04886,1.16878,0,2.25667-.15128,2.95961-.27718,1.16364.28064,4.7861,1.40784,10.72627,5.49997,4.50639,3.1044,10.52115,6.66779,17.08772,6.66779,3.66483,0,7.15129-1.04622,10.65863-3.19843,4.03267-2.47461,8.87558-6.55078,12.9548-10.90376,6.6907-7.13976,6.8521-9.95015,6.02982-11.92363-.48796-1.17108-1.85326-3.1357-5.51476-3.13582-1.62143-.00003-3.40369.39288-4.63574.73048-1.93074-1.03574-5.78442-3.1591-9.12431-5.34286-.34366-.22472-.69113-.45615-1.04266-.69022-3.19266-2.12599-7.16605-4.77187-11.91617-4.77187h0Z"/><path class="cls-9" d="M180.70839,151.20799s3.04693-1.83307,4.38587-2.38613"/><path class="cls-3" d="M180.7084,151.20798c1.20537-1.3893,2.29579-2.78077,3.72279-3.99135.82398-.80448,2.17924-.79875,2.90295.13364,1.02605,1.21608-.01556,3.19648-1.57692,3.07675-1.66001.04795-3.39736.47158-5.04882.78096h0Z"/><path class="cls-9" d="M180.38306,151.40717s4.26101-1.80947,7.29625-2.3348c3.03524-.52533,5.72026.05837.46696,3.61894-5.2533,3.56057-8.40528.11674-7.76321-1.28414Z"/><path class="cls-12" d="M192.79763,151.25126s-4.17279,8.56519-12.73798,15.70286c-8.56519,7.13766-15.48323,8.01614-21.96204,4.2826s-11.20064-7.35728-14.49494-8.34557c-3.29431-.98829-8.23576-1.86677-8.23576-1.86677,0,0,1.75696-3.07468,9.44368-4.17279s9.77311-.10981,18.00887,1.42753,15.70286,1.64715,20.64431-.87848,9.55349-7.90633,9.55349-7.90633l-.21962,1.75696Z"/><path class="cls-9" d="M214.04374,277.0258c-1.4834,0-2.94629-.16699-4.34814-.49707-7.33691-1.72656-12.97998-7.44531-16.42188-11.93945-4.04736-5.28418-7.30566-11.87109-8.71582-17.61816-.91504-3.72754-1.43701-8.66309,1.27051-11.00146,1.61914-1.39795,3.67285-2.10693,6.10498-2.10693,3.87744,0,7.87988,1.8374,10.04053,3.01123,2.05469-3.48242,7.44043-11.28467,14.44873-11.28467.15625,0,.31494.00391.47266.01221,8.88135.44336,12.13965,10.58691,13.16504,15.20166,1.61621-.59668,3.97119-1.26562,6.39697-1.26562,4.71777,0,8.04883,2.5625,9.37842,7.2168.98633,3.45215-.90283,8.68555-5.18213,14.35938-5.53711,7.33984-15.82812,15.91211-26.60986,15.91211Z"/><path class="cls-3" d="M216.42287,227.32604c.12766,0,.25691.0032.38556.00964,9.9482.49741,11.93782,15.91708,11.93782,15.91708,0,0,3.80519-1.97906,7.71126-1.97882,3.15451.00018,6.37503,1.29126,7.70844,5.9581,2.14474,7.50659-14.28267,28.05707-30.12228,28.05707-1.32416,0-2.64552-.14383-3.95026-.45084-16.91193-3.97928-28.71954-32.72668-23.12953-37.55441,1.42432-1.23007,3.16798-1.68494,4.96948-1.68478,5.11899.0004,10.69891,3.67441,10.69891,3.67441,0,0,5.93547-11.94745,13.7906-11.94745M216.42287,223.85259c-4.3437,0-8.55591,2.43451-12.51962,7.23587-1.01155,1.22534-1.87248,2.44897-2.55659,3.50607-2.42828-1.16827-5.91643-2.46863-9.41301-2.46893-2.86049-.00021-5.2964.85083-7.2401,2.52945-2.66992,2.30585-3.30003,6.70792-1.8222,12.73029,2.6619,10.84772,12.62056,27.58563,26.4265,30.83408,1.53171.36041,3.12845.54315,4.74582.54315,11.42024,0,22.21916-8.94437,27.99667-16.60379,2.18134-2.89188,7.08049-10.22827,5.46542-15.88095-1.5392-5.38715-5.56606-8.47702-11.04803-8.47736-1.86273-.00009-3.66084.34546-5.1747.77402-1.52942-5.45395-5.37312-14.26154-14.30112-14.70795-.18652-.00934-.37395-.01395-.55904-.01395h0Z"/><path class="cls-12" d="M194.05189,264.12883s13.40456,11.21033,29.11519,1.53238c22.34326-13.76374,14.81299-25.53964,14.81299-25.53964,0,0,10.47125,1.02159,8.93887,10.72665s-12.51442,19.92092-21.70869,24.00726c-9.19427,4.08634-25.53964,3.83095-31.15836-10.72665Z"/><path class="cls-12" d="M212.39563,227.33633s13.73896-.64654,13.57733,17.6182l5.49558-2.74779-1.29308-3.55597s-1.13144-8.08174-6.62703-11.31444c-5.49558-3.2327-11.1528,0-11.1528,0Z"/><path class="cls-12" d="M185.72588,240.42875s1.29308-3.2327,5.17231-3.2327,11.1528,4.52578,11.1528,4.52578c0,0,1.13144-2.58616,1.45471-3.55597s-1.45471-3.39433-6.46539-3.7176-10.50626-1.13144-11.31444,5.98049Z"/><path class="cls-2" d="M236.81907,110.21814l13.23675-18.35663s1.74825,3.12188,1.24875,5.4945-.62438,7.74225-.62438,7.74225l-.74925,7.74225-7.61738-1.87313-5.4945-.74925Z"/><path class="cls-13" d="M137.32279,159.18589s8.98468-4.8667,21.90017-1.68463c12.91548,3.18208,25.08225,2.43335,32.3823-7.30006"/><path class="cls-3" d="M136.07116,104.8072l10.06256-11.32038s4.19833,6.07368,3.82,6.07368-8.44945,11.85445-8.82778,11.85445-5.05477-6.60775-5.05477-6.60775Z"/></g></g></svg>