<?xml version="1.0" encoding="UTF-8"?><svg xmlns="http://www.w3.org/2000/svg" width="13.2689cm" height="12.48661cm" viewBox="0 0 376.12629 353.95127"><defs><style>.cls-1{fill:#a54137;}.cls-1,.cls-2,.cls-3{stroke-width:2.03119px;}.cls-1,.cls-2,.cls-3,.cls-4,.cls-5,.cls-6{stroke:#000;stroke-linecap:round;stroke-linejoin:round;}.cls-2{fill:#d65641;}.cls-3{fill:#f2de89;}.cls-7{stroke:#201d1e;stroke-miterlimit:10;}.cls-7,.cls-4,.cls-5,.cls-6{fill:none;}.cls-4{stroke-width:1.73673px;}.cls-5{stroke-width:3.47347px;}.cls-6{stroke-width:3.53305px;}.cls-8,.cls-9,.cls-10,.cls-11,.cls-12,.cls-13,.cls-14,.cls-15,.cls-16{stroke-width:0px;}.cls-17{isolation:isolate;}.cls-9{mix-blend-mode:multiply;opacity:.42;}.cls-10{fill:#777;}.cls-11{fill:#5e5e5e;}.cls-12{fill:#dde3f6;}.cls-13{fill:#cfcfcf;}.cls-14{fill:#969696;}.cls-15{fill:#999;}.cls-16{fill:#fff;}</style></defs><g class="cls-17"><g id="Layer_7"><polygon class="cls-1" points="170.01869 247.11662 156.6276 295.9267 166.77833 294.66641 175.02289 308.84858 198.80656 225.3204 170.01869 247.11662"/><polygon class="cls-11" points="87.62221 216.29594 99.6419 206.57361 158.24978 279.03034 145.89151 289.02654 87.62221 216.29594"/><polygon class="cls-10" points="90.80405 219.88342 82.11065 234.75672 127.0251 290.2843 142.39593 284.01251 90.80405 219.88342"/><path class="cls-10" d="M88.20672,261.81553l14.01023,17.3208s-2.56693,4.30489-7.81702,5.68619-6.9907,1.19738-6.9907,1.19738l-9.1477-11.70287s-.5182-10.08702,9.94519-12.50151Z"/><polygon class="cls-11" points="89.46003 243.29147 121.06089 282.3595 105.33887 284.57035 82.95928 256.50894 89.46003 243.29147"/><polygon class="cls-15" points="78.26153 274.31704 88.24366 286.65793 74.78457 297.54455 73.36944 277.55229 78.26153 274.31704"/><polygon class="cls-10" points="58.81252 290.12453 73.74875 276.04905 74.78457 297.54455 60.1248 309.00355 58.81252 290.12453"/><polygon class="cls-15" points="58.50956 289.01622 60.1248 309.00355 56.37077 311.66268 46.25588 299.15767 58.50956 289.01622"/><path class="cls-11" d="M38.70439,300.40996s1.8547-2.90047,4.64309-2.91548,3.78679,2.258,3.78679,2.258l9.23651,11.9102s1.79796,3.80905.07269,5.48462-3.2564,1.51378-3.2564,1.51378l-14.48268-18.25112Z"/><path class="cls-15" d="M38.70439,300.40996l14.48268,18.25112s-5.31275,4.85741-11.36504,4.99202c-6.05229.1346-18.09734-7.48585-3.11764-23.24313Z"/><ellipse class="cls-16" cx="37.51093" cy="312.43741" rx="3.91932" ry="2.50401" transform="translate(-267.99356 236.99727) rotate(-69.28298)"/><polygon class="cls-14" points="108.05055 215.22266 323.12922 41.72518 319.9502 101.48439 135.1559 250.48584 108.05055 215.22266"/><polyline class="cls-13" points="135.1559 250.48584 319.9502 101.48439 342.45552 114.10399 151.23401 269.73196 136.28937 251.25596"/><polygon class="cls-12" points="322.52952 42.82689 319.9502 101.48439 342.45552 114.10399 344.23627 24.79144 322.52952 42.82689"/><polyline class="cls-6" points="107.57169 215.66183 345.16395 23.48121 341.61311 114.68118 150.90117 268.94185"/><path class="cls-5" d="M134.62364,249.87682l-35.35898-43.71419-13.0675,10.56988,3.64386,4.5049-8.85567,13.51132,7.01781,8.6761-5.66034,13.13481,4.45361,5.50599s-8.91259,3.06894-9.30497,11.11463l-31.15313,25.19875s-5.01054-3.12343-8.46766,2.15703c0,0-12.07684,10.32058-4.98785,19.76714"/><path class="cls-5" d="M122.91301,235.399l35.35898,43.71419-13.0675,10.56988-3.64386-4.5049-15.06374,5.83631-7.01781-8.6761-14.02773,2.79023-4.45361-5.50599s-4.86385,8.07438-12.81388,6.77658l-31.15313,25.19875s2.00727,5.55267-3.87909,7.82986c0,0-12.61667,9.65319-20.37305.74646"/><polyline class="cls-4" points="136.23253 249.67187 319.57726 101.37031 341.61311 114.68118"/><line class="cls-4" x1="319.57726" y1="101.37031" x2="322.75092" y2="43.76406"/><line class="cls-4" x1="86.67231" y1="215.52801" x2="145.13096" y2="287.80024"/><line class="cls-4" x1="81.4162" y1="233.99114" x2="126.98035" y2="290.32195"/><line class="cls-4" x1="82.77121" y1="255.50417" x2="106.45161" y2="284.78016"/><line class="cls-4" x1="77.58688" y1="273.74856" x2="87.63907" y2="286.17605"/><line class="cls-4" x1="46.06581" y1="299.24493" x2="56.118" y2="311.67241"/><line class="cls-4" x1="38.67181" y1="300.8919" x2="52.92896" y2="318.51797"/><line class="cls-4" x1="73.34118" y1="277.18276" x2="74.14847" y2="297.08816"/><line class="cls-4" x1="58.54558" y1="289.15045" x2="59.35286" y2="309.05584"/><polygon class="cls-2" points="213.23856 227.55447 193.97632 136.62562 210.70135 123.09729 229.03431 214.7778 213.23856 227.55447"/><polygon class="cls-2" points="137.79791 182.22023 165.57074 159.7557 201.43924 238.65119 173.28226 261.42645 137.79791 182.22023"/><line class="cls-3" x1="153.32638" y1="170.18214" x2="185.29382" y2="251.32253"/><polygon class="cls-8" points="163.29687 192.94364 188.95695 248.47425 185.62973 252.13233 163.29687 192.94364"/><polygon class="cls-8" points="213.23856 227.55447 204.77226 225.65605 211.87187 219.14029 213.23856 227.55447"/><polygon class="cls-8" points="193.97632 136.62562 188.0277 149.51776 196.07236 144.17038 193.97632 136.62562"/><polygon class="cls-8" points="137.79791 182.22023 134.61561 193.88074 141.53656 189.05574 137.79791 182.22023"/><polygon class="cls-8" points="173.28226 261.42645 164.58001 258.16625 170.70025 252.82923 173.28226 261.42645"/><path class="cls-9" d="M32.54749,318.88167s10.31598,2.34937,15.63267-5.83931l-1.01285-2.66462s4.62538,1.53133,6.27716-2.14614l30.94067-25.604s7.40418-1.6151,9.11461-5.58899l-6.54946-15.15715,9.80064,11.18012,10.01015-2.33153-6.42587-12.66849,17.22679,20.35025,10.66164-2.51063-6.61125-16.40148,15.14559,16.85816,13.91596-4.94692-7.37064-11.00729,16.97862-14.19768-19.43573-57.44235,28.87187,64.23799-17.80607,15.26604,6.42273,11.12774-13.37236,9.98289-4.09748-4.19909-14.32969,5.4811-7.3057-8.22222-14.27731,2.10318-3.50778-5.62253s-1.47267,4.32896-6.09177,5.87913c-4.6191,1.55017-7.81791,2.14928-7.81791,2.14928l-28.75157,23.881s-.8767,5.98702-4.07236,8.12688-9.05596,5.29257-10.65536,5.59213-9.95463.49436-11.50793-5.66549Z"/><polygon class="cls-9" points="189.22721 257.43076 160.03914 284.56295 167.99908 255.42396 173.37777 261.50286 193.54341 245.12166 189.22721 257.43076"/><polygon class="cls-9" points="195.04837 155.15758 201.13568 213.08923 193.4923 220.0388 197.19034 229.85945 211.82061 219.27791 195.13578 138.87759 195.04837 155.15758"/><polygon class="cls-9" points="224.91732 195.85653 331.46314 108.81378 343.95781 26.66573 342.14168 111.86709 228.07504 206.82389 224.91732 195.85653"/><polygon class="cls-9" points="166.48233 246.10468 194.16312 223.09996 201.47103 237.64164 173.37777 261.50286 166.48233 246.10468"/><polygon class="cls-9" points="211.34841 215.04721 225.97823 201.9036 229.25146 212.86183 213.30104 226.88973 211.34841 215.04721"/><line class="cls-7" x1="270.28227" y1="145.61665" x2="277.49778" y2="164.25671"/><line class="cls-7" x1="273.28873" y1="137.79985" x2="288.32104" y2="156.43991"/><line class="cls-7" x1="286.51716" y1="141.4076" x2="296.13784" y2="151.02828"/><line class="cls-7" x1="316.58177" y1="103.5262" x2="325.60116" y2="113.74816"/></g></g></svg>