<svg width="502" height="472" viewBox="0 0 502 472" fill="none" xmlns="http://www.w3.org/2000/svg">
<path d="M103.373 254.475C103.373 254.475 103.273 285.224 118.237 304.703C118.237 304.703 119.611 310.034 121.647 316.142C123.683 322.25 144.749 365.812 157.474 373.956C157.474 373.956 174.071 376.895 176.107 375.368C178.143 373.841 178.654 357.37 178.654 357.37C178.654 357.37 183.235 377.73 190.87 384.856C190.87 384.856 204.613 386.892 209.194 386.383C209.194 386.383 217.847 373.149 221.41 364.496L226.499 360.933L227.008 379.766C227.008 379.766 245.841 381.802 250.422 381.293C255.003 380.784 303.357 367.55 326.262 341.083L328.298 335.993C328.298 335.993 360.926 318.331 377.668 284.846C377.668 284.846 388.868 280.004 393.958 273.896C399.048 267.788 407.7 258.626 409.736 243.865C411.772 229.104 411.263 188.385 403.119 181.768C394.976 175.151 376.652 172.097 376.652 172.097C376.652 172.097 364.436 141.558 362.909 140.54C361.382 139.522 356.801 137.995 356.801 137.995C356.801 137.995 344.585 121.198 337.46 117.126C337.46 117.126 332.879 96.2576 327.789 93.7126C322.699 91.1677 314.046 101.348 314.046 101.348C314.046 101.348 274.345 79.4609 230.062 86.5868C230.062 86.5868 214.686 89.0497 201.05 95.2396L197.487 97.2756C197.487 97.2756 183.744 87.6047 178.145 91.1677C172.546 94.7306 168.474 118.144 168.474 118.144C168.474 118.144 160.899 120.439 155.414 129.51C155.414 129.51 152.542 133.905 149.085 138.16C146.343 141.535 143.389 148.286 138.959 155.247C138.959 155.247 116.58 159.386 113.503 164.462C103.323 181.259 94.1616 218.925 93.1436 225.032C92.1257 231.14 92.6845 241.75 103.373 254.475Z" fill="#F96058"/>
<path d="M147.778 202.912L146.193 228.338C146.193 228.338 154.613 274.431 177.66 289.5L186.08 284.181L225.082 288.17L237.048 298.807C237.048 298.807 311.506 269.999 335.439 235.873L336.768 223.906L310.62 207.065L296.386 217.553C296.386 217.553 286.234 223.255 283.575 224.142C280.916 225.028 245.142 240.613 245.142 240.613L236.357 243.541L220.65 246.509C220.65 246.509 217.104 249.612 215.775 249.612C214.445 249.612 195.362 243.541 195.362 243.541L190.069 241.634L182.184 235.123L178.158 231.828L147.778 202.912Z" fill="#84B900"/>
<path d="M357.525 259.141L346.593 257.65C346.593 257.65 364.482 220.88 368.457 201.998C372.432 183.115 374.917 172.184 374.917 172.184C374.917 172.184 401.252 175.662 404.731 184.109C408.209 192.557 413.675 237.774 409.203 248.209C404.731 258.644 391.314 275.042 391.314 275.042C391.314 275.042 386.345 279.514 384.358 280.508C382.37 281.502 377.668 284.846 377.668 284.846C377.668 284.846 382.37 274.048 383.364 270.073C384.358 266.098 382.867 258.147 378.892 257.154C374.917 256.16 368.954 256.657 366.966 261.129C364.979 265.601 359.016 272.061 359.016 272.061L357.525 259.141Z" fill="#79A4BE"/>
<path d="M121.994 236.781L124.479 224.358C124.479 224.358 126.963 197.526 130.938 182.619C134.914 167.712 136.404 160.755 136.404 160.755L135.899 155.301C135.899 155.301 115.944 161.213 113.503 164.462C111.062 167.712 100.131 193.55 97.6461 203.985C95.1616 214.42 90.1926 228.333 92.6771 234.296C95.1616 240.259 103.373 254.475 103.373 254.475C103.373 254.475 104.603 244.731 106.093 242.744C107.584 240.756 116.031 237.775 119.013 242.744L121.994 236.781Z" fill="#79A4BE"/>
<path d="M169.818 324.778L170.581 294.995L186.08 284.181L225.082 288.17L237.785 300.341L238.93 322.487C238.93 322.487 229.003 326.306 228.239 328.979C227.475 331.652 227.093 338.906 227.093 341.579C227.093 344.252 226.711 359.526 226.711 359.526C226.711 359.526 222.129 362.199 221.748 363.344C221.366 364.49 210.768 386.893 209.194 386.383C207.62 385.872 193.212 386.894 190.87 384.856C188.528 382.818 176.691 359.907 177.073 358.762C177.454 357.616 177.836 335.47 177.073 332.797C176.309 330.124 169.818 324.778 169.818 324.778Z" fill="#FF6700"/>
<path d="M256.492 233.906C256.492 233.906 273.82 171.454 294.788 145.444C309.143 127.636 315.401 122.02 315.401 122.02C315.401 122.02 321.801 112.613 325.08 112.613C328.36 112.613 328.986 114.056 328.986 114.056C328.986 114.056 337.032 118.322 337.46 117.126C337.887 115.93 331.276 96.3237 327.789 93.7124C324.302 91.1012 315.869 98.5967 306.5 109.372C297.13 120.146 275.112 154.813 268.554 171.21C261.995 187.606 254.252 237.276 254.252 237.276L256.492 233.906Z" fill="#F4D761"/>
<path d="M178.624 226.928C178.624 226.928 169.261 189.165 176.734 136.074C179.643 115.406 181.887 107.498 181.887 107.498L197.487 97.2754C197.487 97.2754 185.166 90.1643 180.95 90.1643C176.734 90.1643 172.517 98.5968 171.112 105.624C169.706 112.651 167.102 142.205 165.959 155.75C162.083 201.648 176.372 228.095 176.372 228.095L178.624 226.928Z" fill="#F4D761"/>
<path d="M332.367 316.206C332.367 316.206 355.97 289.106 356.408 285.609C356.845 282.112 358.156 274.681 358.156 274.681C358.156 274.681 363.838 265.939 365.15 263.754C366.461 261.568 371.269 255.449 376.514 257.197C381.759 258.946 385.256 264.191 382.633 272.059C380.011 279.927 371.706 296.536 363.401 306.152C355.096 315.769 352.037 319.702 345.043 324.511C338.049 329.319 328.298 335.992 328.298 335.992L332.367 316.206Z" fill="#909EA8"/>
<path d="M119.938 241.025C119.938 241.025 115.13 237.528 110.759 240.151C106.388 242.773 104.639 246.27 104.639 246.27C104.639 246.27 102.017 262.443 106.825 277.304C111.633 292.165 120.812 308.775 120.812 308.775C120.812 308.775 122.56 295.225 121.249 288.669C119.938 282.112 115.13 250.204 119.938 241.025Z" fill="#909EA8"/>
<path d="M346.593 257.651L357.525 259.141C357.525 259.141 358.825 282.087 357.667 284.401C356.51 286.716 342.62 304.079 339.147 307.937C335.675 311.795 333.304 312.514 332.367 316.206C331.431 319.898 328.344 338.803 324.872 342.661C321.399 346.52 301.336 360.024 288.99 366.583C276.643 373.142 256.966 381.63 253.879 382.016C250.793 382.402 227.008 379.766 227.008 379.766L228.239 328.979C228.239 328.979 230.344 326.071 236.903 324.142C243.462 322.213 276.643 311.795 300.565 296.362C324.486 280.929 346.593 257.651 346.593 257.651Z" fill="#A23E35"/>
<path d="M121.994 236.781C121.994 236.781 127.714 272.055 135.43 286.716C143.147 301.378 150.863 312.567 157.423 317.583C163.982 322.598 171.312 326.071 173.627 328C175.942 329.929 176.714 336.874 177.1 342.276C177.486 347.677 176.107 375.368 176.107 375.368C176.107 375.368 156.651 374.685 155.879 373.528C155.108 372.37 143.147 358.095 138.131 349.606C133.115 341.118 121.368 322.418 121.647 316.142C121.926 309.866 123.084 292.504 122.312 290.189C121.541 287.874 113.96 245.105 121.994 236.781Z" fill="#A23E35"/>
<path d="M227.635 331.052L227.008 379.766L250.422 381.293C250.422 381.293 255.706 367.666 255.299 353.427C254.892 339.188 251.638 331.459 251.638 331.459L227.635 331.052Z" fill="black"/>
<path d="M154 326.984C154 326.984 147.898 353.427 153.593 370.107C153.593 370.107 155.22 373.362 159.289 374.175C163.357 374.989 176.107 375.368 176.107 375.368C176.107 375.368 177.189 331.052 175.968 329.832C174.748 328.611 169.459 327.798 167.425 327.798C165.391 327.798 154 326.984 154 326.984Z" fill="black"/>
<path d="M245.158 340.4H234.116C232.681 340.4 231.517 341.563 231.517 342.998C231.517 344.433 232.681 345.596 234.116 345.596H245.158C246.593 345.596 247.756 344.433 247.756 342.998C247.756 341.563 246.593 340.4 245.158 340.4Z" fill="#F4D761"/>
<path d="M245.158 353.39H234.116C232.681 353.39 231.517 354.554 231.517 355.989C231.517 357.423 232.681 358.587 234.116 358.587H245.158C246.593 358.587 247.756 357.423 247.756 355.989C247.756 354.554 246.593 353.39 245.158 353.39Z" fill="#F4D761"/>
<path d="M245.158 366.381H234.116C232.681 366.381 231.517 367.544 231.517 368.979C231.517 370.414 232.681 371.577 234.116 371.577H245.158C246.593 371.577 247.756 370.414 247.756 368.979C247.756 367.544 246.593 366.381 245.158 366.381Z" fill="#F4D761"/>
<path d="M168.119 335.853H159.744C158.309 335.853 157.146 337.016 157.146 338.451C157.146 339.886 158.309 341.049 159.744 341.049H168.119C169.554 341.049 170.718 339.886 170.718 338.451C170.718 337.016 169.554 335.853 168.119 335.853Z" fill="#F4D761"/>
<path d="M168.119 348.844H159.744C158.309 348.844 157.146 350.007 157.146 351.442C157.146 352.877 158.309 354.04 159.744 354.04H168.119C169.554 354.04 170.718 352.877 170.718 351.442C170.718 350.007 169.554 348.844 168.119 348.844Z" fill="#F4D761"/>
<path d="M168.119 361.834H159.744C158.309 361.834 157.146 362.998 157.146 364.433C157.146 365.868 158.309 367.031 159.744 367.031H168.119C169.554 367.031 170.718 365.868 170.718 364.433C170.718 362.998 169.554 361.834 168.119 361.834Z" fill="#F4D761"/>
<g style="mix-blend-mode:multiply" opacity="0.42">
<path d="M258.545 234.986C258.84 234.103 292.703 143.996 338.64 118.083L335.401 116.021L331.279 101.004C331.279 101.004 308.899 110.721 287.992 146.646C267.085 182.571 256.19 226.741 255.601 236.458L258.545 234.986Z" fill="black"/>
</g>
<path d="M256.489 236.221L227.211 287.773L235.743 298.274L257.402 289.742L296.752 217.187L256.489 236.221Z" fill="white"/>
<path d="M188.882 242.958L170.111 279.897L178.271 288.699L201.626 248.055L188.882 242.958Z" fill="white"/>
<g style="mix-blend-mode:multiply" opacity="0.42">
<path d="M365.104 143.889C363.633 143.889 351.263 159.231 346.848 168.552C346.848 168.552 348.7 213.869 344.285 237.415C344.285 237.415 310.188 283.353 239.549 307.881L237.903 324.021C237.903 324.021 284.505 310.285 311.976 290.663C339.447 271.041 348.767 255.834 348.767 255.834C348.767 255.834 364.956 214.137 369.861 197.458C374.767 180.78 375.748 167.535 375.748 167.535L365.104 143.889Z" fill="black"/>
</g>
<g style="mix-blend-mode:multiply" opacity="0.42">
<path d="M250.694 331.727C250.694 331.727 253.816 339.532 252.776 352.54C251.735 365.548 248.093 381.158 248.093 381.158C248.093 381.158 271.507 375.434 293.361 365.028C315.214 354.621 326.661 340.573 326.661 340.573L329.263 335.89L339.149 328.085L344.873 301.549C344.873 301.549 356.32 287.5 356.32 285.939C356.32 284.378 356.84 258.362 356.84 258.362C356.84 258.362 325.1 307.792 250.694 331.727Z" fill="black"/>
</g>
<g style="mix-blend-mode:multiply" opacity="0.42">
<path d="M357.36 260.443C357.36 260.443 361.523 250.037 371.409 248.996C381.295 247.955 383.376 250.557 383.376 250.557C383.376 250.557 391.181 239.63 396.384 219.338C401.587 199.045 401.587 179.273 401.587 179.273C401.587 179.273 411.474 189.159 410.953 223.5C410.622 245.357 409.913 252.638 404.189 260.963C398.466 269.289 394.823 273.972 389.1 277.614C383.376 281.256 376.612 286.98 376.612 286.98C376.612 286.98 384.937 270.329 383.897 265.126C382.856 259.923 381.295 257.321 376.092 257.321C370.888 257.321 368.287 258.882 366.206 263.565C364.124 268.248 358.401 275.012 358.401 275.012L357.36 260.443Z" fill="black"/>
</g>
<g style="mix-blend-mode:multiply" opacity="0.42">
<path d="M147.317 203.321L146.368 226.476C146.368 226.476 151.858 269.401 176.315 289.366L169.327 295.854C169.327 295.854 139.879 267.903 137.383 229.97L139.458 194.032L147.317 203.321Z" fill="black"/>
</g>
<g style="mix-blend-mode:multiply" opacity="0.42">
<path d="M210.861 344.439L221.42 364.102L208.676 385.584C208.676 385.584 204.671 355.727 210.861 344.439Z" fill="black"/>
</g>
<g style="mix-blend-mode:multiply" opacity="0.42">
<path d="M179.182 290.55L221.42 295.283L231.251 303.658L230.887 325.505L239.262 323.32V299.289L227.211 287.773L186.465 284.36L179.182 290.55Z" fill="black"/>
</g>
<g style="mix-blend-mode:multiply" opacity="0.42">
<path d="M132.785 157.498C132.785 157.498 114.213 196.001 112.855 229.52C112.855 229.52 97.9066 225.896 96.5477 241.75L102.889 257.151C102.889 257.151 102.889 248.545 105.607 244.468C108.325 240.391 111.949 239.938 111.949 239.938L117.384 264.851C117.384 264.851 121.461 237.22 121.461 235.862C121.461 234.503 125.538 204.607 128.708 189.206C131.879 173.805 136.409 162.481 136.409 162.481L135.956 154.328L132.785 157.498Z" fill="black"/>
</g>
<path d="M135.899 155.3C135.899 155.3 116.58 159.386 113.503 164.462C103.323 181.259 94.1616 218.924 93.1436 225.032C92.1257 231.14 92.6845 241.75 103.373 254.475C103.373 254.475 103.273 285.224 118.237 304.703C118.237 304.703 119.611 310.034 121.647 316.142C123.683 322.25 144.749 365.812 157.474 373.956C157.474 373.956 174.071 376.895 176.107 375.368C178.143 373.841 178.654 357.37 178.654 357.37C178.654 357.37 183.235 377.73 190.87 384.856C190.87 384.856 204.613 386.892 209.194 386.383C209.194 386.383 217.847 373.149 221.41 364.496L226.499 360.933L227.008 379.766C227.008 379.766 245.841 381.802 250.422 381.293C255.003 380.784 303.357 367.55 326.262 341.082L328.298 335.992C328.298 335.992 360.926 318.33 377.669 284.846C377.669 284.846 388.868 280.003 393.958 273.896C399.048 267.788 407.7 258.626 409.736 243.865C411.772 229.104 411.263 188.385 403.12 181.768C394.976 175.151 376.652 172.097 376.652 172.097C376.652 172.097 364.436 141.558 362.909 140.54C361.382 139.522 356.801 137.995 356.801 137.995C356.801 137.995 344.585 121.198 337.46 117.126C337.46 117.126 332.879 96.2575 327.789 93.7125C322.7 91.168 314.049 101.344 314.046 101.347C313.999 101.402 288.456 91.2235 286.732 90.7365C271.626 86.4675 255.73 84.07 240.019 85.3396C236.228 85.646 211.158 90.0669 201.05 95.2395L197.487 97.2755C197.487 97.2755 183.744 87.6046 178.145 91.1676C172.546 94.7305 168.474 118.144 168.474 118.144" stroke="black" stroke-width="4.63129" stroke-linecap="round" stroke-linejoin="round"/>
<path d="M253.403 236.71C253.403 236.71 255.385 163.071 314.046 101.347" stroke="black" stroke-width="4.63129" stroke-linecap="round" stroke-linejoin="round"/>
<path d="M169.347 113.113C169.347 113.113 155.841 183.235 178.936 231.297" stroke="black" stroke-width="4.63129" stroke-linecap="round" stroke-linejoin="round"/>
<path d="M147.853 203.5L146.827 229.69C146.827 229.69 152.452 269.875 177.623 289.415C177.623 289.415 185.597 284.325 186.128 284.156C188.503 284.156 223.386 287.652 225.636 289.076C229.313 291.401 238.361 299.934 238.361 299.934C238.361 299.934 309.604 269.908 335.011 237.14L336.911 227.642L309.604 207.221L295.832 215.294" stroke="black" stroke-width="2.31564" stroke-linecap="round" stroke-linejoin="round"/>
<path d="M123.058 317.555C121.062 306.773 121.062 297.987 121.461 291.198C121.461 291.198 114.672 260.449 119.065 244.075C123.458 227.702 124.256 224.507 124.256 224.507C124.256 224.507 125.454 187.767 136.237 161.411C136.237 161.411 144.609 137.105 169.094 114.17" stroke="black" stroke-width="4.63129" stroke-linecap="round" stroke-linejoin="round"/>
<path d="M96.9667 244.224C96.9667 244.224 95.1031 233.79 105.205 230.254C115.456 226.666 121.093 236.233 119.897 241.359" stroke="black" stroke-width="4.63129" stroke-linecap="round" stroke-linejoin="round"/>
<path d="M180.496 231.297C180.496 231.297 163.643 184.171 181.121 108.646" stroke="black" stroke-width="2.31564" stroke-linecap="round" stroke-linejoin="round"/>
<path d="M181.156 108.408C181.156 108.408 192.26 100.873 199.795 96.907" stroke="black" stroke-width="2.31564" stroke-linecap="round" stroke-linejoin="round"/>
<path d="M170.044 295.389C140.9 274.193 138.335 228.767 138.335 228.767L139.937 191.933C139.937 191.933 172.689 235.073 208.539 250.13C208.539 250.13 262.945 241.968 309.604 207.221L336.911 227.642C336.911 227.642 340.303 187.768 337.108 167.8C337.108 167.8 341.501 155.82 356.676 138.249" stroke="black" stroke-width="4.63129" stroke-linecap="round" stroke-linejoin="round"/>
<path d="M139.209 229.028L146.827 229.69" stroke="black" stroke-width="2.31564" stroke-linecap="round" stroke-linejoin="round"/>
<path d="M238.908 308.841C238.908 308.841 317.565 277.673 344.285 237.736C344.285 237.736 350.008 195.494 346.847 167.911C346.847 167.911 355.465 151.821 364.784 143.569" stroke="black" stroke-width="2.31564" stroke-linecap="round" stroke-linejoin="round"/>
<path d="M338.325 167.915L346.527 167.911" stroke="black" stroke-width="2.31564" stroke-linecap="round" stroke-linejoin="round"/>
<path d="M336.278 235.494L343.324 237.095" stroke="black" stroke-width="2.31564" stroke-linecap="round" stroke-linejoin="round"/>
<path d="M226.735 363.66L227.319 332.38C227.319 332.38 227.319 327.41 234.92 325.364C242.521 323.317 312.39 302.269 346.886 258.418C346.886 258.418 358.366 236.075 366.201 209.435C373.754 183.754 375.002 168.992 375.002 168.992" stroke="black" stroke-width="4.63129" stroke-linecap="round" stroke-linejoin="round"/>
<path d="M228.681 331.16L251.145 332.058C251.145 332.058 329.918 307.198 356.276 258.976" stroke="black" stroke-width="2.31564" stroke-linecap="round" stroke-linejoin="round"/>
<path d="M346.886 258.418C346.886 258.418 357.174 258.377 357.774 259.874C358.373 261.372 358.073 283.237 356.875 285.932C355.677 288.628 340.701 309.295 332.314 316.783C330.517 327.865 326.624 339.546 326.624 339.546" stroke="black" stroke-width="4.63129" stroke-linecap="round" stroke-linejoin="round"/>
<path d="M169.488 327.042C169.488 326.533 170.327 296.371 170.666 295.862C171.006 295.353 182.419 286.361 186.128 284.156" stroke="black" stroke-width="4.63129" stroke-linecap="round" stroke-linejoin="round"/>
<path d="M357.773 259.874C357.773 259.874 364.674 247.373 378.352 249.653C392.702 252.045 394.437 268.591 389.68 276.809" stroke="black" stroke-width="4.63129" stroke-linecap="round" stroke-linejoin="round"/>
<path d="M357.442 275.463C358.147 274.406 363.43 268.378 365.754 263.374C369.028 256.321 377.575 255.45 381.621 260.351C386.491 266.251 379.209 280.584 373.216 290.807" stroke="black" stroke-width="2.31564" stroke-linecap="round" stroke-linejoin="round"/>
<path d="M360.716 271.433C360.716 271.433 372.554 277.982 372.806 292.086" stroke="black" stroke-width="2.31564" stroke-linecap="round" stroke-linejoin="round"/>
<path d="M346.612 299.894C346.612 299.894 352.657 308.205 351.649 317.524" stroke="black" stroke-width="2.31564" stroke-linecap="round" stroke-linejoin="round"/>
<path d="M105.146 257.876C105.146 257.876 104.25 249.806 104.788 246.04C105.326 242.274 113.396 236.356 118.596 242.454" stroke="black" stroke-width="2.31564" stroke-linecap="round" stroke-linejoin="round"/>
<path d="M103.891 260.925C103.891 260.925 108.554 251.959 116.982 251.6" stroke="black" stroke-width="2.31564" stroke-linecap="round" stroke-linejoin="round"/>
<path d="M118.955 275.989C118.955 275.989 111.244 278.5 109.809 286.749" stroke="black" stroke-width="2.31564" stroke-linecap="round" stroke-linejoin="round"/>
<path d="M256.492 234.989C256.492 234.989 278.767 143.542 327.554 111.5" stroke="black" stroke-width="2.31564" stroke-linecap="round" stroke-linejoin="round"/>
<path d="M327.789 111.686C327.789 111.686 339.39 119.338 346.003 127.053" stroke="black" stroke-width="2.31564" stroke-linecap="round" stroke-linejoin="round"/>
<path d="M251.145 332.058C251.145 332.058 260.118 354.376 250.422 381.293" stroke="black" stroke-width="2.31564" stroke-linecap="round" stroke-linejoin="round"/>
<path d="M123.058 231.262C123.058 231.262 123.881 305.6 172.994 327.818C172.994 327.818 176.502 329.572 176.502 334.249C176.502 338.927 176.794 375.469 176.794 375.469" stroke="black" stroke-width="4.63129" stroke-linecap="round" stroke-linejoin="round"/>
<path d="M118.787 237.615C118.787 237.615 115.766 297.011 153.205 326.663" stroke="black" stroke-width="2.31564" stroke-linecap="round" stroke-linejoin="round"/>
<path d="M174.434 328.993L154.241 327.181C154.241 327.181 147.534 353.282 156.226 372.901" stroke="black" stroke-width="2.31564" stroke-linecap="round" stroke-linejoin="round"/>
<path d="M220.075 364.289L210.583 344.615C210.583 344.615 191.944 342.371 186.593 343.579C186.593 343.579 179.517 352.036 178.654 361.701" stroke="black" stroke-width="2.31564" stroke-linecap="round" stroke-linejoin="round"/>
<path d="M185.558 345.305C185.558 345.305 184.867 372.056 192.116 384.482" stroke="black" stroke-width="2.31564" stroke-linecap="round" stroke-linejoin="round"/>
<path d="M208.684 384.654C208.684 384.654 206.441 361.528 210.583 345.305" stroke="black" stroke-width="2.31564" stroke-linecap="round" stroke-linejoin="round"/>
<path d="M237.978 322.247L238.252 300.356" stroke="black" stroke-width="4.63129" stroke-linecap="round" stroke-linejoin="round"/>
<path d="M231.128 325.802V303.939L222.567 295.51L179.529 290.506" stroke="black" stroke-width="2.31564" stroke-linecap="round" stroke-linejoin="round"/>
<path d="M211.416 306.666L188.62 305.069C187.046 304.959 185.681 306.145 185.571 307.719L185.571 307.719C185.46 309.292 186.647 310.658 188.22 310.768L211.016 312.365C212.59 312.475 213.955 311.289 214.066 309.715L214.066 309.715C214.176 308.141 212.989 306.776 211.416 306.666Z" fill="black"/>
<path d="M212.026 319.22L189.23 317.623C187.656 317.512 186.291 318.699 186.181 320.272L186.181 320.272C186.07 321.846 187.257 323.211 188.831 323.322L211.627 324.919C213.2 325.029 214.565 323.843 214.676 322.269L214.676 322.269C214.786 320.695 213.6 319.33 212.026 319.22Z" fill="black"/>
<g style="mix-blend-mode:multiply" opacity="0.42">
<path d="M182.129 231.975C182.129 231.975 178.723 127.068 201.885 97.0948L195.072 99.1384C195.072 99.1384 187.579 96.4136 184.854 96.4136C182.129 96.4136 158.287 161.129 182.129 231.975Z" fill="black"/>
</g>
</svg>
