<?xml version="1.0" encoding="UTF-8"?><svg id="Wumous_Plush" xmlns="http://www.w3.org/2000/svg" width="13.2689cm" height="12.48661cm" viewBox="0 0 376.12629 353.95127"><defs><style>.cls-1{stroke-width:.90959px;}.cls-1,.cls-2,.cls-3,.cls-4,.cls-5{stroke:#000;}.cls-1,.cls-3{stroke-miterlimit:10;}.cls-1,.cls-3,.cls-6{fill:#fff;}.cls-2{stroke-width:2px;}.cls-2,.cls-4,.cls-5{fill:none;stroke-linecap:round;stroke-linejoin:round;}.cls-4{stroke-width:1.73673px;}.cls-7,.cls-8,.cls-9,.cls-10,.cls-11,.cls-12,.cls-13,.cls-6{stroke-width:0px;}.cls-8{fill:#4f69aa;}.cls-9{fill:#c7d5ff;}.cls-10{fill:#a2fc00;}.cls-11{fill:#8eaafc;}.cls-12{fill:#97a3c3;}.cls-13{fill:#7fc600;}.cls-5{stroke-width:3.70847px;}</style></defs><path class="cls-10" d="M189.59089,78.47414s-7.09066-7.90102-7.49584-17.22017,6.68548-17.62535,11.34505-18.23312,8.91397,2.83626,11.54764,5.87512,9.72433,8.3062,14.99168,10.12951,24.31083,2.83626,30.99631,2.22849,19.04348.20259,26.53932,5.87512c7.49584,5.67253,9.31915,9.72433,9.31915,9.72433,0,0,8.50879-2.0259,14.5865-5.87512s15.39686-7.69843,18.6383-4.2544,7.09066,11.54764,2.0259,17.01758c-5.06476,5.46994-14.18132,6.88807-19.65125,7.29325s-10.53469.40518-10.53469.40518c0,0,1.21554,3.64662-1.62072,7.90102s-5.26735,7.69843-5.26735,7.69843c0,0-83.46718-6.88807-95.42-28.56522Z"/><path class="cls-9" d="M174.30581,176.99389c4.06023,1.12784,11.31876,3.57556,22.7824,4.51137,11.05285.90227,17.16964-5.46653,19.85002-10.82728,2.93239-5.86478,9.47387-26.84263-2.70682-32.93298s-29.54945-9.92501-37.21878-10.82728-17.59433,0-25.26366,12.18069c-6.8263,10.84177-9.47954,23.51338-.45114,28.64718,11.50399,6.54148,18.52741,8.0037,23.00797,9.2483Z"/><path class="cls-11" d="M116.86846,288.0386s3.10371,17.73546,15.96191,22.61271c12.85821,4.87725,35.02753-1.33016,43.00849-7.09418s13.30159-12.85821,13.30159-12.85821c0,0,24.38625,4.43386,27.93335-13.74498,0,0,2.66032,16.84869,15.96191,17.73546s25.27303-3.99048,23.0561-21.72594c-2.21693-17.73546-17.29207-50.10267-22.61271-58.52701,0,0,30.59367,0,37.68785-18.17884,0,0,19.06562,6.20741,34.14076-13.30159s16.84869-43.45187,9.31112-51.43283-20.39578-7.09418-20.39578-7.09418c0,0-.88677-9.31112-11.52805-20.83916s-89.12068-50.10267-132.57255-.44339c0,0-18.62223-1.77355-27.48996,15.51853s-8.42434,42.12171,7.53757,45.22542c0,0,15.07514,31.92382,39.01801,37.24446,0,0-8.86773,4.43386-17.73546,10.64127s-30.15028,27.48996-27.48996,39.01801c0,0-19.95239-6.6508-23.0561-7.09418s-21.28255-1.33016-22.61271,15.07514,7.53757,28.37673,17.29207,29.26351,21.28255,0,21.28255,0Z"/><path class="cls-9" d="M174.30581,176.99389c4.06023,1.12784,11.31876,3.57556,22.7824,4.51137,11.05285.90227,17.16964-5.46653,19.85002-10.82728,2.93239-5.86478,9.47387-26.84263-2.70682-32.93298s-29.54945-9.92501-37.21878-10.82728-17.59433,0-25.26366,12.18069c-6.8263,10.84177-9.47954,23.51338-.45114,28.64718,11.50399,6.54148,18.52741,8.0037,23.00797,9.2483Z"/><path class="cls-9" d="M78.71543,260.7042s-2.36033,5.05786,1.51736,13.82482,9.44134,10.62151,9.44134,10.62151c0,0,9.77853-2.36033,9.77853-13.99341s-2.02314-19.55706-5.56365-23.09756-5.39505-3.03472-5.39505-3.03472c0,0-8.76696,4.04629-9.77853,15.67937Z"/><path class="cls-9" d="M126.09072,269.63975s-7.92398,2.36033-8.59836,15.17358,3.03472,20.23144,9.94713,22.76037c6.91241,2.52893,12.64465,2.69753,12.64465,2.69753,0,0,10.11572-2.69753,10.7901-12.47606s-3.37191-24.10913-17.53392-29.33559l-7.2496,1.18017Z"/><path class="cls-9" d="M279.51249,132.74033s-11.46448,28.32402-13.31903,33.55047c-1.85455,5.22646-3.03472,9.44134-.33719,12.30746s14.66779,5.05786,20.23144,0,13.15044-20.90582,15.00499-30.17857-.1686-16.01656-5.56365-18.88268c-5.39505-2.86612-13.48763-2.36033-16.01656,3.20331Z"/><path class="cls-12" d="M143.45605,114.36344s-4.88926-1.68595-9.44134,3.87769-9.10415,16.52234-8.76696,23.43475,3.03472,10.11572,5.39505,10.7901c0,0,2.19174-13.65622,5.39505-21.5802s7.4182-16.52234,7.4182-16.52234Z"/><path class="cls-7" d="M155.87525,208.93577s-10.01105,10.76661-14.16659,23.04431l20.58877-24.7443-6.42219,1.69999Z"/><path class="cls-13" d="M190.38427,79.01754s-7.50657-6.59113-8.60509-15.01314c-1.09852-8.422,4.39409-18.12562,8.05583-19.40723,0,0,0,4.94335,2.56322,9.8867s9.70361,8.05583,19.7734,10.25287,17.57636,2.74631,24.35058,2.92939,21.78736,1.09852,30.02627,3.84483,13.54844,7.50657,15.5624,11.16831c0,0,10.61905-.73235,18.12562-4.76026s13.73153-7.32348,18.67488-5.6757,5.49261,5.30952,4.94335,7.50657-1.64778,6.77422-9.8867,8.60509-21.60427,2.01396-21.60427,2.01396c0,0,.73235,4.211-1.28161,8.422s-6.07125,8.24842-6.07125,8.24842c0,0-17.1808-14.83955-22.12415-17.21968s-33.32184-10.61905-43.20854-11.16831-29.29393.36617-29.29393.36617Z"/><path class="cls-7" d="M189.12524,273.41626s8.31369,5.23455,4.00289,18.16695l-4.92663,1.23166s6.77412-11.54679.92374-19.39861Z"/><path class="cls-8" d="M143.45605,114.36344l6.6664-11.217s-18.28876,1.03303-25.12181,12.99086-11.95784,26.64889-7.51635,35.53186,12.68578,12.22122,12.68578,12.22122l.47275-11.4244s-7.35043-4.555-4.27556-16.51284c3.07487-11.95784,9.23698-24.73019,17.08881-21.58971Z"/><path class="cls-8" d="M161.55745,209.06679s-19.47419,13.6661-21.86576,26.30724-1.70826,20.8408-1.70826,20.8408l-9.90792-3.41652s-8.54131-4.44148,0-17.42428,25.28228-25.28228,33.48194-26.30724Z"/><path class="cls-8" d="M164.62814,206.03875s11.35743,8.9913,29.34002,7.335,24.37114-6.15194,24.37114-6.15194c0,0-8.51807-7.57162-26.97389-6.86178s-22.24163-5.67871-26.73728,5.67871Z"/><path class="cls-8" d="M263.27233,180.42521s2.23679,7.159,14.51485,8.12832c11.03129.87089,27.57822-9.5798,34.83564-43.25425,3.32295-15.41849-8.12832-18.86931-8.12832-18.86931,0,0,12.19247.87089,13.35366,12.48277,1.16119,11.61188-1.16119,27.57822-8.99921,39.1901-7.83802,11.61188-18.86931,16.54693-21.19168,17.70812s-22.93346,7.25743-24.38495-15.38574Z"/><path class="cls-8" d="M165.44547,199.27279s14.86172-7.43086,34.02551-1.17329,56.31809-3.51988,62.96676-18.7727c0,0,2.34659,12.51513,10.55964,16.03501,0,0-7.43086,10.55964-17.9905,15.25282s-21.11928,4.30208-24.63917,3.91098-25.42136-8.60415-32.85222-9.77745-11.34184-2.73769-17.5994-2.34659-14.47062,2.34659-14.47062,2.34659c0,0-7.82196,8.60415-11.34184,12.51513s-16.03501,22.29258-16.03501,22.29258c0,0,3.51988-17.20831,6.25757-21.11928s16.42611-13.29733,16.42611-13.29733l8.21306-3.51988-3.51988-2.34659Z"/><path class="cls-8" d="M104.44178,286.73825s-.2863-25.76704,34.06975-25.76704l4.00821,4.00821s-12.59722-1.1452-18.89583,6.29861-6.58491,16.31912-6.58491,16.31912l-12.59722-.8589Z"/><path class="cls-8" d="M186.90648,274.25689s23.61597-4.5822,24.6734-33.13285c0,0,1.76239,20.79615,2.81982,27.14074s2.46734,10.92679,2.46734,10.92679c0,0-2.46734,7.04954-9.51688,9.86936-7.04954,2.81982-15.86147,2.81982-15.86147,2.81982,0,0,4.5822-10.22184-4.5822-17.62386Z"/><path class="cls-8" d="M150.60133,297.1679s38.77248-1.76239,39.47744-18.32881c0,0,4.5822,7.7545-6.34459,18.32881-10.92679,10.57431-23.61597,12.3367-28.90313,13.39413-5.28716,1.05743-15.15652-.35248-15.15652-.35248,0,0,9.62023-1.24349,10.92679-13.04165Z"/><path class="cls-12" d="M164.4746,172.99201s28.55065,7.57826,36.65762,2.81982c11.05302-6.48764,13.37988-18.72214,12.14621-30.88261-.64037-6.31219-10.95156-11.75682-10.95156-11.75682,0,0,11.9152,3.13425,15.4967,7.01421s5.07379,13.72908,2.08921,22.08592-6.86454,16.71367-15.81829,19.10134-34.33274-3.97589-39.61989-8.38186Z"/><path class="cls-8" d="M281.35268,130.87813s6.4731-16.57115-5.17848-30.81198c0,0,15.53545,9.06235,17.60684,24.33887,0,0-3.36601-.25892-5.69633,1.81247s-6.73203,4.66064-6.73203,4.66064Z"/><path class="cls-8" d="M226.67151,291.18714s13.41069,4.92638,18.61075-7.66325c5.20006-12.58963.82106-29.55825-2.1895-40.23207s-5.74744-18.61075-5.74744-18.61075c0,0,9.85275,15.87388,13.68438,29.28457s8.21063,27.64244,1.64213,35.57938c-6.5685,7.93694-21.895,9.30538-26.00031,1.64213Z"/><path class="cls-7" d="M280.00328,101.4008s.94315-7.07365-14.77607-14.46168c-11.28278-5.30291-32.38159-8.0168-32.38159-8.0168,0,0,44.17101,18.39149,47.15766,22.47849Z"/><path class="cls-5" d="M171.78257,202.12091s13.81892-1.97413,31.36676,4.16761,36.63111,11.62544,51.54677,4.60631c14.91566-7.01913,16.60173-14.7347,16.60173-14.7347"/><path class="cls-5" d="M223.54869,212.43027s-7.01913.87739-9.43196,16.67044-.4387,51.76612,10.09001,61.41743,35.25472,5.69909,32.29193-14.44709c-5.24515-35.6656-23.9567-61.88599-23.9567-61.88599"/><path class="cls-5" d="M171.05128,202.12087s-9.18295,4.18828-25.89926,25.36226c-12.84486,16.27016-8.35815,32.87539-2.50745,37.61168"/><path class="cls-5" d="M117.76911,290.93643c.92183,4.60914,2.83089,22.41121,29.48844,20.52395,25.03351-1.77228,41.99153-15.33399,43.87879-25.71392,2.62187-14.42026-12.739-16.51352-30.43207-18.8726-11.80593-1.57412-48.83285-5.42587-42.93516,24.06256Z"/><path class="cls-5" d="M188.77727,291.88006s26.18573,1.41544,28.3089-14.15445"/><path class="cls-5" d="M137.27326,257.20631s-10.41427-5.03916-30.73889-11.4221c-7.75376-2.43507-25.8677-4.36727-28.2193,12.93385s6.88685,27.88336,16.46126,29.05917,22.50826.50392,22.50826.50392"/><path class="cls-5" d="M171.07948,202.14831s-5.00814,0-10.8714,4.01218c-8.27659,5.6636-41.85189,29.58658-35.47354,45.53246"/><path class="cls-5" d="M271.54726,195.95709s10.81961,3.70958,20.09356-1.54566,20.40269-15.76571,25.34879-32.14969c4.94611-16.38398,1.23653-30.2949-7.11003-34.00448-8.34655-3.70958-16.38398-4.01871-16.38398-4.01871,0,0-4.32784-28.13098-48.8428-40.80537-44.51495-12.6744-79.13769-1.85479-95.21254,21.94834-16.07484,23.80313-23.89949,50.43698-15.45658,67.08156,10.81961,21.33008,35.55014,29.05837,35.55014,29.05837"/><path class="cls-5" d="M150.01077,103.53982s-6.0443,0-10.70705,1.55425-12.25084,4.68315-17.61483,16.92405c-6.73508,15.3698-6.0443,26.94032-3.1085,32.63924s12.2613,9.84358,12.2613,9.84358"/><path class="cls-5" d="M284.53895,106.74336s9.50546-4.61294,6.84952-15.51626c0,0,9.50546.69893,19.1507-1.67743s13.41947-5.31187,13.83883-12.16139-3.21508-12.58075-9.64524-12.16139-10.48396,4.0538-16.35498,7.26888c-5.87102,3.21508-11.0431,5.0323-11.0431,5.0323,0,0-8.66674-15.79583-28.2368-15.93562s-36.76375-1.39786-40.25841-2.79572-15.23669-12.16139-19.1507-14.1184-12.16139-3.63444-16.49476,8.24738,2.98512,23.39163,7.17871,26.04757"/><path class="cls-4" d="M223.36491,288.75963s4.87788,5.89411,13.82067,2.84543,13.3427-15.02516,9.75577-32.31599c-7.92656-38.2101-16.46286-45.12043-16.46286-45.12043"/><path class="cls-4" d="M131.09159,309.49064s16.25962,5.08113,19.30829-10.56875-12.80445-36.38089-24.18618-28.86082"/><path class="cls-4" d="M84.3452,282.45903s6.50385,5.89411,11.58498-.60974,3.65841-24.38942-.20325-31.09651-8.5363-4.0649-8.5363-4.0649"/><path class="cls-4" d="M274.11917,196.16758s-5.94342-2.41451-8.7294-6.87208-3.15744-10.95818-1.67159-16.3444,12.31353-33.77309,15.23001-39.18942c3.90037-7.24354,13.00123-9.10086,18.38745-7.98647"/><path class="cls-4" d="M263.98707,172.3802s-1.07271,5.54232,3.75447,7.33016,14.12397,4.11204,20.20264-2.86055,13.40883-26.28131,13.94519-34.14783-4.11204-12.51491-8.0453-13.94519-10.90585-1.25149-13.94519,3.75447"/><circle class="cls-7" cx="239.19116" cy="152.38099" r="9.13684"/><ellipse class="cls-7" cx="145.47485" cy="133.49998" rx="6.31522" ry="5.65814" transform="translate(-21.9598 238.14612) rotate(-74.54737)"/><path class="cls-4" d="M189.8688,45.14347s-.51808,6.56239,4.14467,12.08861,24.34991,9.67089,37.99277,10.36166,42.13743.34539,50.25407,15.3698c0,0,9.1528,0,17.96022-5.18083s22.23811-9.0782,24.15748-.39443"/><path class="cls-4" d="M287.78652,78.30079s-5.39091,1.03799-5.52622,6.0443c-.17269,6.38969,8.80741,6.0443,8.80741,6.0443"/><path class="cls-4" d="M210.47954,208.60012s17.37002,4.053,35.89803-2.6055c13.09762-4.70696,21.13352-13.89601,21.13352-13.89601"/><path class="cls-4" d="M286.03911,127.25054s4.3425-12.73801-4.632-23.16002"/><path class="cls-4" d="M144.76297,114.80203s-4.3425-2.895-9.55351,2.316c-3.80778,3.80778-10.13251,16.50152-9.84301,25.47602s3.7635,9.26401,6.07951,9.84301"/><path class="cls-7" d="M201.37415,55.5172s12.38328,5.36284,23.30396,6.14289l-6.53291-3.2177s-11.1157-.97506-16.77105-2.92518Z"/><rect class="cls-7" x="186.53051" y="161.61666" width="16.92507" height="8.91997" rx="4.45998" ry="4.45998" transform="translate(46.63764 -42.71611) rotate(14.1835)"/><path class="cls-7" d="M162.24061,163.4665l-5.89175-1.42934c-2.37821-.60105-3.83225-3.03863-3.2312-5.41684h0c.60105-2.37822,3.03863-3.83226,5.41684-3.23121l5.89175,1.42934c2.37821.60105,3.83225,3.03863,3.2312,5.41684h0c-.60105,2.37822-3.03863,3.83226-5.41684,3.23121Z"/><path class="cls-2" d="M174.30581,176.99389c4.06023,1.12784,11.31876,3.57556,22.7824,4.51137,11.05285.90227,17.16964-5.46653,19.85002-10.82728,2.93239-5.86478,9.47387-26.84263-2.70682-32.93298s-29.54945-9.92501-37.21878-10.82728-17.59433,0-25.26366,12.18069c-6.8263,10.84177-9.47954,23.51338-.45114,28.64718,11.50399,6.54148,18.52741,8.0037,23.00797,9.2483Z"/><rect class="cls-3" x="291.82445" y="163.49947" width="3.55175" height="8.52426" rx="1.77586" ry="1.77586" transform="translate(53.85923 406.23448) rotate(-74.59146)"/><rect class="cls-3" x="148.41156" y="285.19062" width="3.55175" height="8.52426" rx="1.77586" ry="1.77586" transform="translate(-126.98887 461.24465) rotate(-94.36704)"/><rect class="cls-3" x="97.77479" y="261.84787" width="3.55175" height="8.52426" rx="1.77586" ry="1.77586" transform="translate(-173.39744 345.0036) rotate(-85.61092)"/><rect class="cls-3" x="97.28112" y="268.5125" width="3.55175" height="8.52426" rx="1.77588" ry="1.77588" transform="translate(-180.49843 350.66589) rotate(-85.61091)"/><rect class="cls-3" x="148.6584" y="293.82995" width="3.55175" height="8.52426" rx="1.77588" ry="1.77588" transform="translate(-170.81821 389.12067) rotate(-79.04224)"/><path class="cls-3" d="M251.33989,277.81172h0c-.05248.97532-.89341,1.73038-1.86873,1.67791l-3.72498-.18386c-.97533-.05247-1.73038-.89339-1.67791-1.86871h0c.05248-.97532.89341-1.73038,1.86873-1.67791l3.72498.18386c.97533.05247,1.73038.89339,1.67791,1.86871Z"/><path class="cls-3" d="M255.53175,205.27648h0c-.78945.57513-1.90593.39977-2.48106-.38969l-2.20939-3.00465c-.57513-.78945-.39978-1.90593.38967-2.48105h0c.78945-.57513,1.90593-.39977,2.48106.38969l2.20939,3.00465c.57513.78945.39978,1.90593-.38967,2.48105Z"/><path class="cls-3" d="M247.46268,288.10592h0c-.49743.84058-1.59217,1.12133-2.43275.62391l-3.21802-1.88512c-.84058-.49743-1.12134-1.59216-.62391-2.43273h0c.49743-.84058,1.59217-1.12133,2.43275-.62391l3.21802,1.88512c.84058.49743,1.12134,1.59216.62391,2.43273Z"/><rect class="cls-3" x="297.03368" y="151.89711" width="3.55175" height="8.52426" rx="1.77586" ry="1.77586" transform="translate(68.8697 402.73686) rotate(-74.59146)"/><rect class="cls-3" x="312.55549" y="68.34351" width="3.55175" height="8.52426" rx="1.77586" ry="1.77586" transform="translate(-7.42563 49.19152) rotate(-8.84427)"/><rect class="cls-1" x="241.68217" y="64.22528" width="3.23064" height="7.75358" rx="1.61531" ry="1.61531" transform="translate(9.40007 -27.41523) rotate(6.57615)"/><rect class="cls-1" x="254.55351" y="65.79071" width="3.23064" height="7.75358" rx="1.61532" ry="1.61532" transform="translate(6.76182 -21.28399) rotate(4.82129)"/><path class="cls-3" d="M128.38632,138.99738h0c-.03801.97599-.86765,1.74344-1.84364,1.70544l-3.57619-.2124c-.976-.038-1.74344-.86763-1.70544-1.84362h0c.03801-.97599.86765-1.74344,1.84364-1.70544l3.57619.2124c.976.038,1.74344.86763,1.70544,1.84362Z"/><path class="cls-4" d="M286.08928,89.50756s5.73409,7.84665,1.35807,14.63701"/><circle class="cls-6" cx="236.94718" cy="147.83767" r="2.7187"/><ellipse class="cls-6" cx="144.44902" cy="130.59724" rx="2.22564" ry="2.08707" transform="translate(-18.52453 237.18421) rotate(-75.30217)"/></svg>