<svg width="42" height="42" viewBox="0 0 42 42" fill="none" xmlns="http://www.w3.org/2000/svg">
<g clip-path="url(#clip0_477_5909)">
<mask id="mask0_477_5909" style="mask-type:luminance" maskUnits="userSpaceOnUse" x="0" y="0" width="42" height="42">
<path d="M42 0H0V42H42V0Z" fill="white"/>
</mask>
<g mask="url(#mask0_477_5909)">
<path d="M35.1565 23.8561C34.4814 25.0128 33.538 26.2498 32.7784 25.8003C31.4388 25.007 31.0557 25.8995 28.662 28.6763C27.0165 30.5852 27.5439 28.65 26.7572 28.125C26.4004 27.8863 25.7722 27.938 24.5457 28.7747C21.0528 31.1577 18.0144 28.9068 15.364 28.0332C15.0358 27.9249 14.7143 27.8379 14.3985 27.7838C12.3624 27.4319 12.3477 26.2334 11.5897 25.2474C11.2788 24.8421 10.8432 24.4738 10.091 24.2138C8.62435 23.7085 8.23708 21.702 8.17646 20.0605C7.49314 20.5019 6.91064 21.2984 6.83599 22.7266C6.70228 25.2958 8.8679 26.5033 10.1779 26.9963C10.7399 27.2071 11.1443 27.2875 11.1443 27.2875C11.8547 29.2735 14.3034 29.0774 15.5199 28.8428C15.6904 29.3498 16.0153 29.8296 16.6003 30.1635C17.9759 30.9461 19.7961 30.604 20.7124 30.3497C20.9938 30.6975 21.3933 30.9937 21.9609 31.1545C24.0674 31.75 25.2158 29.4695 25.2158 29.4695C25.2158 29.4695 25.3833 30.1652 25.9993 30.65C26.4226 30.9838 27.0559 31.2168 27.9918 31.0552C30.2895 30.659 29.9065 28.0807 29.9065 28.0807C29.9065 28.0807 34.406 29.271 35.0761 25.4041C35.1746 24.8356 35.1951 24.3204 35.1565 23.8561Z" fill="#E888B4"/>
<path d="M22.2518 12.2208C22.4978 12.503 22.6324 12.7122 22.6324 12.7122C22.6324 12.7122 24.0687 10.6302 26.6535 11.622C28.0176 12.1453 28.3156 12.9181 28.2909 13.5292C28.8873 13.8024 29.4245 14.3151 29.7043 15.2338C30.4721 15.0115 31.7009 15.0394 32.7797 16.7776C33.6099 18.1156 33.5073 19.4076 33.1775 20.387C33.8108 20.8242 34.9986 21.8931 35.1576 23.8561C34.4826 25.0127 33.5393 26.2498 32.7797 25.8003C31.4402 25.007 31.0571 25.8995 28.6633 28.6763C27.0179 30.5851 27.5451 28.65 26.7585 28.125C26.4017 27.8863 25.7734 27.938 24.5469 28.7747C21.054 31.1577 18.0157 28.9068 15.3652 28.0332C15.0371 27.9248 14.7155 27.8379 14.3997 27.7838C12.3637 27.4319 12.3489 26.2334 11.5911 25.2474C11.2801 24.8421 10.8445 24.4738 10.0923 24.2138C8.62563 23.7085 8.23836 21.702 8.17773 20.0605C8.77812 19.6733 9.4566 19.561 9.93722 19.5372C10.1276 18.9769 10.468 18.543 10.8428 18.2124C10.5213 17.2009 10.2646 15.3667 11.9109 14.0017C13.5687 12.6285 15.2717 12.777 16.1633 12.9985C16.6096 12.229 17.3446 11.3644 18.516 10.928C20.2403 10.2857 21.6169 11.4948 22.2518 12.2208Z" fill="#FFADCF"/>
<path d="M22.5439 28.5901C21.9769 29.1221 21.2268 29.5302 20.4425 29.2523C19.9684 29.0844 19.567 28.6978 19.2877 28.3117C19.2201 28.2183 19.1542 28.1218 19.0994 28.0201C19.0244 27.8807 18.8118 28.0046 18.8869 28.1442C19.0524 28.4516 19.2895 28.7363 19.5451 28.9714C20.0345 29.4218 20.6674 29.6869 21.337 29.5565C21.8682 29.4531 22.3302 29.1278 22.7178 28.7641C22.8335 28.6554 22.6594 28.4817 22.5439 28.5901Z" fill="#D7609D"/>
<path d="M31.2563 19.6905C31.0196 19.5838 30.7691 19.4872 30.5134 19.4363C30.3588 19.4056 30.2926 19.6428 30.4481 19.6736C31.0244 19.7882 31.6103 20.0871 32.0311 20.4944C32.4226 20.8732 32.641 21.3581 32.6893 21.8993C32.7375 22.4389 32.6341 22.9826 32.3489 23.4466C32.253 23.6025 32.1396 23.7464 32.0089 23.8746C31.9683 23.9144 31.9258 23.952 31.8823 23.9886C31.8774 23.9926 31.8724 23.9965 31.8673 24.0005C31.8631 24.0037 31.8589 24.0067 31.8546 24.0097C31.7254 24.0994 31.8483 24.3128 31.9788 24.2222C32.1751 24.0859 32.3383 23.8953 32.475 23.7017C32.7885 23.258 32.9457 22.7173 32.9474 22.176C32.9493 21.5631 32.7755 20.9772 32.3779 20.5053C32.078 20.1492 31.6784 19.8808 31.2563 19.6905Z" fill="#D7609D"/>
<path d="M20.014 15.4697C19.2367 15.652 18.2596 15.7928 17.549 15.3239C17.2036 15.096 17.0036 14.7447 16.9339 14.3401C16.9314 14.3254 16.9293 14.3106 16.9272 14.2958C16.9265 14.2903 16.9234 14.2666 16.9224 14.2573C16.9196 14.2295 16.9174 14.2018 16.9161 14.1739C16.915 14.1497 16.914 14.1253 16.915 14.1011C16.9214 13.9427 16.6753 13.943 16.669 14.1011C16.658 14.3694 16.7391 14.6541 16.8552 14.8927C17.1241 15.4451 17.6797 15.7552 18.2723 15.8424C18.8753 15.9311 19.4905 15.8451 20.0794 15.707C20.2335 15.6709 20.1683 15.4335 20.014 15.4697Z" fill="#D7609D"/>
<path d="M34.9763 22.4827C34.6596 21.6574 34.1128 20.9407 33.4106 20.4058C33.3807 20.3831 33.3499 20.3617 33.3195 20.3398C33.6628 19.25 33.6012 18.0878 33.0795 17.0606C32.619 16.154 31.834 15.2362 30.7818 15.0516C30.4471 14.9928 30.106 15.0086 29.7768 15.0882C29.5559 14.4404 29.1688 13.8691 28.5324 13.5145C28.4932 13.4927 28.4534 13.4723 28.4133 13.4525C28.4017 12.1953 27.0437 11.4959 25.9531 11.2947C25.3553 11.1844 24.735 11.2196 24.1626 11.4304C23.7343 11.5883 23.3423 11.8299 23.0014 12.1327C22.8734 12.2465 22.7479 12.3699 22.6375 12.5036C22.3615 12.1157 22.015 11.7634 21.6467 11.4681C21.1386 11.0608 20.5456 10.744 19.8944 10.6525C18.3892 10.4409 16.9929 11.4822 16.2102 12.6856C16.1731 12.7425 16.139 12.8012 16.1041 12.8595C14.9527 12.5988 13.7384 12.7522 12.6973 13.3178C12.0177 13.6872 11.3896 14.2079 10.9859 14.8747C10.6708 15.3953 10.5071 15.9934 10.4838 16.5998C10.4633 17.1323 10.5486 17.668 10.7027 18.1774C10.3293 18.5254 10.03 18.9445 9.84942 19.4207C9.29727 19.4588 8.74635 19.5929 8.26187 19.8656C7.57133 20.2542 7.1017 20.909 6.88284 21.6645C6.60336 22.6291 6.64216 23.7103 7.07964 24.6212C7.44746 25.387 8.07804 25.9941 8.78744 26.4465C9.46363 26.8775 10.2329 27.1985 11.0121 27.3843C11.0262 27.3877 11.0402 27.3906 11.0542 27.3938C11.1866 27.7312 11.3778 28.0421 11.6402 28.2951C11.8968 28.5426 12.2055 28.7247 12.5369 28.853C13.1763 29.1004 13.8881 29.1403 14.5661 29.0927C14.8589 29.0722 15.1506 29.0334 15.4396 28.9816C15.4907 29.1167 15.5517 29.248 15.6249 29.3737C16.297 30.5267 17.7606 30.827 18.9966 30.7624C19.562 30.7328 20.1242 30.6346 20.6709 30.4881C21.329 31.2463 22.4557 31.5725 23.4126 31.2542C24.0982 31.0263 24.654 30.5193 25.0677 29.9394C25.1076 29.8834 25.1466 29.8263 25.1843 29.7682C25.3322 30.1358 25.589 30.4732 25.8946 30.7225C25.9053 30.7379 25.9203 30.7491 25.9372 30.7568C25.9884 30.7965 26.0406 30.8341 26.0939 30.8686C26.7436 31.2894 27.594 31.3142 28.3221 31.1072C28.8761 30.9499 29.3542 30.6087 29.6522 30.1126C29.8873 29.7211 30.0015 29.2685 30.0403 28.8166C30.0566 28.6259 30.0613 28.4314 30.0467 28.2392C30.3453 28.3042 30.653 28.3403 30.9556 28.3612C31.6859 28.4117 32.4465 28.3524 33.1339 28.087C33.524 27.9363 33.8864 27.7219 34.1923 27.4351C34.5409 27.1084 34.7975 26.6989 34.9711 26.2557C35.2103 25.6448 35.2972 24.9634 35.2981 24.3109C35.299 23.6895 35.1992 23.064 34.9763 22.4827ZM34.8484 25.8507C34.7196 26.2984 34.5092 26.7264 34.1983 27.0761C33.9326 27.3752 33.6057 27.6085 33.2429 27.7759C32.5929 28.0758 31.855 28.1543 31.1465 28.1256C30.723 28.1084 30.3696 28.0537 29.9577 27.9672C29.9518 27.9658 29.9458 27.9642 29.9398 27.9626C29.8417 27.9367 29.7765 28.0224 29.7883 28.1117C29.787 28.1014 29.7847 28.084 29.7856 28.0931C29.787 28.1045 29.7885 28.1158 29.7897 28.1272C29.7937 28.166 29.7972 28.2047 29.7998 28.2436C29.809 28.3788 29.8103 28.5147 29.8047 28.6501C29.7887 29.0342 29.7167 29.425 29.5512 29.7786C29.3399 30.2299 28.9842 30.5853 28.5223 30.7784C27.886 31.0445 27.0656 31.0846 26.4364 30.7792C26.3289 30.727 26.2253 30.6632 26.1269 30.5906C26.1936 29.623 26.4048 28.4881 27.1996 27.8445C27.6036 27.5173 28.1061 27.4008 28.6183 27.4506C28.6419 27.4529 28.6653 27.4556 28.6887 27.4586H28.6894C28.6913 27.4589 28.6936 27.4593 28.6968 27.4598C28.7074 27.4615 28.718 27.463 28.7286 27.4648C28.7621 27.4702 28.7955 27.4764 28.8287 27.4837C28.8584 27.4901 28.8881 27.4969 28.9171 27.5059C29.0688 27.5527 29.1337 27.3153 28.9826 27.2685C28.6671 27.1711 28.306 27.1742 27.9846 27.23C27.2432 27.3587 26.6749 27.8861 26.3539 28.5501C26.0762 29.1248 25.9526 29.7609 25.896 30.3946C25.6269 30.1306 25.4224 29.7942 25.335 29.4367C25.3108 29.3373 25.158 29.3125 25.1102 29.4072C24.9334 29.7572 24.6761 30.0775 24.397 30.3496C23.8449 30.8877 23.1137 31.2205 22.332 31.109C21.7338 31.0237 21.1829 30.7316 20.7994 30.2628C20.761 30.2159 20.712 30.2128 20.6716 30.2333C19.6493 30.5155 18.5255 30.6545 17.486 30.3854C16.8921 30.2317 16.3109 29.933 15.9488 29.4226C15.5858 28.9107 15.4659 28.2753 15.4782 27.6574C15.4864 27.2469 15.5407 26.8211 15.6665 26.4284C15.7149 26.2771 15.4773 26.2124 15.4292 26.363C15.316 26.7166 15.2624 27.0982 15.2399 27.4673C15.2138 27.8935 15.2448 28.3336 15.3622 28.7469C14.4205 28.9157 13.3611 28.9651 12.477 28.563C11.9511 28.3239 11.537 27.916 11.3115 27.3812C11.282 27.3114 11.2673 27.2093 11.1917 27.1756C11.1717 27.1666 11.1499 27.1637 11.1285 27.1588C11.0105 27.1324 10.8936 27.1008 10.7775 27.0669C10.6312 27.0243 10.4859 26.9772 10.3421 26.9261C10.6841 26.1539 11.2426 25.3321 12.1387 25.2059C12.6715 25.1308 13.1987 25.3162 13.6436 25.5892C13.7207 25.6366 13.7955 25.6872 13.8684 25.7407C13.8786 25.7482 13.9032 25.7674 13.8943 25.7603C13.899 25.764 13.9037 25.7678 13.9084 25.7715C13.9154 25.7772 13.9224 25.7828 13.9292 25.7886C14.0489 25.891 14.2238 25.7178 14.1032 25.6146C13.8233 25.3752 13.4782 25.1943 13.1316 25.0759C12.8309 24.9732 12.5055 24.9216 12.1881 24.9539C11.7964 24.9938 11.4392 25.1509 11.1319 25.3951C10.6641 25.767 10.3526 26.2998 10.1138 26.8409C10.038 26.8112 9.96279 26.7803 9.88822 26.748C8.89195 26.3174 7.93637 25.6623 7.39603 24.6971C7.06758 24.1102 6.9296 23.4435 6.95741 22.7739C6.98448 22.1233 7.13049 21.4607 7.49053 20.9098C7.98042 20.1601 8.83428 19.7697 9.6929 19.6792C9.7176 19.6766 9.74237 19.6756 9.76714 19.6735C9.74122 19.7666 9.71874 19.8611 9.70217 19.958C9.57462 20.7036 9.71366 21.4622 9.97263 22.1648C10.027 22.3122 10.2649 22.2485 10.2099 22.0995C9.98371 21.4856 9.84589 20.8313 9.91792 20.1753C9.97009 19.7011 10.1467 19.2479 10.4211 18.8585C10.5648 18.6546 10.7356 18.4699 10.923 18.3046C10.9288 18.3003 10.9341 18.2956 10.939 18.2903C11.0538 18.1903 11.1748 18.0974 11.2997 18.0122C11.4486 17.9105 11.6038 17.818 11.7636 17.7344C11.8352 17.6969 11.9075 17.6613 11.9808 17.6274C12.0136 17.6123 12.0465 17.5974 12.0796 17.583C12.1295 17.5612 12.1151 17.5673 12.1576 17.55C12.3056 17.4895 12.4577 17.4318 12.613 17.3924C12.7664 17.3535 12.7014 17.1161 12.5476 17.1551C12.0927 17.2704 11.6465 17.4917 11.2556 17.7462C11.1347 17.825 11.0186 17.9104 10.907 18.0009C10.6516 17.0828 10.6395 16.0781 11.0797 15.2124C11.4112 14.5607 11.9591 14.055 12.5752 13.6735C13.1546 13.3146 13.8096 13.0773 14.4886 13.0046C14.9855 12.9515 15.4882 12.9793 15.9764 13.0827C15.8423 13.3297 15.7236 13.5851 15.6234 13.8476C15.5467 14.0481 15.4746 14.2546 15.4292 14.4648C15.3958 14.6193 15.633 14.6852 15.6665 14.5303C15.7793 14.0079 16.0128 13.4972 16.2812 13.0389C16.6043 12.4874 17.0226 11.9828 17.5375 11.6002C18.1276 11.1617 18.849 10.843 19.5956 10.871C20.2322 10.895 20.8275 11.1649 21.3353 11.5369C21.6126 11.7401 21.8799 11.9802 22.1161 12.2438C21.8969 12.9985 21.7936 13.8458 22.1009 14.5903C22.2686 14.9971 22.5535 15.3515 22.9291 15.584C23.0063 15.6317 23.088 15.6758 23.1734 15.7068C23.3226 15.7609 23.3868 15.5232 23.2389 15.4695C23.2341 15.4678 23.2309 15.4667 23.2288 15.4661C23.2262 15.4648 23.2234 15.4634 23.2188 15.4611C23.1769 15.4407 23.1354 15.42 23.095 15.3965C22.9496 15.3122 22.8611 15.2425 22.7428 15.1248C22.3722 14.7562 22.1881 14.2417 22.16 13.719C22.1375 13.2979 22.2018 12.8797 22.3082 12.4733C22.3854 12.5716 22.4588 12.672 22.5255 12.7749C22.5781 12.8559 22.6847 12.8521 22.738 12.7749C22.7447 12.7651 22.752 12.7557 22.759 12.7461C22.7616 12.7426 22.7634 12.7402 22.7647 12.7382C22.7653 12.7376 22.7662 12.7365 22.7677 12.7346C22.7809 12.7182 22.7939 12.7018 22.8072 12.6856C22.886 12.5904 22.9707 12.5002 23.0595 12.4142C23.3431 12.1397 23.6714 11.9127 24.0306 11.7488C24.5233 11.5239 25.0699 11.4416 25.6079 11.4927C25.9488 11.525 26.2841 11.6135 26.6036 11.7347C26.9371 11.8612 27.2688 12.0255 27.5457 12.2531C27.8897 12.5358 28.1219 12.9086 28.1618 13.3432C27.517 13.0973 26.7949 13.0785 26.1167 13.1758C25.9323 13.2022 25.7454 13.2348 25.5666 13.2882C25.4153 13.3334 25.4797 13.571 25.632 13.5256C25.7696 13.4845 25.9123 13.4571 26.0537 13.4332C26.0837 13.428 26.1138 13.4232 26.144 13.4187C26.1631 13.4158 26.1823 13.413 26.2015 13.4103C26.2345 13.4056 26.1961 13.4106 26.2389 13.4055C26.3183 13.3957 26.3979 13.3873 26.4777 13.3811C26.6634 13.3667 26.85 13.3624 27.0361 13.3703C27.9153 13.4077 28.7779 13.7618 29.2652 14.5481C29.6752 15.2097 29.7825 16.0136 29.7841 16.778C29.7844 16.9363 30.0305 16.9367 30.0302 16.778C30.0292 16.2963 29.9784 15.795 29.8492 15.3238C30.4813 15.1771 31.1187 15.3115 31.6533 15.692C32.1098 16.0169 32.4663 16.4803 32.7452 16.961C33.0506 17.4874 33.2461 18.0765 33.2876 18.6851C33.3263 19.2526 33.2374 19.8164 33.0576 20.3544C33.0379 20.4136 33.0627 20.4591 33.1031 20.4839C33.1068 20.4871 33.11 20.4904 33.1141 20.4934C33.7378 20.9244 34.2648 21.5348 34.6006 22.2292C34.8461 22.7368 34.9885 23.294 35.0342 23.8553C35.0881 24.5182 35.0329 25.2105 34.8484 25.8507Z" fill="#D7609D"/>
<mask id="mask1_477_5909" style="mask-type:luminance" maskUnits="userSpaceOnUse" x="0" y="-6" width="42" height="41">
<path d="M0.630859 -5.93164H41.3709V34.8084H0.630859V-5.93164Z" fill="white"/>
</mask>
<g mask="url(#mask1_477_5909)">
<path d="M20.9812 25.8445C17.1845 25.8445 16.1516 23.6987 16.1094 23.6074C15.9966 23.3626 16.1035 23.0725 16.3484 22.9596C16.5933 22.8469 16.8831 22.9537 16.9961 23.1987C17.0272 23.2622 17.8483 24.8681 20.9812 24.8681C24.1202 24.8681 24.9762 23.2419 25.0112 23.1726C25.1316 22.9337 25.4232 22.8342 25.6633 22.9517C25.9035 23.0697 26.0052 23.3565 25.8899 23.598C25.8462 23.6898 24.7734 25.8445 20.9812 25.8445Z" fill="black"/>
<path d="M28.4156 21.1091C28.2832 21.1091 28.149 21.0752 28.0264 21.0039L25.1151 19.3133C24.8757 19.1742 24.7284 18.9183 24.7285 18.6415C24.7285 18.3648 24.876 18.1089 25.1154 17.9701L28.004 16.2944C28.3751 16.0793 28.8501 16.2055 29.0653 16.5764C29.2805 16.9474 29.1542 17.4226 28.7833 17.6378L27.0519 18.6421L28.8063 19.6609C29.1771 19.8763 29.3032 20.3515 29.0879 20.7223C28.9438 20.9705 28.6832 21.1091 28.4156 21.1091Z" fill="black"/>
<path d="M13.6085 21.1175C13.3349 21.1175 13.069 20.9742 12.9244 20.7191C12.7104 20.3417 12.8431 19.8623 13.2205 19.6484L14.9717 18.6559L13.1969 17.6487C12.8195 17.4346 12.6872 16.9551 12.9013 16.5777C13.1153 16.2003 13.5947 16.068 13.9723 16.2822L16.9521 17.9729C17.1979 18.1125 17.35 18.3736 17.3499 18.6564C17.3499 18.9392 17.1977 19.2002 16.9517 19.3396L13.9952 21.0153C13.8729 21.0846 13.7398 21.1175 13.6085 21.1175Z" fill="black"/>
</g>
</g>
</g>
<defs>
<clipPath id="clip0_477_5909">
<rect width="42" height="42" fill="white"/>
</clipPath>
</defs>
</svg>
