<?xml version="1.0" encoding="UTF-8"?><svg xmlns="http://www.w3.org/2000/svg" width="13.2689cm" height="12.48661cm" viewBox="0 0 376.12629 353.95127"><defs><style>.cls-1{opacity:.35;}.cls-1,.cls-2,.cls-3,.cls-4,.cls-5,.cls-6{stroke-width:0px;}.cls-1,.cls-5{fill:#fff;}.cls-7{stroke-width:3.80103px;}.cls-7,.cls-8,.cls-9,.cls-10,.cls-11{stroke-linecap:round;stroke-linejoin:round;}.cls-7,.cls-8,.cls-10{fill:none;stroke:#000;}.cls-8{stroke-width:1.89679px;}.cls-9{stroke-width:8.53556px;}.cls-9,.cls-11{fill:#436ed1;stroke:#436ed1;}.cls-10{stroke-width:3.47347px;}.cls-12{isolation:isolate;}.cls-11{stroke-width:7.58716px;}.cls-3{mix-blend-mode:multiply;opacity:.42;}.cls-4{fill:#5865f2;}.cls-6{fill:#ede583;}</style></defs><g class="cls-12"><g id="Shell"><path class="cls-5" d="M91.10511,188.27127s-10.2629-18.98637-7.69718-31.30186,22.06524-20.52581,30.27557-14.88121,95.445-12.82863,125.72057-13.34177,80.56379,23.60468,80.56379,23.60468c0,0,15.39436-1.02629,18.47323,16.93379,3.07887,17.96008-.51315,58.49855-39.51218,83.12952-38.99903,24.63097-154.4567,60.03799-207.8238-64.14315Z"/><path class="cls-4" d="M109.06519,140.54877s10.2629,1.53944,15.39436,23.09153,22.06524,68.76145,63.11686,80.56379c41.05161,11.80234,85.69525-7.69718,110.32621-27.19669s28.22298-52.85395,25.65726-66.70887c-2.56573-13.85492-31.815-53.3671-47.20936-64.65629s-53.3671-15.9075-72.86662-12.82863c-19.49952,3.07887-45.15678,13.34177-57.98541,26.68355s-36.43331,41.05161-36.43331,41.05161Z"/><path class="cls-6" d="M102.90745,169.2849s-16.42065,10.77605-17.96008,29.76242,13.34177,40.02532,29.76242,45.15678c0,0,37.4596,42.0779,98.52387,32.84129,0,0-49.77508-7.69718-70.30089-31.30186s-28.22298-44.13049-31.30186-56.44597-8.72347-20.01266-8.72347-20.01266Z"/><path class="cls-3" d="M86.88619,175.74461s3.52455-10.79393,10.35336-11.67507,8.37081,5.50711,9.03166,10.13308-.22028,27.09498-.22028,27.09498l25.99355,34.14408s-18.50389.66085-28.85725-12.99678-7.93024-27.09498-7.93024-27.09498l-7.26938-5.06654,2.20284-7.48967-3.30427-7.0491Z"/><path class="cls-3" d="M239.00875,274.15307s39.10349-6.60189,45.70538-25.89971c6.60189-19.29783-1.01568-20.82134-1.01568-20.82134,0,0,27.93106-16.75864,35.04079-38.08782s5.84248-37.65796,5.84248-37.65796c0,0,13.96319,4.64852,13.96319,22.42283s-2.53919,55.86213-39.10349,78.20698c-36.5643,22.34485-60.43267,21.83701-60.43267,21.83701Z"/><path class="cls-3" d="M114.36544,243.72033s23.06069,7.6869,33.30989,6.40575c0,0,37.15334,28.18529,71.1038,26.26357,0,0-73.02553,6.40575-104.41369-32.66932Z"/><path class="cls-10" d="M110.97946,141.56449s27.14332-39.50128,53.92844-56.0542c28.07083-17.34747,85.27633-18.75238,113.71549,2.68637,28.43916,21.43875,45.8545,64.20597,45.8545,64.20597,0,0,20.5637,3.5002,13.56329,42.43997-7.00041,38.93977-41.14438,70.46294-96.69313,80.06716-93.63045,16.18844-128.19497-31.93936-128.19497-31.93936,0,0-42.31856-18.2287-23.50496-60.23114,0,0-12.46794-15.85621-3.33987-30.05887,10.97219-17.072,24.67122-11.1159,24.67122-11.1159Z"/><path class="cls-10" d="M106.58851,140.20402s10.02137-2.84445,19.70379,27.73159,22.93203,69.81529,69.30569,78.4785c46.37366,8.66321,106.50241-18.27924,121.79455-54.52727,13.75922-32.61444,2.548-50.45046,2.548-50.45046"/><path class="cls-10" d="M182.80573,90.75133c-3.83392,4.3413-12.05577,14.12282-17.07583,23.54068-1.54288,2.89451-1.61991,6.3494-.21274,9.31225,3.8967,8.20468,13.39885,25.46045,28.32322,35.46028,1.73326,1.16135,3.7872,1.73843,5.87335,1.70784,9.06933-.13297,35.8963-.8796,51.21507-5.07208,2.14884-.5881,4.03327-1.87302,5.39726-3.63452,3.59568-4.64355,10.80977-14.90266,14.08639-26.24383.84612-2.92862.27636-6.08624-1.44604-8.60141-5.10656-7.45698-16.93747-23.83339-27.10804-31.2079-1.44175-1.04539-3.11343-1.71606-4.87966-1.94386-6.73836-.86908-26.28717-2.52-49.00569,3.51017-1.99539.52964-3.80069,1.62493-5.16728,3.17237Z"/><path class="cls-10" d="M93.66264,169.01867s1.6329-4.59254,6.03742-3.96963c5.0142.70914,8.35055,16.32152,14.80324,34.5409s34.16133,87.68074,128.29476,74.39578"/><path class="cls-10" d="M255.31212,154.47967s20.49032,25.14721,33.06392,68.92198"/><path class="cls-10" d="M270.68508,120.05111s28.20577,3.99403,44.50007,15.72592"/><path class="cls-10" d="M193.84036,159.06454s-19.61752,48.97576-24.17992,77.00195"/><path class="cls-10" d="M164.52022,117.42605s-16.01735,5.67454-41.03296,37.24185"/><path class="cls-10" d="M183.61135,88.77639s-6.56792-4.29441-11.87278-6.56792"/><path class="cls-10" d="M241.85836,86.01265s4.65347-6.0777,7.4322-9.86689"/><path class="cls-10" d="M97.21537,231.2231s18.79516,21.11555,51.04857,19.49127"/><path class="cls-10" d="M104.20043,169.61833s-15.50656,5.96406-18.36931,26.48043"/><path class="cls-2" d="M93.5509,178.38373l8.06288,9.67546s-8.38539,9.67546-.32252,27.41379,32.25152,19.99594,32.25152,19.99594c0,0-16.44827-23.22109-21.60852-41.60446s-7.74036-24.83367-7.74036-24.83367c0,0-7.41785,3.54767-10.643,9.35294Z"/><path class="cls-3" d="M324.58172,151.68625c-10.59119-31.01709-47.6604-65.81677-47.6604-65.81677,0,0,4.29419,13.21228,5.66193,31.89191-5.78345-.85065-13.01288-1.27612-13.01288-1.27612l1.24493,3.31989,12.0318,2.44714c.76923,17.35254-1.23529,38.55658-11.10693,58.16211-1.22491-2.79041-2.39423-5.37128-3.41479-7.49091-5.39484-11.20465-11.61963-18.67444-11.61963-18.67444l-3.73486.41498s9.4176,16.95447,14.95215,32.59332c-1.41608,2.29968-2.94983,4.56818-4.61896,6.79364-21.1109,28.14789-58.79919,32.1474-84.39044,31.12573,2.12775-11.03491,9.14911-46.5495,14.71411-64.28784,0,0-9.95972,26.97412-15.35455,42.32867-3.41949,9.7323-5.50366,17.2923-6.57257,21.5274-11.76941-.93927-19.60413-2.70294-19.60413-2.70294,52.95599,49.92993,119.52924,18.9129,146.76373-5.29559,27.23456-24.20844,25.7215-65.06018,25.7215-65.06018Z"/><path class="cls-3" d="M198.4058,159.26933s44.04651-5.92222,50.70901-12.21458,15.17569-19.24722,14.43541-26.64999c-.74028-7.40278-7.03264-19.24722-7.03264-19.24722,0,0,17.05568,16.75663,13.89485,24.66442-3.16083,7.90779-11.00719,27.0496-19.48366,29.87834-8.47647,2.82874-51.41256,6.90027-52.52298,3.56902Z"/><path class="cls-5" d="M104.50804,160.46512s-.25,14.24997,5.99999,31.24994,23.99995,48.2499,34.99993,52.99989,10.74998-6.99999,5.74999-14.74997-19.74996-34.24993-25.24995-46.99991-21.49996-22.49995-21.49996-22.49995Z"/><path class="cls-4" d="M75.82648,168.49927c-9.2945,2.39253-18.83772,12.64681-19.13937,20.9956-.27043,7.48481-5.64244,21.78359,13.84512,37.90028,19.48756,16.11669,26.0368,17.17402,34.51356,17.17875,8.47675.00472,16.1661-3.23554,20.32328-14.89607,4.15718-11.66053,6.41824-30.19121.31271-37.41499-6.48962-7.67784-14.03447-13.27508-23.43137-18.39904-7.78761-4.24644-16.2327-7.98787-26.42392-5.36452Z"/><path class="cls-1" d="M92.95527,240.64843s6.58045-1.85718,8.24497-7.3391,4.76247-23.81818-3.40755-31.73133c-8.17002-7.91314-19.28155-17.2316-25.68575-20.75176-6.69924-3.68233-13.64348,2.96528-14.37805,8.74755-.73457,5.78227-3.28002,15.06808,3.1278,24.84108,6.40782,9.77301,21.46657,23.73542,32.09858,26.23355Z"/><path class="cls-9" d="M80.9043,217.01283s3.78742,3.06338,7.63686,5.91906"/><path class="cls-11" d="M64.12476,204.73205c.75967.54186,1.69643,1.50186,3.17327,2.44971"/><path class="cls-7" d="M75.82648,168.49927c-9.2945,2.39253-17.59528,10.71481-18.64834,19.91276-.85192,7.44109-6.13347,22.86643,13.35408,38.98313,19.48756,16.11669,26.0368,17.17402,34.51356,17.17875,8.47675.00472,16.1661-3.23554,20.32328-14.89607,4.15718-11.66053,6.41824-30.19121.31271-37.41499-6.48962-7.67784-14.03447-13.27508-23.43137-18.39904-7.78761-4.24644-16.2327-7.98787-26.42392-5.36452Z"/><path class="cls-8" d="M97.5557,238.1305c1.37186-1.12384,2.22916-2.8311,3.26396-4.66918,2.53241-4.49826,5.62095-23.0295-3.43877-32.29512-7.95174-8.13246-19.25033-16.6678-25.65454-20.18796-1.6297-.89579-3.31399-1.38187-4.94044-1.52133"/><path class="cls-5" d="M104.08686,160.33043s-.25,14.24997,5.99999,31.24994,23.99995,48.2499,34.99993,52.99989,13.06462-9.8077,7.72589-17.32835c-16.99951-23.94714-21.28634-37.10328-25.57318-50.25942-4.30193-13.20247-23.15263-16.66206-23.15263-16.66206Z"/><path class="cls-10" d="M141.28257,243.95578c-25.99995-28.99994-36.77452-71.99068-36.77452-71.99068,0,0-.75-9.99998-11.99998-7.24999"/><path class="cls-3" d="M95.06726,171.02035s9.64249,44.9983,27.77957,64.74246l-9.18333,5.96916s4.36208,5.51,5.05083,5.05083,10.10166-6.19875,10.10166-6.19875l9.87208,2.06625s-17.67791-25.48373-23.64707-41.55456-9.87208-27.09082-9.87208-27.09082l-10.10166-2.98458Z"/></g></g></svg>