<?xml version="1.0" encoding="UTF-8"?><svg xmlns="http://www.w3.org/2000/svg" width="13.2689cm" height="12.48661cm" xmlns:xlink="http://www.w3.org/1999/xlink" viewBox="0 0 376.12629 353.95127"><defs><style>.cls-1{fill:url(#linear-gradient-17);}.cls-1,.cls-2{opacity:.25;}.cls-1,.cls-2,.cls-3,.cls-4,.cls-5,.cls-6,.cls-7,.cls-8,.cls-9,.cls-10,.cls-11,.cls-12,.cls-13,.cls-14,.cls-15,.cls-16,.cls-17,.cls-18,.cls-19,.cls-20,.cls-21,.cls-22,.cls-23,.cls-24,.cls-25,.cls-26,.cls-27{stroke-width:0px;}.cls-2{fill:url(#linear-gradient-16);}.cls-3{fill:url(#linear-gradient-10);}.cls-4{fill:url(#linear-gradient-18);}.cls-28{stroke-width:4.08582px;}.cls-28,.cls-29,.cls-30,.cls-31,.cls-32{stroke:#000;}.cls-28,.cls-33,.cls-34,.cls-30,.cls-35,.cls-31,.cls-32{fill:none;}.cls-28,.cls-30,.cls-35,.cls-31,.cls-32{stroke-linecap:round;stroke-linejoin:round;}.cls-5{fill:url(#linear-gradient-4);}.cls-5,.cls-6{opacity:.56;}.cls-6{fill:url(#linear-gradient-6);}.cls-7{fill:url(#linear-gradient-5);opacity:.45;}.cls-29{stroke-width:1.17629px;}.cls-29,.cls-33,.cls-34{stroke-miterlimit:10;}.cls-36{opacity:.59;}.cls-33{stroke:url(#linear-gradient-20);}.cls-34{stroke:url(#linear-gradient-19);}.cls-30{stroke-width:3.5px;}.cls-8{fill:url(#linear-gradient-2);}.cls-9{fill:url(#linear-gradient-3);}.cls-10{fill:url(#linear-gradient-8);}.cls-11{fill:url(#linear-gradient-9);}.cls-12{fill:url(#linear-gradient-7);}.cls-13{fill:url(#linear-gradient);}.cls-13,.cls-23{opacity:.5;}.cls-35{stroke:#fff;stroke-width:4.40701px;}.cls-37{isolation:isolate;}.cls-15{fill:url(#linear-gradient-11);}.cls-15,.cls-16,.cls-23{mix-blend-mode:overlay;}.cls-16{fill:url(#linear-gradient-12);}.cls-17{fill:#52f752;}.cls-18{fill:#5865f2;}.cls-19{fill:#211500;}.cls-20,.cls-23{fill:#fff;}.cls-21{fill:#fff064;}.cls-22{fill:#ffe652;}.cls-31{stroke-width:3.70847px;}.cls-24{fill:url(#linear-gradient-14);}.cls-24,.cls-25,.cls-26{opacity:.75;}.cls-25{fill:url(#linear-gradient-13);}.cls-26{fill:url(#linear-gradient-15);}.cls-27{fill:#af6308;mix-blend-mode:multiply;opacity:.4;}.cls-32{stroke-width:3.01609px;}</style><linearGradient id="linear-gradient" x1="205.58734" y1="98.32583" x2="220.24026" y2="183.22655" gradientUnits="userSpaceOnUse"><stop offset=".18483" stop-color="#af6308"/><stop offset="1" stop-color="#af6308" stop-opacity="0"/></linearGradient><linearGradient id="linear-gradient-2" x1="201.54238" y1="52.55686" x2="263.81131" y2="157.20326" xlink:href="#linear-gradient"/><linearGradient id="linear-gradient-3" x1="215.05763" y1="106.96746" x2="176.71105" y2="167.01405" xlink:href="#linear-gradient"/><linearGradient id="linear-gradient-4" x1="111.17036" y1="237.534" x2="240.62167" y2="247.81752" xlink:href="#linear-gradient"/><linearGradient id="linear-gradient-5" x1="34.17272" y1="198.98099" x2="158.17982" y2="214.70872" xlink:href="#linear-gradient"/><linearGradient id="linear-gradient-6" x1="37.00009" y1="116.35117" x2="117.30642" y2="177.26148" xlink:href="#linear-gradient"/><linearGradient id="linear-gradient-7" x1="258.30644" y1="43.22395" x2="238.98422" y2="227.73226" xlink:href="#linear-gradient"/><linearGradient id="linear-gradient-8" x1="204.93504" y1="61.91411" x2="190.29009" y2="201.75905" xlink:href="#linear-gradient"/><linearGradient id="linear-gradient-9" x1="235.58408" y1="118.53986" x2="205.44684" y2="181.18468" xlink:href="#linear-gradient"/><linearGradient id="linear-gradient-10" x1="199.63329" y1="114.38518" x2="173.3032" y2="169.11628" xlink:href="#linear-gradient"/><linearGradient id="linear-gradient-11" x1="277.11945" y1="260.20101" x2="246.58826" y2="227.92518" xlink:href="#linear-gradient"/><linearGradient id="linear-gradient-12" x1="24.98231" y1="187.53199" x2="116.57587" y2="169.21328" xlink:href="#linear-gradient"/><linearGradient id="linear-gradient-13" x1="245.38701" y1="248.58845" x2="287.15221" y2="196.09191" gradientUnits="userSpaceOnUse"><stop offset="0" stop-color="#fff" stop-opacity="0"/><stop offset=".01611" stop-color="#fff" stop-opacity=".05527"/><stop offset=".09335" stop-color="#fff" stop-opacity=".30188"/><stop offset=".16976" stop-color="#fff" stop-opacity=".51473"/><stop offset=".24349" stop-color="#fff" stop-opacity=".68885"/><stop offset=".31397" stop-color="#fff" stop-opacity=".82424"/><stop offset=".38038" stop-color="#fff" stop-opacity=".92115"/><stop offset=".44112" stop-color="#fff" stop-opacity=".97972"/><stop offset=".49097" stop-color="#fff"/><stop offset=".61835" stop-color="#fff" stop-opacity=".9907"/><stop offset=".68818" stop-color="#fff" stop-opacity=".95932"/><stop offset=".74409" stop-color="#fff" stop-opacity=".9055"/><stop offset=".79264" stop-color="#fff" stop-opacity=".82909"/><stop offset=".83641" stop-color="#fff" stop-opacity=".72994"/><stop offset=".87674" stop-color="#fff" stop-opacity=".60791"/><stop offset=".91446" stop-color="#fff" stop-opacity=".46271"/><stop offset=".95008" stop-color="#fff" stop-opacity=".29428"/><stop offset=".98283" stop-color="#fff" stop-opacity=".10939"/><stop offset="1" stop-color="#fff" stop-opacity="0"/></linearGradient><linearGradient id="linear-gradient-14" x1="208.59186" y1="147.96665" x2="250.34496" y2="95.48532" gradientTransform="translate(64.40227 -13.19568) rotate(33.11915)" gradientUnits="userSpaceOnUse"><stop offset="0" stop-color="#fff" stop-opacity="0"/><stop offset=".0563" stop-color="#fff" stop-opacity=".20452"/><stop offset=".12156" stop-color="#fff" stop-opacity=".41299"/><stop offset=".18772" stop-color="#fff" stop-opacity=".59284"/><stop offset=".2534" stop-color="#fff" stop-opacity=".73966"/><stop offset=".31854" stop-color="#fff" stop-opacity=".85365"/><stop offset=".38297" stop-color="#fff" stop-opacity=".93493"/><stop offset=".44641" stop-color="#fff" stop-opacity=".98368"/><stop offset=".50771" stop-color="#fff"/><stop offset=".56666" stop-color="#fff" stop-opacity=".98354"/><stop offset=".62813" stop-color="#fff" stop-opacity=".93443"/><stop offset=".69075" stop-color="#fff" stop-opacity=".85256"/><stop offset=".75419" stop-color="#fff" stop-opacity=".73777"/><stop offset=".81826" stop-color="#fff" stop-opacity=".58995"/><stop offset=".88287" stop-color="#fff" stop-opacity=".40889"/><stop offset=".94663" stop-color="#fff" stop-opacity=".1991"/><stop offset="1" stop-color="#fff" stop-opacity="0"/></linearGradient><linearGradient id="linear-gradient-15" x1="160.26856" y1="97.56696" x2="199.64796" y2="48.06924" gradientTransform="translate(83.49238 .42245) rotate(46.64702)" gradientUnits="userSpaceOnUse"><stop offset="0" stop-color="#fff" stop-opacity="0"/><stop offset=".03714" stop-color="#fff" stop-opacity=".17485"/><stop offset=".08378" stop-color="#fff" stop-opacity=".36634"/><stop offset=".13301" stop-color="#fff" stop-opacity=".53633"/><stop offset=".18391" stop-color="#fff" stop-opacity=".67953"/><stop offset=".23696" stop-color="#fff" stop-opacity=".79621"/><stop offset=".2928" stop-color="#fff" stop-opacity=".88639"/><stop offset=".35272" stop-color="#fff" stop-opacity=".95031"/><stop offset=".41961" stop-color="#fff" stop-opacity=".9881"/><stop offset=".50771" stop-color="#fff"/><stop offset=".56376" stop-color="#fff" stop-opacity=".98259"/><stop offset=".62491" stop-color="#fff" stop-opacity=".93112"/><stop offset=".6885" stop-color="#fff" stop-opacity=".84548"/><stop offset=".75373" stop-color="#fff" stop-opacity=".72557"/><stop offset=".8203" stop-color="#fff" stop-opacity=".57116"/><stop offset=".88792" stop-color="#fff" stop-opacity=".38219"/><stop offset=".95514" stop-color="#fff" stop-opacity=".16314"/><stop offset="1" stop-color="#fff" stop-opacity="0"/></linearGradient><linearGradient id="linear-gradient-16" x1="106.3327" y1="210.03777" x2="188.56227" y2="200.15955" gradientUnits="userSpaceOnUse"><stop offset="0" stop-color="#fff" stop-opacity="0"/><stop offset=".00088" stop-color="#fff" stop-opacity=".00595"/><stop offset=".03722" stop-color="#fff" stop-opacity=".23587"/><stop offset=".07438" stop-color="#fff" stop-opacity=".43939"/><stop offset=".11162" stop-color="#fff" stop-opacity=".61136"/><stop offset=".14892" stop-color="#fff" stop-opacity=".75177"/><stop offset=".18629" stop-color="#fff" stop-opacity=".86063"/><stop offset=".2238" stop-color="#fff" stop-opacity=".9382"/><stop offset=".26156" stop-color="#fff" stop-opacity=".98462"/><stop offset=".29995" stop-color="#fff"/><stop offset=".59569" stop-color="#fff" stop-opacity="0"/></linearGradient><linearGradient id="linear-gradient-17" x1="118.44308" y1="84.86051" x2="198.82489" y2="75.20425" gradientTransform="translate(26.91914 17.53508) rotate(31.71678)" xlink:href="#linear-gradient-16"/><linearGradient id="linear-gradient-18" x1="230.83826" y1="268.26359" x2="230.83826" y2="118.62594" gradientUnits="userSpaceOnUse"><stop offset="0" stop-color="#af6308" stop-opacity="0"/><stop offset=".51046" stop-color="#af6308"/><stop offset=".99444" stop-color="#af6308" stop-opacity="0"/><stop offset="1" stop-color="#af6308" stop-opacity="0"/></linearGradient><linearGradient id="linear-gradient-19" x1="167.60519" y1="233.74107" x2="167.60519" y2="136.16019" xlink:href="#linear-gradient-18"/><linearGradient id="linear-gradient-20" x1="135.9536" y1="189.17973" x2="135.9536" y2="169.46721" xlink:href="#linear-gradient-18"/></defs><g class="cls-37"><g id="Layer_4"><path class="cls-17" d="M210.11487,140.40402s17.72567,3.13892,25.84993-8.67819l3.87749,2.03107s9.04748-2.21571,14.77139-9.6014c5.72391-7.3857,4.98534-11.07854,4.98534-11.07854,0,0-10.70926-3.50821-15.32532-7.01641s-15.32532-12.1864-15.87925-14.58675,1.66178-8.12427,1.47714-10.52462-2.40035-10.70926-4.24678-11.26319-6.83177.55393-17.35638,4.06213c-10.52462,3.50821-22.52637,8.30891-22.89566,10.8939s.36928,9.04748,1.84642,11.44783,6.64713,3.32356,9.23212,3.32356,5.16999,1.84642,6.83177,4.8007c1.66178,2.95428,4.43142,8.12427,2.76964,10.52462s-4.8007,4.06213-4.61606,4.61606,4.06213,7.93962,9.04748,9.6014l-.36928,11.44783Z"/><path class="cls-27" d="M255.15466,122.82122s-17.33296-10.02801-23.10917-22.68066c0,0,5.50115,3.02563,11.55242,6.87644,6.05127,3.85081,16.993,5.8675,16.993,5.8675,0,0-1.031,5.93678-5.43625,9.93671Z"/><path class="cls-27" d="M186.64161,83.5255s4.00621-1.4568,5.64511,7.83032c0,0,10.19762-3.64201,17.84584-.5463s12.56493,11.47232,16.20693,19.66684,9.62532,21.24947,9.62532,21.24947c0,0-2.7055,3.33408-4.34441,4.24458,0,0-10.74392-10.56182-13.29333-16.93533-2.54941-6.37351-10.74392-10.19762-10.74392-10.19762l-8.19452-10.37972-10.56182.7284s-5.82721-9.46922-2.1852-15.66063Z"/><path class="cls-22" d="M73.24283,211.26535s6.92976-7.36287,12.9933-9.09531c0,0-16.45818-9.96153-21.2224-22.95484-4.76421-12.9933-6.06354-30.75082-6.06354-30.75082l7.36287-7.36287s6.06354-1.29933,9.52842,1.73244,27.28594,16.45818,47.64211,19.48995c20.35617,3.03177,41.14546-4.76421,52.40632-14.72574,11.26086-9.96153,12.12708-15.15885,17.75751-20.78928,5.63043-5.63043,7.36287-7.36287,9.96153-9.09531s4.76421-3.03177,3.89799-6.06354-4.76421-10.39464-6.49665-11.69397-6.06354-2.16555-7.79598-1.73244-5.63043.86622-6.92976-4.3311-2.16555-11.26086,3.89799-14.29263,26.41972-9.52842,30.31771-10.39464c3.89799-.86622,8.6622,1.29933,9.09531,5.63043s-2.59866,9.52842-1.73244,12.9933c.86622,3.46488,5.19732,10.39464,7.79598,12.9933s12.9933,9.52842,26.41972,12.56019c13.42641,3.03177,27.71905,11.69397,34.2157,28.58527,6.49665,16.89129,14.29263,39.41302,3.46488,68.4314-10.82775,29.01838-28.58527,54.13876-58.03675,67.56518-29.45149,13.42641-55.8712,12.56019-71.89628,4.76421-16.02507-7.79598-26.41972-18.62373-26.41972-18.62373l-.86622-10.82775s-24.68728-1.73244-41.57857-8.6622c-16.89129-6.92976-19.48995-11.69397-22.95484-15.59196s-6.06354-6.49665-6.06354-6.49665l1.29933-11.26086Z"/><path class="cls-27" d="M204.85437,117.8187s4.30416,10.64714,4.98377,13.5921l-1.81228-21.74736-3.17149,8.15526Z"/><path class="cls-28" d="M191.83496,98.79958s12.92381-1.79582,16.02488-1.79582,8.26953,2.84265,13.17957,8.52796c4.91003,5.6853,14.18059,20.30176,14.71377,25.39783"/><polygon class="cls-14" points="147.05028 248.65171 149.5173 257.49186 145.61119 263.24824 141.91066 262.4259 142.93859 247.62379 147.05028 248.65171"/><polygon class="cls-14" points="76.54024 208.65735 79.20729 218.31172 74.98447 224.59829 70.9839 223.70021 72.21508 209.20093 76.54024 208.65735"/><polygon class="cls-14" points="69.61047 143.25251 65.27285 150.58757 58.52577 150.87736 56.45936 147.37003 67.39318 139.28665 69.61047 143.25251"/><path class="cls-13" d="M199.38863,98.45773c1.09684-.63377,5.10312.07322,10.75904,11.85639,14.13126,29.44013-16.0251,62.68643-16.0251,62.68643,0,0-10.84156,28.50829,8.54053,33.67684,23.67098,6.31226,21.10494,4.73784,28.85777-4.73784,1.71667-2.09815,16.38105-24.36636,15.62594-36.95155-.75511-12.58519-3.18201-18.49168-6.83423-24.03765-6.36291-9.66219-8.5431-7.91136-11.31184-13.19714-2.76874-5.28578-1.66463-6.62885-4.68508-12.66974s-6.04089-12.33349-9.81645-15.35393-15.11057-1.27179-15.11057-1.27179Z"/><path class="cls-8" d="M188.60979,85.32389c-2.01249,3.02266.27101,9.40174,4.01359,9.57367,2.00412.09205,4.78284.03901,6.70615-.39807,2.58192-.58676,5.22449-.67671,7.8953-.56215,4.62643.19845,9.94039,2.47804,13.55956,6.5945,20.94047,23.81778,15.50002,28.31053,19.66166,32.76944s4.73886,7.00368,7.71146,13.84067c2.9726,6.83699,9.51233,19.61918,19.02466,24.07809s34.19463,12.11651,33.89737,5.57678-6.40472-25.74146-10.26911-34.36201-9.95112-15.88389-16.19359-19.74828-9.65801-5.82263-15.00869-6.71441-13.90078-3.93722-20.14324-7.50435-8.24775-6.22373-11.22035-10.9799-4.82409-6.85932-3.33778-11.61549c1.4863-4.75617,2.00267-7.0761,1.06809-9.3458-1.25473-3.04719-2.16993-3.95428-5.34046-3.33778-4.37107.84993-8.79192,2.60684-10.98913,3.37454-14.61966,5.10808-19.57928,6.57565-21.0355,8.76056Z"/><path class="cls-9" d="M208.86007,115.27379s-.08648,5.10859-4.24812,7.78393-6.24247,3.56712-9.51233,8.62055-8.32329,13.67397-18.43014,21.40274c-10.10685,7.72877-15.7548,9.80959-15.7548,9.80959,0,0,7.13425,21.7,15.7548,19.32192,8.62055-2.37808,18.10832-14.31694,25.84937-26.77765s9.82187-20.18948,9.22735-27.91825-2.88613-12.24284-2.88613-12.24284Z"/><path class="cls-5" d="M147.56573,253.92454s8.51697,11.51968,44.80113,8.14441c43.29305-4.02726,61.41572-29.19764,61.41572-29.19764,0,0,13.31806-12.86514,16.60049-23.53302,0,0,18.6004,5.19717,19.421,16.13858,0,0-13.9503,26.25939-35.55959,41.03029s-50.05696,21.06222-68.11028,17.50626-23.52403-9.3002-29.81535-15.04444-11.21495-8.75313-11.21495-8.75313l2.46182-6.29131Z"/><path class="cls-7" d="M141.01382,249.68487s-22.44502-2.43968-33.34224-5.69258c-10.89722-3.2529-20.16799-8.78283-23.25824-12.36102-3.09026-3.57819-5.20464-6.83109-6.66845-7.96961s-2.76497-3.90348-2.76497-5.36729,1.13852-7.15638,1.13852-7.15638c0,0,29.27611,14.15012,57.25106,11.87309s55.29932-9.10812,70.7506-31.71578c15.45128-22.60766,27.48701,18.70418,24.5594,22.93295s-24.72205,20.00534-32.20372,22.60766-13.82483,2.76497-22.11973,4.22877-15.28863,2.60232-20.65592,4.22877-10.89722-.32529-12.68631,4.39142Z"/><path class="cls-6" d="M90.83403,198.94969s-12.25012-6.80562-18.71546-15.99321c-6.46534-9.18759-7.82646-18.0349-8.50703-23.13911s-1.70141-10.88899-1.70141-10.88899l5.4445-4.76394s3.06253-.34028,5.78478,1.36112,30.96558,23.13911,61.25059,20.75715c30.28502-2.38197,39.81289,11.56956,39.13232,14.97237s-1.36112,3.74309-5.4445,6.12506-24.84052,9.18759-40.83373,11.56956c-15.99321,2.38197-36.41008,0-36.41008,0Z"/><path class="cls-12" d="M240.35093,128.1104s22.14632,2.85759,28.5759,29.2903c6.42958,26.43271.77561,66.82658-36.37306,85.04371-37.14867,18.21713-17.56395-9.31758-17.56395-9.31758,0,0,23.57512-11.07316,32.50508-31.79069,8.92997-20.71753,15.71674-47.50743-7.14397-72.15414"/><path class="cls-10" d="M214.85671,128.71656s11.48959,12.27594,4.92376,39.80042c-9.54629,40.01883-57.61925,48.17406-57.61925,48.17406l2.22692-22.3243s49.23763-18.0538,50.46857-65.65017Z"/><path class="cls-11" d="M199.14658,98.39279s4.44744,5.13166,6.84221,10.94754,5.13166,5.81588,4.78955,13.34232c-.34211,7.52644-3.079,26.68464-9.92121,36.26374s-12.31599,13.68443-13.34232,14.02654,36.26374,38.3164,43.44806,36.60585,16.76343-17.78976,19.1582-27.02675,2.73689-28.39519-.68422-34.55318-10.60543-13.68443-13.34232-17.44765-6.15799-8.89488-8.89488-13.34232-4.10533-8.21066-6.5001-11.97388-7.75829-6.98431-13.0633-7.93959c-4.71374-.84882-8.48968,1.09738-8.48968,1.09738Z"/><path class="cls-3" d="M208.18309,110.92664s4.8837,14.27544,1.12701,27.42386c-3.75669,13.14843-4.8837,16.15378-10.89441,23.66717-6.01071,7.51339-7.13772,8.26473-11.64575,12.39709s-8.64039,9.39173-12.77276,9.01606-13.14843-5.25937-16.52945-10.89441-2.62969-13.5241-2.62969-13.5241c0,0,19.91048-8.64039,25.54552-14.6511s9.7674-13.5241,12.02142-16.15378,4.50803-4.50803,7.51339-6.76205,8.26473-10.51874,8.26473-10.51874Z"/><path class="cls-20" d="M76.6608,210.08782s9.05947-4.52973,12.38127-5.1337,22.64866-.30198,32.91606-1.20793c10.26739-.90595,36.53984-3.3218,59.18851-18.11893s41.97552-48.01517,28.99029-73.98563c0,0,5.43568,18.11893-1.50991,32.91606-6.94559,14.79713-10.26739,21.13875-20.53479,29.59425-10.26739,8.4555-18.72289,13.5892-26.87641,17.21298s-17.51497,5.43568-28.38632,7.24757-20.83677,1.81189-25.66849,2.41586-15.40109-1.20793-19.32686.30198-12.98523,6.03964-11.17334,8.75748Z"/><path class="cls-20" d="M68.31397,144.78408s2.4687-.91111,4.82545.74148,17.43937,13.86233,38.02834,18.41105c20.58897,4.54873,38.78388,5.74576,58.89404-7.42161,20.11016-13.16737,23.55716-27.86223,27.14826-31.21392s9.71288-8.46522,10.19169-9.66225.72571-1.73822.72571-1.73822c0,0-2.87288,4.06991-5.98517,6.22457s-7.41346,4.74872-8.49486,6.68368-4.4331,7.44131-9.70005,12.94767-3.5911,6.46398-15.80084,13.16737c-12.20974,6.70339-24.18007,11.25211-32.3199,10.7733-8.13983-.47881-22.74363-2.63347-28.48939-4.54873-5.74576-1.91525-13.64618-5.02754-18.43431-8.13983s-10.56147-7.49136-13.06145-8.17471-7.52752,1.95013-7.52752,1.95013Z"/><path class="cls-20" d="M147.3762,250.25763s9.62618-2.16589,16.84581-3.36916c7.21963-1.20327,23.19472-2.32088,38.74536-7.94159,19.97431-7.21963,36.57947-18.53039,45.48368-38.98601s14.19861-51.25938-9.38552-68.82715c0,0,10.82945,12.51403,12.51403,25.50936s-2.6472,37.78274-13.7173,51.25938c-11.0701,13.47665-23.34347,22.62151-32.48834,25.75002s-21.89955,6.73832-29.60049,7.94159-14.19861,2.40654-18.53039,4.09112-9.86683,4.57243-9.86683,4.57243Z"/><path class="cls-21" d="M140.42211,249.87762s-23.44083-1.74714-35.96201-7.42535c-9.94837-4.51147-17.32583-8.15333-20.23773-11.79321-2.9119-3.63988-7.27976-8.00774-7.27976-8.00774l-1.16476,1.31036s1.74714,1.31036,2.76631,3.49428,4.80464,7.27976,7.57095,9.1725,7.86214,4.95024,13.24916,7.27976,10.62845,4.07667,14.70511,5.24143,6.40619,1.74714,10.77404,2.32952c4.36786.58238,15.86988,1.31036,15.86988,1.31036l-.29119-2.9119Z"/><path class="cls-21" d="M144.42787,262.66257s4.17709-.24571,8.35418,4.17709,24.67925,19.07857,51.35361,16.95406c27.76535-2.2114,55.28498-18.42833,69.53622-35.87381,14.25124-17.44548,28.9939-43.24514,26.7825-73.22189-1.66663-22.59205-13.2684-43.98228-13.2684-43.98228,0,0,10.56557,14.00553,14.74266,27.27393s3.68567,33.90812-1.22856,51.59932-17.44548,35.87381-29.23961,46.93081c-11.79413,11.057-25.79966,20.63973-33.66241,24.07968s-26.04537,8.10846-32.92528,9.09131c-6.87991.98284-30.46817-4.4228-34.64526-6.14278s-15.72551-11.057-17.93691-13.51411-7.86275-7.37133-7.86275-7.37133Z"/><path class="cls-21" d="M92.79102,199.76328s-15.57131-9.7165-20.92785-18.1873c-5.35653-8.4708-6.97595-15.82046-7.84794-21.05242s-1.74399-9.34279-1.74399-9.34279l-1.86856.49828s.24914,2.86512.24914,5.85481,2.36684,17.06616,5.35653,22.54726,3.11426,7.72337,7.97251,12.58162,12.33248,8.71994,12.33248,8.71994c0,0,6.97595,0,6.47767-1.61942Z"/><path class="cls-23" d="M146.38947,252.25841s32.73271,1.91158,55.79221-4.78903c35.4203-10.2924,53.73532-31.30721,58.52435-59.56249,4.78903-28.25528-5.12666-47.2329-20.45156-55.1348,0,0,12.45148,18.19832,10.77532,37.11499s-12.21203,38.5517-23.2268,47.41141c-11.01477,8.85971-24.90296,18.43777-34.72048,21.07174s-18.67722,3.59177-29.93144,5.98629c-11.25422,2.39452-18.66163,4.42722-18.66163,4.42722l1.90002,3.47468Z"/><path class="cls-23" d="M79.42824,205.70364s28.13698,11.14145,66.59261,3.35876c38.45564-7.78269,66.52854-36.74379,65.25528-71.57174,0,0-7.78269,27.01051-35.7088,45.78052-27.92612,18.77001-56.76784,16.93879-68.67078,16.93879s-16.48099,0-17.8544.45781-9.61391,5.03586-9.61391,5.03586Z"/><path class="cls-23" d="M68.44092,142.98433s22.23427,32.05684,61.7133,30.72609c40.74466-1.37342,55.46763-19.6325,60.9613-30.61983s6.88428-18.41847,9.63111-22.08091c0,0-4.12025.45781-9.61391,8.24049-5.49366,7.78269-13.73416,17.3966-21.97465,22.89026s-25.63709,11.44513-33.87758,11.44513-30.21514-4.12025-41.20247-10.07171c-10.98732-5.95147-19.22782-12.36074-19.22782-12.36074l-6.40927,1.83122Z"/><path class="cls-30" d="M185.2878,89.37091s1.05511,5.27554,2.41167,7.38575,4.07852,1.85618,6.6321,1.35657c6.93356-1.35657,18.99193-5.12481,28.94008,9.79742"/><path class="cls-14" d="M189.69889,82.66037s-3.85679,1.54272-2.37341,7.77292-1.72072-.53402-1.89873-2.84809-.53402-3.67879.89003-4.68749,3.38211-.23734,3.38211-.23734Z"/><path class="cls-14" d="M187.56282,91.38266s.83069,6.17087,7.0609,4.8655c6.23021-1.30538,6.82356.23734,6.82356.23734,0,0-3.79746.89003-6.11154,1.36471s-5.0435,1.18671-6.40821-.11867-2.49208-4.98417-1.36471-6.34888Z"/><path class="cls-15" d="M144.86154,261.64293s-2.31149-7.87762,3.45055-3.02538c14.42734,12.14934,50.28081,9.89579,81.22165-2.41023,46.27745-18.4058,56.63402-52.82762,51.9011-92.26862-2.5731-21.44254-15.11165-33.83365-26.28018-41.11748,4.1275-5.09868,5.43625-9.93671,5.43625-9.93671,0,0,26.12699,2.89568,38.35349,36.22008,8.93642,24.35699,9.99172,44.69981-2.10352,71.51969-12.09524,26.81988-36.8116,49.95861-58.89857,59.42445-22.08696,9.46584-67.83853,17.35404-93.08077-18.4058Z"/><path class="cls-16" d="M64.53899,148.70768s12.07487,25.51588,47.16139,32.70227c35.08652,7.1864,83.76234-18.85117,89.68055-23.50119,0,0-7.41382,19.29437-36.65512,31.80365-12.35177,5.28402-26.63194,9.72277-44.8093,10.56823-18.17736.84546-34.24107,1.26819-34.24107,1.26819,0,0-16.48644-7.60913-21.55919-24.51829-5.07275-16.90917-6.76367-29.16832-6.76367-29.16832l7.1864.84546Z"/><path class="cls-35" d="M194.36949,87.60094s6.01191-2.40476,7.93572-3.12619"/><path class="cls-25" d="M209.37573,258.03108s57.38678-15.53229,61.08464-72.72582c0,0,20.84365-8.56829,29.42788,7.16947,0,0-7.15353,56.65595-59.51736,81.83637l-30.99517-16.28002Z"/><path class="cls-24" d="M122.94737,212.93248s50.12648,24.50119,90.04828-28.41103c0,0,22.98725,5.08841,21.57803,22.95962,0,0-36.94712,43.54284-94.56185,36.02171l-17.06446-30.5703Z"/><path class="cls-26" d="M92.7007,164.33723s43.85321,34.3634,95.04457-7.74239c0,0,12.2452-2.32422,6.69467,14.72154,0,0-36.80313,49.58566-91.06007,28.79605l-10.67916-35.7752Z"/><path class="cls-2" d="M84.58143,214.6346s33.77376,15.03795,75.68281,3.94438c0,0,17.74971-3.45133,18.73581-16.02405s-3.69786-17.01014-3.69786-17.01014c0,0-18.48928,12.07967-41.416,15.03795-22.92671,2.95829-41.90905.73957-41.90905.73957,0,0-18.24276,2.95829-7.39571,13.31229Z"/><path class="cls-1" d="M58.79435,152.85712s25.89697,25.89697,54.19676,27.76583c28.29979,1.86885,38.17801-2.66979,39.77989-7.47542,3.98805-11.96415-8.89805-9.67722-8.89805-9.67722,0,0-22.07857.55545-43.13658-8.98111-21.05801-9.53656-26.45723-12.31125-26.45723-12.31125,0,0-19.26859-3.83106-15.48479,10.67916Z"/><path class="cls-28" d="M217.93833,102.94749s2.30434,7.6991,3.73608,12.47156,10.73804,14.07876,14.07876,15.5105,12.64703,12.16978,15.27188,26.24854c2.62485,14.07876-.47725,36.98658-17.18086,56.55368-16.70362,19.5671-45.57702,26.24854-64.18962,28.8734-18.6126,2.62485-20.28297,5.24971-22.19195,5.24971s-3.57935-1.19312-4.29522-.23862-1.67036,8.35181-1.67036,8.35181"/><path class="cls-31" d="M83.50388,202.39853s5.83717-2.06018,18.88496-1.37345c13.04779.68673,46.01062-2.40354,67.64248-14.07788,21.63186-11.67434,37.76991-33.30619,40.17345-50.8177,2.40354-17.5115-2.7469-26.09557-5.49381-30.55929s-7.55398-6.18053-7.55398-6.18053"/><path class="cls-29" d="M217.47179,101.74346s1.56678,11.35918,5.48374,16.64707,10.77164,11.94672,10.77164,11.94672c0,0,.78339-4.11281-4.5045-12.33842-5.28789-8.22561-11.75088-16.25538-11.75088-16.25538Z"/><path class="cls-31" d="M70.82937,221.65284c-.35671-4.99388.65283-12.37071,2.43635-13.08412s1.90477-.28914,5.94157-2.88423c2.87819-1.85026,7.60664-3.49494,7.60664-3.49494-24.87576-13.15743-27.21982-39.67845-27.57652-45.74245-.35671-6.064-1.78353-6.77741-2.49694-8.56093s6.064-6.4207,7.84752-7.49082,2.49694.71341,3.92376,1.07012,3.21035.71341,4.28047.35671,5.70729,2.49694,12.12799,6.064,21.75904,14.26822,48.51196,14.98163c26.75292.71341,45.65832-16.76516,51.3656-23.89927,5.70729-7.13411,8.28724-12.50942,12.56771-16.07647s7.06401-3.97729,8.46044-8.01516c1.68143-4.86194-1.05264-8.72528-4.26299-13.00575s-8.91764-2.14023-12.12799-2.85364-5.35058-10.34446-4.28047-14.62493,24.96939-11.41458,33.88703-14.26822,9.98776,3.92376,10.70117,6.4207-.35671,7.13411-1.78353,10.34446,3.21035,8.56093,7.13411,13.55481,21.40234,12.12799,27.10962,12.4847c5.70729.35671,20.11891,6.12089,27.87927,18.68529,9.74811,15.78266,27.33865,49.22558,3.28595,95.48132-23.94415,46.04698-70.04613,64.8996-100.3661,61.68925-30.31998-3.21035-44.23149-20.68892-46.01502-22.82916s-3.92376-2.49694-4.99388-3.21035-.35671-8.91764-.35671-8.91764c-32.81691-1.07012-54.8353-14.89387-58.6187-18.29893-4.77234-4.2951-4.71052-7.08764-7.47666-9.3856-2.90696-2.41494-3.89955-2.95635-3.89955-2.95635l-.81212-1.534Z"/><path class="cls-29" d="M198.87832,234.17653s52.21997-19.47767,51.57282-68.66719c0,0,5.50496,53.8907-51.57282,68.66719Z"/><path class="cls-29" d="M147.05028,248.65171s2.48573,8.28435,2.46702,8.84015-3.35248,5.19926-3.35248,5.19926c0,0-2.50033-.83344-2.61939-1.19063s-1.07157-.59532-.95251-3.81002.83344-9.0488.83344-9.0488c0,0,.81842-1.64679,3.62392.01005Z"/><path class="cls-29" d="M76.77193,208.94711s2.99536,9.33774,2.97665,9.89354-4.01349,5.3628-4.01349,5.3628c0,0-1.83932-.99699-1.95839-1.35418s-1.07157-.59532-.95251-3.81002.83344-9.0488.83344-9.0488c0,0,1.12911-.6824,3.11429-1.04334Z"/><path class="cls-29" d="M69.62,144.22015s-2.94185,5.93019-3.3392,6.28407-5.91243,1.01338-5.91243,1.01338c0,0-1.15109-2.35849-.98631-2.68068s-.32862-1.16819,1.97711-3.2072,4.92889-3.08079,4.92889-3.08079c0,0,2.5395-1.45218,3.33193,1.67122Z"/><path class="cls-31" d="M147.46262,247.85487s3.40278,7.44258,2.70486,9.18738-4.53649,6.80474-4.53649,6.80474"/><path class="cls-31" d="M77.74821,207.26179s3.88095,10.12058,3.18303,11.86538-4.53649,6.80474-4.53649,6.80474"/><path class="cls-32" d="M71.77177,143.34735s-4.50467,7.75021-5.9757,8.24963-6.65883.83705-6.65883.83705"/><g class="cls-36"><path class="cls-4" d="M251.12156,119.53035c4.4137,2.13545,8.48572,4.94533,12.2663,8.07898,3.77679,3.1443,7.24585,6.67609,10.29944,10.54915,3.06976,3.86313,5.63373,8.12085,7.77875,12.57248,2.10828,4.47284,3.6983,9.19148,4.77582,14.0235,2.16266,9.66937,2.18726,19.7881.29065,29.51732-1.92981,9.73509-5.8457,19.0269-11.16632,27.37352-5.36646,8.33142-12.10138,15.72418-19.67365,22.0564-7.58197,6.32303-15.96313,11.69177-24.91693,15.82123-1.10687.54144-2.24799,1.01093-3.39417,1.46884l-3.4259,1.397c-1.1264.5043-2.3288.81265-3.49231,1.21939l-3.51758,1.14529-3.5907.8985-1.79431.44852c-.60229.13052-1.21417.21924-1.82062.33075l-3.64453.63583-3.68201.3689c-4.9151.36203-9.8739.24371-14.73163-.55942-4.83752-.82135-9.64545-2.18219-13.91705-4.60452,2.16705,1.14374,4.4895,1.95068,6.83557,2.61227l1.76569.47983,1.78986.3804c1.18573.28741,2.40198.41632,3.60437.60782,4.83313.64755,9.73267.61218,14.56305.10736l3.61884-.43829,3.57941-.6944c.59515-.121,1.19507-.21893,1.78595-.35864l1.76019-.4758,3.51831-.95007,3.44476-1.19421c1.13892-.42261,2.3139-.74527,3.41638-1.26486l3.34955-1.43997c1.11963-.47141,2.23413-.95392,3.31787-1.5097,8.72723-4.29056,17.0014-9.52859,24.40442-15.82349,7.40985-6.27161,13.96375-13.57254,19.16553-21.74329,5.25085-8.1272,9.12524-17.16895,11.06665-26.65251,1.93634-9.48032,1.87317-19.34705-.00726-28.84128-.96545-4.7431-2.43433-9.38991-4.4201-13.81512-2.01917-4.40649-4.47113-8.63191-7.41022-12.50671-5.81488-7.78273-13.23126-14.46652-21.79205-19.22098Z"/></g><path class="cls-34" d="M228.45254,136.39795s18.10186,33.48845-8.14584,64.26161-89.15168,40.27665-119.92484,26.2477"/><path class="cls-33" d="M190.46514,169.88008s-56.92085,38.88255-109.03149,4.81021"/><ellipse class="cls-20" cx="282.92647" cy="175.45789" rx="19.95387" ry="11.9632" transform="translate(14.69302 372.64733) rotate(-68.12641)"/><path class="cls-19" d="M295.19261,180.38227c-3.03002,7.72546-10.65653,18.11222-20.25892,14.9852-4.70966-2.0064-6.50023-7.22275-6.72602-11.8476-.25974-8.92001,3.41911-17.72241,9.87354-23.83308,5.33802-5.20083,13.87112-6.52515,17.60439,1.20118,2.83856,6.18942,1.78148,13.35366-.49299,19.4943h0ZM292.86424,179.44753c2.63635-6.41281,4.5368-17.80218-2.87944-21.5708-3.71605-1.37227-7.68529.83377-10.41412,3.42258-6.73612,6.59284-10.98188,18.68152-7.17553,27.65171,2.95357,6.12312,9.54007,4.37087,13.66403.4237,2.97193-2.6529,5.19489-6.18902,6.80506-9.92719h0Z"/><path class="cls-18" d="M279.30142,166.53446c-1.00214,1.01133-1.88964,2.16427-2.62333,3.44079-.01362.02315-.01134.05209.00669.07318.23679.27664.55778.60453.8159.84634-.75546,1.3853-1.28876,2.84333-1.59441,4.35908-.36002.01575-.81249.06838-1.17217.1277-.02662.00476-.04703.02539-.05232.05159-.26356,1.44763-.3294,2.90111-.21581,4.32138.00069.01219.00496.02398.0126.03356,2.78884,3.82269,6.14338,5.81742,9.82244,6.78646.01795.00486.03818.00118.0537-.00848,1.79422-1.19282,3.09917-2.50667,4.14823-3.88086.01665-.02204.01719-.05166.00253-.07492-.3667-.54996-.77523-1.07006-1.22807-1.55351-.02647-.02844-.07084-.02676-.09607.00234-.38639.44662-.80685.85269-1.25295,1.22805-.03568.02955-.09052.0129-.10361-.03108-.03834-.12735-.0797-.25584-.12348-.38006-.00805-.02252-.00229-.0477.01422-.06468,2.56607-2.59938,3.80174-5.97767,3.50494-9.58245-.0024-.0239.00943-.04685.03039-.05962.11361-.06669.22885-.13786.34059-.21118.03837-.02515.09128-.00324.09948.04235.10392.57655.15786,1.15613.16388,1.74714.0005.03851.03434.06795.07291.0633.65932-.08348,1.30701-.21725,1.93957-.39404.02669-.00729.04566-.03101.04716-.0586.08791-1.73427-.06136-3.58001-.66253-5.64899-.00535-.01816-.01795-.033-.03481-.04086-3.96751-1.90194-7.92917-2.14523-11.88391-1.15044-.01251.00139-.02337.00762-.03176.01649ZM284.43655,179.48935c-.34363.93948-1.48929,1.39811-2.54854,1.01067s-1.64412-1.46201-1.295-2.41651c.35186-.96199,1.50235-1.41035,2.54853-1.01064,1.05926.38744,1.64412,1.46201,1.29501,2.41648ZM286.75394,173.15366c-.34362.93945-1.48928,1.39808-2.54853,1.01064s-1.64413-1.46199-1.29501-2.41648c.35187-.96201,1.50235-1.41035,2.54854-1.01067,1.05926.38744,1.64687,1.45449,1.295,2.41651Z"/></g></g></svg>