<?xml version="1.0" encoding="UTF-8"?><svg xmlns="http://www.w3.org/2000/svg" width="13.2689cm" height="12.48661cm" viewBox="0 0 376.12629 353.95127"><defs><style>.cls-1{fill:#4c192d;mix-blend-mode:multiply;opacity:.35;}.cls-1,.cls-2,.cls-3,.cls-4,.cls-5,.cls-6{stroke-width:0px;}.cls-7{stroke-width:1.73673px;}.cls-7,.cls-8{fill:none;stroke:#000;stroke-linecap:round;stroke-linejoin:round;}.cls-9{isolation:isolate;}.cls-3{fill:#fff;}.cls-4{fill:#f5cb00;}.cls-5{fill:#ff3c5a;}.cls-6{fill:#6774f6;}.cls-8{stroke-width:3.70847px;}</style></defs><g class="cls-9"><g id="Shoes"><path class="cls-5" d="M47.95934,202.01692s-9.68719,1.11775-10.80495,5.58877-7.82427,17.88405-3.35326,26.45349c4.47101,8.56944,21.23731,14.53079,35.7681,15.64854,14.53079,1.11775,47.6908.37258,70.04586-2.60809,22.35506-2.98067,29.80675-5.21618,29.80675-5.21618,0,0-4.8436,13.78562-2.23551,21.60989s20.49214,20.86472,49.18114,23.8454,52.16181,1.11775,68.18294-2.98067c16.02113-4.09843,23.10023-8.56944,24.96315-14.90337,1.86292-6.33393,2.60809-20.86472,1.49034-24.21798-1.11775-3.35326-5.58877-8.19686-5.58877-8.19686,0,0,2.23551-7.82427,1.86292-12.29528s-14.15821-35.7681-14.15821-35.7681l-11.17753-36.88585s6.33393-3.72584,7.0791-7.82427,4.8436-30.9245,4.09843-36.14068-10.43236-13.78562-24.96315-16.02113-29.43417-2.23551-35.39552-1.11775-10.43236,1.86292-10.43236,1.86292c0,0,.74517-8.94202-7.82427-10.80495s-39.12136,0-46.94563,1.86292-29.06158,6.33393-29.80675,13.04045,10.43236,38.37619,10.43236,38.37619l6.33393,4.09843-2.98067,3.72584s-6.70652-5.58877-9.68719-5.58877-23.47282,4.09843-30.55192,7.45169c-7.0791,3.35326-9.68719,5.21618-9.68719,5.21618l-1.86292,7.82427s-44.71012,19.74697-51.78923,43.96496Z"/><path class="cls-3" d="M180.5264,224.94393l-5.32565,20.28817s1.77522,8.11527,8.62247,13.18731c6.84726,5.07204,16.99135,7.10086,20.28817,3.55043s8.87608-10.39769,13.69452-10.90489,23.83861-.5072,32.71468.2536c8.87608.76081,13.44092,3.80403,15.97694,8.87608,2.53602,5.07204,6.08645,5.83285,14.70893,6.08645s18.51296-4.56484,21.30258-11.1585,3.55043-17.24495,3.55043-17.24495c0,0,5.57925,4.05763,5.83285,10.39769.2536,6.34005-.5072,21.55619-3.80403,25.10662-3.29683,3.55043-19.94033,9.27213-23.53788,10.97612s-39.10186,5.76162-49.49955,5.00082c-10.39769-.76081-36.26511-5.07204-46.1556-8.87608s-20.84727-10.90113-21.70893-16.98946,1.16716-18.00764,2.43517-23.33328,4.31124-13.18731,10.90489-15.21613Z"/><path class="cls-3" d="M46.62445,202.37334s9.89049.5072,13.44092,8.87608,7.35446,16.73774,12.1729,18.00576,35.2507,3.04323,53.76366,1.26801,55.53888-10.65129,55.53888-10.65129l-1.77522,6.34005s-4.56484.76081-5.83285,3.80403-5.57925,12.42651-5.57925,12.42651c0,0-38.54753,6.08645-57.8213,7.86167s-49.95963-1.01441-58.0749-3.55043-18.51296-6.84726-19.78097-17.24495,5.83285-24.09221,5.83285-24.09221c0,0,.5072-2.78962,8.11527-3.04323Z"/><path class="cls-3" d="M228.00093,92.3335l-5.6721.5162s1.7734-8.03512-4.91009-9.98447-34.53136-1.94935-44.5566.27848-18.93655,3.06327-23.94917,5.56957-10.58219,3.34174-10.58219,10.02523,5.2911,21.44286,5.2911,21.44286c0,0,35.08832,16.15177,60.15141,6.12653l1.67087,8.91132s15.31633,10.02523,34.80984,10.30371,39.54398-6.40501,49.56922-15.59481c0,0,3.06327-15.31633,2.50631-19.21503s-1.94935-11.97459-12.25306-15.31633-25.62004-5.56957-35.3668-5.01262-16.70872,1.94935-16.70872,1.94935Z"/><path class="cls-4" d="M208.11703,148.8956l-2.67287-13.67637s17.07909,10.94415,40.17873,9.95062c23.09963-.99353,37.97889-10.11602,44.20033-15.24172l-1.47843,15.98687s-9.19018,7.20311-19.87065,10.68047-42.47351,9.19018-60.3571-7.69988Z"/><path class="cls-4" d="M143.28903,119.338s27.57644,16.92041,60.48425,6.9699l2.35668,16.12973s-35.51879,11.67401-57.12812-6.95473l-5.71281-16.1449Z"/><path class="cls-4" d="M99.74857,158.05197s28.50688,25.53537,33.29892,71.05972c0,0,31.44774-3.59403,38.9353-5.69054s11.08159-5.39104,10.48258-6.28955-2.09652-5.69054-1.79701-6.88855-4.49253-33.24476-14.67561-48.51938-24.14214-24.16384-24.14214-24.16384c0,0-13.89466,1.40167-24.97624,5.5947-11.08159,4.19303-14.37611,5.69054-14.37611,5.69054,0,0-5.49936,7.63171-2.74968,9.2069Z"/><path class="cls-4" d="M181.54081,219.87189s10.14792-1.15322,18.0624-3.36927,12.66317-5.06527,12.66317-5.06527c0,0,25.00977-2.21606,38.62268.63316s23.42687,6.64817,23.42687,6.64817c0,0,13.61291,9.81396,19.62792,12.34659s10.13054,4.11553,10.13054,4.11553c0,0,4.82443-6.94296,3.20366-10.43623-1.62077-3.49327-14.28394-33.88488-15.86684-35.78436s-8.23106-6.96475-8.23106-6.96475c0,0-9.49738-8.23106-23.74345-10.7637s-21.5274-2.53263-30.07504-.63316-20.26108,3.79895-20.26108,3.79895c0,0-4.11553-2.84921-6.01501-.63316s-12.34659,13.29633-16.14555,21.5274-6.64817,14.56265-6.64817,16.77871,1.24894,7.80139,1.24894,7.80139Z"/><path class="cls-6" d="M278.98309,187.26257s-4.9609,23.15086-5.1676,25.83802-.2067,6.40783,2.48045,8.06146,27.77847,14.01875,27.77847,14.01875c0,0,3.02044-6.16399,3.02044-7.61092s-.62011-6.40783-1.24022-8.06146-12.60895-28.11176-13.43577-29.9721-11.78214-10.1285-13.43577-2.27375Z"/><path class="cls-6" d="M127.88237,178.581s-3.30727,1.03352-4.13408,4.34079-1.65363,8.26816,1.44693,11.36873,25.83802,17.15644,32.03914,17.36315,11.57543-9.9218,15.0894-16.53633,6.82124-14.8827,4.9609-18.18996-5.99442-6.61453-5.99442-6.61453c0,0-29.14528.62011-43.40787,8.26816Z"/><path class="cls-6" d="M195.87543,180.38799s7.67731-8.31709,10.23642-7.67731,4.79832,2.5591,5.11821,6.07787,5.91132,27.87068,1.03633,32.64879-15.4313,5.41789-19.26995,6.05766-11.19608,2.87899-11.83586.63978-.63978-7.35743.31989-9.91653,8.63698-21.11261,14.39496-27.83026Z"/><path class="cls-1" d="M178.732,228.12164l-3.67024,18.01753s4.67121,11.34437,13.34631,14.68095c8.6751,3.33658,14.68095,2.33561,17.35021-.66732s12.679-9.00876,18.35118-9.00876,24.02337-1.00097,29.69555,1.00097,11.01071,6.00584,11.01071,6.00584c0,0,13.01266.33366,20.68679-11.34437,7.67413-11.67803,5.33853-17.35021,5.33853-17.35021,0,0-27.35995-14.68095-38.37066-16.01558s-18.01753-2.33561-24.69068-2.00195-15.0146.66732-15.0146.66732c0,0-7.34047,3.33658-12.679,4.33755s-17.01655,2.00195-17.01655,2.00195l-2.33561-5.33853s13.34631.33366,18.68484-1.33463,8.34145-4.00389,8.34145-6.67316-.33366-23.68971-.33366-23.68971l-1.33463-7.67413s4.00389-.33366,5.00487,4.67121,2.66926,27.02629,2.66926,27.02629c0,0,40.03894-1.66829,60.72573,7.34047,0,0,3.67024-25.02434,4.67121-27.35995s8.34145-1.00097,8.34145-1.00097c0,0-2.33561,1.33463-3.33658,5.33853s-4.67121,25.358-3.33658,26.35897,11.01071,6.3395,11.01071,6.3395c0,0,2.33561-17.01655,1.66829-24.02337-.66732-7.00682-3.33658-11.34437-3.33658-11.34437l-10.67705-6.67316-27.02629-10.34339s13.01266-11.01071,15.0146-13.01266-10.34339,2.33561-10.34339,2.33561c0,0,11.34437-19.0185,15.0146-32.03116s2.66926-21.3541,2.66926-21.3541c0,0-27.35995,4.00389-36.70237,3.33658s-23.35605-3.00292-21.68776-6.67316,51.71697-11.34437,64.06231-1.00097c0,0-12.679-9.00876-18.68484-10.00974,0,0,16.34924,1.33463,23.02239,5.67218,6.67316,4.33755,8.00779,9.00876,7.67413,13.67997s-.66732,10.67705-1.66829,18.01753.33366,14.34729-1.33463,16.68289-7.00682,6.67316-7.00682,6.67316c0,0,7.00682,26.02531,8.6751,31.36384,1.66829,5.33853,7.34047,19.68581,9.67608,25.358s7.00682,14.34729,6.00584,18.01753c-1.00097,3.67024-2.66926,5.67218-2.00195,6.67316s7.00682,9.00876,6.67316,11.67803.66732,20.01947-3.00292,25.358-9.00876,8.6751-21.68776,12.01168c-12.679,3.33658-32.36481,5.33853-39.37163,5.67218-7.00682.33366-17.35021-.33366-17.35021-.33366,0,0,24.02337-5.67218,28.02726-11.01071s1.66829-14.34729,0-16.01558-14.68095-3.33658-17.35021-3.67024-17.68387-.33366-18.68484-.33366-7.34047,1.33463-10.34339,5.33853-5.67218,7.34047-9.34242,8.00779c-3.67024.66732-10.67705-.66732-19.0185-5.33853-8.34145-4.67121-13.34631-11.01071-14.34729-15.68192s1.66829-18.35118,9.67608-21.3541Z"/><path class="cls-2" d="M246.31063,162.36714s22.79565,1.30261,37.34145-5.86174l-1.51971-5.86174s-7.16435,5.21044-17.15102,8.03275-18.67073,3.69073-18.67073,3.69073Z"/><path class="cls-2" d="M205.19196,143.24592l-12.22569,41.06577s5.9561-6.89654,8.77742-9.0909,4.38871-3.13479,4.38871-3.13479l6.26958-19.43571s-4.07523-2.50783-4.38871-4.38871-2.82131-5.01567-2.82131-5.01567Z"/><path class="cls-1" d="M38.37459,206.39714s10.09687,2.14176,12.54459,5.20142,8.26107,14.68635,9.48493,16.52214,5.20142,6.11931,9.7909,7.03721,38.55167,3.67159,46.81274,2.75369,34.88008-4.58948,34.88008-4.58948l-13.15652,13.76845s18.6639-1.83579,22.02952-2.44772,6.73124-.9179,6.73124-.9179c0,0,2.75369-9.48493,4.28352-11.01476s5.50738-2.75369,5.81335-3.97755,5.48061-10.28707,5.48061-10.28707c0,0-2.25026-3.52408-2.33561-5.33853s5.728-15.88886,9.09362-20.47835,5.50738-10.09687,8.56704-14.99232,11.32073-24.17128,11.01476-25.08918-1.83579-9.17897-3.05966-12.85056-4.89545-28.76077-3.05966-33.35025,5.20142-8.56704,8.26107-9.7909,11.01476-4.58948,11.01476-4.58948c0,0,.9179-6.11931-4.28352-8.26107s-41.61132,1.52983-41.61132,1.52983c0,0,17.44004-.30597,24.17128,2.14176,0,0-25.08918,0-33.65622,2.44772s-18.35794,3.36562-17.13407,7.03721,38.2457.30597,38.2457.30597c0,0,.61193,14.07442-3.36562,27.53691s-8.26107,21.41759-8.26107,21.41759c0,0-13.15652-2.14176-15.60425-3.36562s-7.95511-4.58948-7.95511-4.58948l-.9179,5.81335s8.873,9.17897,11.93266,14.68635,5.50738,10.7088,5.50738,10.7088c0,0,7.95511,6.11931,7.34317,7.95511s-7.03721,12.54459-9.7909,17.13407-4.58948,7.95511-7.34317,8.26107-21.41759-10.40283-25.39515-12.23862-6.73124-3.97755-7.64914-5.50738-.9179-4.89545-.9179-4.89545c0,0-4.89545-11.32073-9.7909-16.82811-4.89545-5.50738-13.15652-13.15652-13.15652-13.15652l-3.05966,5.81335s17.98305,22.65266,24.10236,40.0927c3.35367,9.55797-5.27034,17.45124-22.64146,22.94742-17.8732,5.65503-34.57411,4.28352-34.57411,4.28352,0,0-7.34317-13.76845-11.32073-16.52214s-9.72198-4.60069-9.72198-4.60069c0,0-6.73124.61193-7.34317,4.28352Z"/><path class="cls-2" d="M159.62,243.46243l10.34402-13.29945-1.18217-5.31978,5.31978-2.95543,5.61532-10.34402,2.36435,6.50195-1.18217,3.84206-2.16712,6.23387s-5.22146,2.33688-5.81255,4.40568-3.84206,10.34402-3.84206,10.34402l-9.45739.59109Z"/><path class="cls-8" d="M169.01603,242.83518s-49.3986,9.1347-86.41251,7.63919c-31.47977-1.27191-46.69803-7.63919-49.84857-19.05992-2.55029-9.24478,2.75673-20.47854,4.72582-24.81054s9.45164-3.54436,9.45164-3.54436c12.60218-28.74873,51.74127-44.8163,51.74127-44.8163,0,0,1.74178-6.67683,2.90297-7.83802s21.19168-11.03129,40.93188-12.19247c0,0,5.51564,2.90297,7.83802,4.93505,0,0,3.77386-3.19327,3.77386-4.06416,0,0-5.51564-3.19327-5.51564-4.64475s-2.77665-6.35742-4.82683-12.91833c-1.93608-6.19579-8.52684-20.46583-5.33357-26.27177s23.80435-11.32158,52.25346-13.35366c28.44911-2.03208,33.67445,3.19327,31.64237,10.1604"/><path class="cls-8" d="M208.39683,149.12661s12.75581,9.41341,31.29482,11.26731,37.45771-6.11719,47.65416-12.91482"/><path class="cls-8" d="M47.02487,202.99989s7.06405,1.57179,10.49966,5.57999,8.87531,18.03693,13.16982,20.04103,26.33964,6.01231,70.1436.2863c29.79037-3.89417,40.08206-7.73011,40.08206-7.73011,0,0-6.17787,23.1015-5.58508,25.76907s6.82468,12.20605,14.28728,15.03476c7.28374,2.76091,12.60379,3.28468,15.56776-.86488s8.38014-9.72393,18.75403-10.02033,29.63968-.2964,35.86401,2.96397c6.22433,3.26036,7.70632,7.11352,10.37389,9.78109s19.56219,2.37117,26.37931-1.77838,10.37389-15.11623,8.29911-26.97211"/><path class="cls-8" d="M148.74546,135.42966s23.09903,17.88312,57.62339,6.95455"/><path class="cls-8" d="M305.11885,236.70567s-12.19247-6.67683-19.4499-10.45069-12.77307-6.09624-11.61188-11.32158,4.64475-26.70732,5.51564-28.44911,5.51564-7.54772,13.35366,4.64475"/><path class="cls-8" d="M182.32322,218.70726s10.74099-1.16119,19.7402-2.61267,10.74099-3.48356,11.03129-7.54772-.58059-30.77148-2.90297-33.09386-4.64475-2.32238-4.64475-2.32238"/><path class="cls-8" d="M144.87161,174.33106c-4.26791.89851-18.86865,4.71716-19.99178,5.8403s-3.59403,8.31119-1.57239,11.90522,29.87536,21.33954,36.1649,19.76715c6.28955-1.57239,19.09327-29.4261,18.19477-33.02013s-5.16641-8.08656-7.18806-8.31119-21.33954,2.92015-25.60745,3.81865Z"/><path class="cls-8" d="M99.17035,157.68525s26.12552,20.01826,34.26855,70.91214"/><path class="cls-8" d="M211.47618,212.98994s31.8935-6.44656,63.10841,7.12514"/><path class="cls-8" d="M208.95728,174.60302s46.82496-15.97358,75.10475,8.56104"/><path class="cls-7" d="M213.36926,206.63054s33.73307-5.27996,60.42619,6.45328"/><path class="cls-7" d="M205.57324,135.49519s18.32833,11.27898,43.00109,10.10408,41.59122-15.50859,41.59122-15.50859"/><path class="cls-7" d="M144.00884,120.22157s29.84229,16.68348,60.62449,6.34442"/><path class="cls-7" d="M37.48076,206.60391s11.84554,2.3797,14.8374,6.75241,8.51529,18.41143,13.80857,20.71286,22.74276,5.17609,47.63957,3.68229c34.52143-2.07129,60.06729-7.82486,60.06729-7.82486"/><path class="cls-8" d="M175.63758,187.05519s4.20915,13.51359,5.31682,22.59649"/><path class="cls-8" d="M149.71807,142.30528s14.17819,11.51978,19.49501,27.69178"/><path class="cls-2" d="M265.34996,98.18298c4.78432.08753,9.7564.01164,14.24785,2.0257.5218.34013,1.14986.65538,1.55958,1.58949.17456.47839.19178,1.07857-.01247,1.53289-.41636,1.05773-1.38142,1.65397-2.21125,2.16066-2.04026,1.12008-4.11277,1.69772-6.18552,2.26713-8.30969,2.10707-16.75806,2.77498-25.19586,3.06187-8.44312.11659-16.91516-.10461-25.33087-1.93561-2.56689-.66642-9.4882-2.16127-7.01694-6.08117,1.05199-1.17948,2.62458-1.68914,3.93722-2.11457,4.13408-1.16564,8.32385-1.53972,12.56732-1.71256-4.01956.9508-8.16332,1.84978-11.95033,3.4257-1.06125.49065-2.39716,1.02139-2.81734,1.82936,1.38745.97479,3.93073,1.51359,5.84226,1.81444,8.10218,1.17934,16.4684,1.26474,24.67883,1.06931,8.22966-.19041,16.55959-.71387,24.64277-2.16695,2.44642-.57351,5.15006-.90423,7.00949-2.45032.0491-.03818.00564.02528.04458.00748-.18242-.51127-1.22666-.99331-1.81537-1.27762-3.73224-1.58333-7.97459-2.27013-11.99396-3.04522h0Z"/><path class="cls-2" d="M198.02983,87.12288c4.17496-.41856,8.29669-.71887,12.51178-.13945.84579.14596,1.72546.32754,2.51611.79248,4.19112,3.28924-5.17843,6.07853-7.358,6.80498-8.03213,2.47369-16.25851,3.79517-24.50973,4.79761-9.28827.91889-18.77741,1.69815-28.14954.30886-1.18905-.21785-2.51034-.48911-3.69447-1.14142-.59765-.40288-1.06551-.69746-1.26194-1.62952-.40319-4.11637,13.41927-5.58514,16.5069-6.02789-3.95161,1.20267-7.95631,2.33491-11.6324,3.99093-1.04803.51454-2.14661.97028-2.81858,1.7791-.06637.10679-.00753.10266-.00247-.05976-.03156-.15948-.02954-.12926.05377-.07304,1.77899.80138,4.01446.82572,6.1893.94465,4.03555.09255,8.12735-.03408,12.20291-.33268,8.15912-.53899,16.32096-1.47296,24.39807-2.7494,4.04351-.61341,8.06073-1.39481,12.0036-2.33559,2.3675-.63982,4.81135-1.20143,6.82273-2.44759.16158-.1078.27242-.22681.3218-.27908.01837-.06541.02625.07297.04437.14861-.40165-.42808-1.29439-.68437-1.9801-.87771-3.90563-.98189-8.11568-1.16808-12.16412-1.47408h0Z"/><path class="cls-7" d="M134.41895,201.02725c2.68362,8.14572,4.93232,17.408,6.419,27.87996"/><path class="cls-7" d="M101.57664,150.40523s12.61698,8.53424,23.88699,29.57784"/><path class="cls-7" d="M124.93453,180.74632s-.49677,2.73221,2.35964,5.34024,28.56406,17.75939,32.04142,17.01424,9.93533-8.8176,17.38682-25.21089"/><path class="cls-7" d="M180.78978,214.01107s10.90884-1.27506,16.43409-2.40844,8.92541-1.70008,9.77545-3.54183.14167-26.91791-.99171-34.56827"/><path class="cls-7" d="M305.17888,231.01185s-8.78374-5.10024-15.30071-8.64207c-5.67842-3.0861-9.06709-4.95856-9.35043-7.9337-.20547-2.15742,2.97514-22.66772,3.6835-25.21783s1.84175-4.53354,3.6835-3.96685"/><path class="cls-7" d="M168.96931,247.10947s-1.01789,8.87799,11.21634,16.45063c11.70648,7.24598,22.66633,10.59323,28.45636,3.05851,3.28601-4.27618,5.02695-9.36377,17.30976-9.36377,12.40257,0,24.99377-1.00617,31.93662,4.65096s8.29188,11.02025,17.80614,11.27739c9.51427.25714,27.51423-2.05714,31.62851-10.54284,4.11428-8.4857,2.82857-19.02853,2.82857-19.02853"/><path class="cls-3" d="M316.00108,100.34159s2.24562,8.70177,2.24562,16.84213-.2807,17.96494-.2807,17.96494c0,0,1.96492,1.40351.5614,8.98247s-2.24562,12.07019-2.52632,15.71932.2807,5.61404-.5614,10.38598,0,9.54387-3.64913,14.87722c-3.64913,5.33334-4.21053,7.85966-8.42107,8.70177s-12.9123-1.40351-15.71932-4.21053c-2.80702-2.80702-5.05264-10.94739-3.64913-16.56143s6.45615-13.75441,8.98247-18.24564c2.52632-4.49124,11.50879-23.85969,12.6316-31.15794,1.12281-7.29826,3.36843-15.71932,4.49124-18.80705,1.12281-3.08772,1.96492-5.89475,5.89475-4.49124Z"/><path class="cls-8" d="M304.14007,193.51678c2.43212-.90884,4.95788-3.54677,7.11491-8.13737,5.13031-10.91836,4.07794-24.86229,4.07794-24.86229,0,0,3.8741-11.94867,3.47946-20.2361s-1.93059-8.49459-1.93059-8.49459c0,0,1.34515-15.0743.81896-21.78318s-.92083-9.6029-2.49938-9.86599-4.07794.13155-5.39341,7.36661-9.85401,35.60006-17.12861,48.09826c-10.14435,17.4286-9.19596,24.3036-7.07595,29.77728,2.87623,7.42619,13.2862,9.07671,17.36414,8.55052"/><path class="cls-2" d="M302.07212,183.80256c4.55408-1.87502,6.42993-9.36701,2.80483-12.86669-1.60554-1.12014-3.21151.78053-4.30485,1.96586-2.01095,2.45362-3.23062,5.58345-3.67498,8.70689-1.2066,6.0881,3.37206,12.83885,9.60589,8.55358.65395-.45857,1.55599-.30011,2.01467.354,1.24435,2.0831-2.38303,3.22679-3.90346,3.72349-4.13029,1.14456-8.40099-1.69246-9.80933-5.55692-1.71-4.89827-.41394-9.95422,1.90968-14.29736,9.77252-16.25316,17.94872,5.44751,5.8452,10.73536-.85456.2954-1.32831-.98841-.48764-1.31821h0Z"/><path class="cls-2" d="M309.95799,153.90797c3.07626-7.9057,4.83527-16.37774,5.17594-24.84569.20316-2.57093,4.01632-2.19039,3.691.38232-.66434,4.3551-1.68949,8.63528-3.07844,12.80093-1.37279,4.14146-3.01384,8.16381-5.06887,12.01596-.22842.43893-.93264.10317-.71963-.35351h0Z"/><path class="cls-2" d="M310.0792,168.56372c2.15678-4.18914,3.84854-8.7944,4.623-13.40727.46123-2.40902,4.0159-1.82522,3.67416.61066-1.6601,4.91261-4.32613,9.30007-7.43381,13.37665-.37697.5028-1.1881-.04219-.86336-.58004h0Z"/><path class="cls-1" d="M292.7028,191.85051s-5.89475-9.82458.5614-23.01758c6.45615-13.193,14.59651-30.59654,16.84213-43.22814s3.36843-23.29828,6.17545-23.29828c0,0-1.40351-2.24562-2.80702-1.68421s-1.96492,3.08772-2.80702,7.01756c-.84211,3.92983-3.92983,13.47371-5.61404,19.08775-1.68421,5.61404-3.64913,10.38598-6.73685,17.12283s-3.64913,9.54387-7.29826,15.71932c-3.64913,6.17545-5.05264,10.66668-5.33334,15.43862-.2807,4.77194-1.12281,13.47371,7.01756,16.84213Z"/><path class="cls-3" d="M204.31776,131.68992l3.39873,15.36224-11.82757,34.66701s-12.50731-2.03924-13.32301-13.32301,4.21442-16.31389,8.29289-21.20805,13.45896-15.49819,13.45896-15.49819Z"/><path class="cls-8" d="M203.87125,131.81488c-2.14715,2.92589-4.39083,5.78039-6.73819,8.55123-4.83841,5.71129-10.20193,11.20165-13.16513,18.07539-1.79133,4.15535-2.61212,8.9737-.99054,13.19829,1.79933,4.68758,6.55811,8.13071,11.47139,9.4648"/><path class="cls-2" d="M200.35386,172.59263c3.07916-1.4053,6.25767-4.55694,5.50794-8.12819-.30659-1.62718-1.51753-2.98117-3.0312-3.22076-5.21889-.16186-10.1195,4.67422-10.4003,9.78756-.31013,3.49987,1.25238,6.66338,4.7542,7.65581,1.63123.63936.85029,3.10054-.84322,2.69546-4.63112-.98857-7.01092-6.25512-6.39707-10.58628.42731-4.28153,3.19178-8.18758,6.99855-10.10784,4.33778-2.3596,9.4859-2.22149,10.6988,3.44364.79358,4.42992-2.96269,8.18489-6.73951,9.71983-.82055.33972-1.35427-.89268-.5482-1.25922h0Z"/><path class="cls-8" d="M179.53675,226.82685s-5.55002,2.59001-7.03002,5.92002-6.66002,18.50006-5.55002,29.23009,21.09006,22.94007,60.31018,26.64008c39.22012,3.70001,77.70024-6.66002,81.40025-16.65005s4.44001-23.31007,1.85001-27.38008-5.55002-7.40002-5.55002-7.40002l-.37-3.70001s2.59001-4.81001,2.22001-8.51003c-.37-3.70001-8.88003-24.05007-12.95004-32.1901l-12.21004-40.70012s6.29002-4.07001,6.66002-5.92002,2.59001-19.61006,3.70001-27.38008c1.11-7.77002,0-14.43004-2.59001-17.39005s-11.94097-9.87797-34.1725-10.859c-16.28102-.71845-35.38771,2.34898-42.04773,5.30898s-11.47004,6.66002-11.10003,17.02005,4.44001,33.3001,6.29002,36.26011,4.44001,2.96001,4.07001,4.07001-6.66002,19.61006-6.66002,19.61006c0,0-2.64272-.31947-8.76112,8.03736-4.50602,6.15456-14.92292,22.38438-16.56444,31.1889-.54674,2.93251,2.01548,5.17387,2.01548,5.17387l-2.96001,9.62003Z"/><path class="cls-8" d="M179.53675,226.82685s-5.55002,2.59001-7.03002,5.92002-6.66002,18.50006-5.55002,29.23009,21.09006,22.94007,60.31018,26.64008c39.22012,3.70001,77.70024-6.66002,81.40025-16.65005s4.44001-23.31007,1.85001-27.38008-5.55002-7.40002-5.55002-7.40002l-.37-3.70001s2.59001-4.81001,2.22001-8.51003c-.37-3.70001-8.88003-24.05007-12.95004-32.1901l-12.21004-40.70012s6.29002-4.07001,6.66002-5.92002,2.59001-19.61006,3.70001-27.38008c1.11-7.77002,0-14.43004-2.59001-17.39005s-11.94097-9.87797-34.1725-10.859c-16.28102-.71845-35.38771,2.34898-42.04773,5.30898s-11.47004,6.66002-11.10003,17.02005,4.44001,33.3001,6.29002,36.26011,4.44001,2.96001,4.07001,4.07001-6.66002,19.61006-6.66002,19.61006c0,0-2.64272-.31947-8.76112,8.03736-4.50602,6.15456-14.92292,22.38438-16.56444,31.1889-.54674,2.93251,2.01548,5.17387,2.01548,5.17387l-2.96001,9.62003Z"/></g></g></svg>